<?xml version="1.0" encoding="UTF-8" standalone="no"?>
<!DOCTYPE svg PUBLIC "-//W3C//DTD SVG 1.1//EN"
 "http://www.w3.org/Graphics/SVG/1.1/DTD/svg11.dtd">
<!-- Generated by graphviz version 2.40.1 (20161225.0304)
 -->
<!-- Title: dependencies Pages: 1 -->
<svg width="2989pt" height="355pt"
 viewBox="0.00 0.00 2989.00 355.00" xmlns="http://www.w3.org/2000/svg" xmlns:xlink="http://www.w3.org/1999/xlink">
<g id="graph0" class="graph" transform="scale(1 1) rotate(0) translate(4 351)">
<title>dependencies</title>
<polygon fill="#ffffff" stroke="transparent" points="-4,4 -4,-351 2985,-351 2985,4 -4,4"/>
<text text-anchor="start" x="1469.5091" y="-42.4" font-family="sans-serif" font-weight="bold" font-size="14.00" fill="#000000">Legend</text>
<polygon fill="#ffffb3" stroke="transparent" points="1256.5,-10 1256.5,-30 1276.5,-30 1276.5,-10 1256.5,-10"/>
<text text-anchor="start" x="1280.129" y="-15.4" font-family="sans-serif" font-size="14.00" fill="#000000"> &#160;Declarations</text>
<polygon fill="#8dd3c7" stroke="transparent" points="1369.5,-10 1369.5,-30 1389.5,-30 1389.5,-10 1369.5,-10"/>
<text text-anchor="start" x="1393.2251" y="-15.4" font-family="sans-serif" font-size="14.00" fill="#000000"> &#160;Module</text>
<polygon fill="#80b1d3" stroke="transparent" points="1455.5,-10 1455.5,-30 1475.5,-30 1475.5,-10 1455.5,-10"/>
<text text-anchor="start" x="1479.2812" y="-15.4" font-family="sans-serif" font-size="14.00" fill="#000000"> &#160;Bootstrap</text>
<polygon fill="#fdb462" stroke="transparent" points="1552.5,-10 1552.5,-30 1572.5,-30 1572.5,-10 1552.5,-10"/>
<text text-anchor="start" x="1576.1732" y="-15.4" font-family="sans-serif" font-size="14.00" fill="#000000"> &#160;Providers</text>
<polygon fill="#fb8072" stroke="transparent" points="1648.5,-10 1648.5,-30 1668.5,-30 1668.5,-10 1648.5,-10"/>
<text text-anchor="start" x="1672.2258" y="-15.4" font-family="sans-serif" font-size="14.00" fill="#000000"> &#160;Exports</text>
<g id="clust1" class="cluster">
<title>cluster_FourDModule</title>
<polygon fill="none" stroke="#000000" stroke-dasharray="1,5" points="8,-70 8,-198 493,-198 493,-70 8,-70"/>
</g>
<g id="clust6" class="cluster">
<title>cluster_FourDModule_providers</title>
<polygon fill="none" stroke="#000000" points="16,-78 16,-130 485,-130 485,-78 16,-78"/>
</g>
<g id="clust7" class="cluster">
<title>cluster_JS44DModule</title>
<polygon fill="none" stroke="#000000" stroke-dasharray="1,5" points="501,-138 501,-339 2419,-339 2419,-138 501,-138"/>
</g>
<g id="clust8" class="cluster">
<title>cluster_JS44DModule_declarations</title>
<polygon fill="none" stroke="#000000" points="509,-146 509,-198 2366,-198 2366,-146 509,-146"/>
</g>
<g id="clust25" class="cluster">
<title>cluster_JS44DModule_exports</title>
<polygon fill="none" stroke="#000000" points="509,-279 509,-331 2411,-331 2411,-279 509,-279"/>
</g>
<g id="clust28" class="cluster">
<title>cluster_ModalModule</title>
<polygon fill="none" stroke="#000000" stroke-dasharray="1,5" points="2427,-70 2427,-271 2973,-271 2973,-70 2427,-70"/>
</g>
<g id="clust29" class="cluster">
<title>cluster_ModalModule_declarations</title>
<polygon fill="none" stroke="#000000" points="2739,-78 2739,-130 2965,-130 2965,-78 2739,-78"/>
</g>
<g id="clust33" class="cluster">
<title>cluster_ModalModule_exports</title>
<polygon fill="none" stroke="#000000" points="2623,-211 2623,-263 2856,-263 2856,-211 2623,-211"/>
</g>
<g id="clust35" class="cluster">
<title>cluster_ModalModule_providers</title>
<polygon fill="none" stroke="#000000" points="2435,-78 2435,-130 2731,-130 2731,-78 2435,-78"/>
</g>
<!-- FourDInterface -->
<g id="node1" class="node">
<title>FourDInterface</title>
<ellipse fill="#fdb462" stroke="#000000" cx="406" cy="-104" rx="70.6026" ry="18"/>
<text text-anchor="middle" x="406" y="-99.8" font-family="Times,serif" font-size="14.00" fill="#000000">FourDInterface</text>
</g>
<!-- FourDModule -->
<g id="node4" class="node">
<title>FourDModule</title>
<polygon fill="#8dd3c7" stroke="#000000" points="341.0997,-190 338.0997,-194 317.0997,-194 314.0997,-190 244.9003,-190 244.9003,-154 341.0997,-154 341.0997,-190"/>
<text text-anchor="middle" x="293" y="-167.8" font-family="Times,serif" font-size="14.00" fill="#000000">FourDModule</text>
</g>
<!-- FourDInterface&#45;&gt;FourDModule -->
<g id="edge1" class="edge">
<title>FourDInterface&#45;&gt;FourDModule</title>
<path fill="none" stroke="#000000" d="M335.2707,-104C329.8635,-104 326.454,-104 326.454,-104 326.454,-104 326.454,-143.7772 326.454,-143.7772"/>
<polygon fill="#000000" stroke="#000000" points="322.9541,-143.7772 326.454,-153.7772 329.9541,-143.7773 322.9541,-143.7772"/>
</g>
<!-- JS44DModule -->
<g id="node20" class="node">
<title>JS44DModule</title>
<polygon fill="#8dd3c7" stroke="#000000" points="1423.3837,-255 1420.3837,-259 1399.3837,-259 1396.3837,-255 1326.6163,-255 1326.6163,-219 1423.3837,-219 1423.3837,-255"/>
<text text-anchor="middle" x="1375" y="-232.8" font-family="Times,serif" font-size="14.00" fill="#000000">JS44DModule</text>
</g>
<!-- FourDInterface&#45;&gt;JS44DModule -->
<g id="edge35" class="edge">
<title>FourDInterface&#45;&gt;JS44DModule</title>
<path fill="none" stroke="#000000" d="M476.7552,-104C698.1408,-104 1362.9467,-104 1362.9467,-104 1362.9467,-104 1362.9467,-208.7858 1362.9467,-208.7858"/>
<polygon fill="#000000" stroke="#000000" points="1359.4468,-208.7858 1362.9467,-218.7858 1366.4468,-208.7858 1359.4468,-208.7858"/>
</g>
<!-- FourDModel -->
<g id="node2" class="node">
<title>FourDModel</title>
<ellipse fill="#fdb462" stroke="#000000" cx="256" cy="-104" rx="61.4186" ry="18"/>
<text text-anchor="middle" x="256" y="-99.8" font-family="Times,serif" font-size="14.00" fill="#000000">FourDModel</text>
</g>
<!-- FourDModel&#45;&gt;FourDModule -->
<g id="edge2" class="edge">
<title>FourDModel&#45;&gt;FourDModule</title>
<path fill="none" stroke="#000000" d="M281.2047,-120.4609C281.2047,-120.4609 281.2047,-143.7772 281.2047,-143.7772"/>
<polygon fill="#000000" stroke="#000000" points="277.7048,-143.7772 281.2047,-153.7772 284.7048,-143.7773 277.7048,-143.7772"/>
</g>
<!-- FourDCollection -->
<g id="node3" class="node">
<title>FourDCollection</title>
<ellipse fill="#fdb462" stroke="#000000" cx="100" cy="-104" rx="76.4632" ry="18"/>
<text text-anchor="middle" x="100" y="-99.8" font-family="Times,serif" font-size="14.00" fill="#000000">FourDCollection</text>
</g>
<!-- FourDCollection&#45;&gt;FourDModule -->
<g id="edge3" class="edge">
<title>FourDCollection&#45;&gt;FourDModule</title>
<path fill="none" stroke="#000000" d="M100,-122.2228C100,-142.3652 100,-172 100,-172 100,-172 234.7958,-172 234.7958,-172"/>
<polygon fill="#000000" stroke="#000000" points="234.7958,-175.5001 244.7958,-172 234.7958,-168.5001 234.7958,-175.5001"/>
</g>
<!-- FourDModule&#45;&gt;JS44DModule -->
<g id="edge19" class="edge">
<title>FourDModule&#45;&gt;JS44DModule</title>
<path fill="none" stroke="#000000" d="M293,-190.1061C293,-209.3391 293,-237 293,-237 293,-237 1316.4067,-237 1316.4067,-237"/>
<polygon fill="#000000" stroke="#000000" points="1316.4067,-240.5001 1326.4067,-237 1316.4067,-233.5001 1316.4067,-240.5001"/>
</g>
<!-- QueryBand -->
<g id="node5" class="node">
<title>QueryBand</title>
<polygon fill="#ffffb3" stroke="#000000" points="2358.0343,-190 2277.9657,-190 2277.9657,-154 2358.0343,-154 2358.0343,-190"/>
<text text-anchor="middle" x="2318" y="-167.8" font-family="Times,serif" font-size="14.00" fill="#000000">QueryBand</text>
</g>
<!-- QueryBand&#45;&gt;JS44DModule -->
<g id="edge4" class="edge">
<title>QueryBand&#45;&gt;JS44DModule</title>
<path fill="none" stroke="#000000" d="M2289.2355,-190.1686C2289.2355,-209.0898 2289.2355,-236 2289.2355,-236 2289.2355,-236 1433.5078,-236 1433.5078,-236"/>
<polygon fill="#000000" stroke="#000000" points="1433.5078,-232.5001 1423.5078,-236 1433.5077,-239.5001 1433.5078,-232.5001"/>
</g>
<!-- CustomButtonBarDirective -->
<g id="node6" class="node">
<title>CustomButtonBarDirective</title>
<polygon fill="#ffffb3" stroke="#000000" points="2259.9748,-190 2090.0252,-190 2090.0252,-154 2259.9748,-154 2259.9748,-190"/>
<text text-anchor="middle" x="2175" y="-167.8" font-family="Times,serif" font-size="14.00" fill="#000000">CustomButtonBarDirective</text>
</g>
<!-- CustomButtonBarDirective&#45;&gt;JS44DModule -->
<g id="edge5" class="edge">
<title>CustomButtonBarDirective&#45;&gt;JS44DModule</title>
<path fill="none" stroke="#000000" d="M2099.6475,-190.2667C2099.6475,-208.5552 2099.6475,-234 2099.6475,-234 2099.6475,-234 1433.389,-234 1433.389,-234"/>
<polygon fill="#000000" stroke="#000000" points="1433.389,-230.5001 1423.389,-234 1433.389,-237.5001 1433.389,-230.5001"/>
</g>
<!-- AdvancedQueryComponent -->
<g id="node7" class="node">
<title>AdvancedQueryComponent</title>
<polygon fill="#ffffb3" stroke="#000000" points="2071.5646,-190 1898.4354,-190 1898.4354,-154 2071.5646,-154 2071.5646,-190"/>
<text text-anchor="middle" x="1985" y="-167.8" font-family="Times,serif" font-size="14.00" fill="#000000">AdvancedQueryComponent</text>
</g>
<!-- AdvancedQueryComponent&#45;&gt;JS44DModule -->
<g id="edge6" class="edge">
<title>AdvancedQueryComponent&#45;&gt;JS44DModule</title>
<path fill="none" stroke="#000000" d="M1906.6019,-190.0225C1906.6019,-207.3734 1906.6019,-231 1906.6019,-231 1906.6019,-231 1433.5854,-231 1433.5854,-231"/>
<polygon fill="#000000" stroke="#000000" points="1433.5854,-227.5001 1423.5854,-231 1433.5853,-234.5001 1433.5854,-227.5001"/>
</g>
<!-- RecordEditWindow -->
<g id="node8" class="node">
<title>RecordEditWindow</title>
<polygon fill="#ffffb3" stroke="#000000" points="1879.972,-190 1752.028,-190 1752.028,-154 1879.972,-154 1879.972,-190"/>
<text text-anchor="middle" x="1816" y="-167.8" font-family="Times,serif" font-size="14.00" fill="#000000">RecordEditWindow</text>
</g>
<!-- RecordEditWindow&#45;&gt;JS44DModule -->
<g id="edge7" class="edge">
<title>RecordEditWindow&#45;&gt;JS44DModule</title>
<path fill="none" stroke="#000000" d="M1758.4332,-190.0352C1758.4332,-206.7344 1758.4332,-229 1758.4332,-229 1758.4332,-229 1433.5621,-229 1433.5621,-229"/>
<polygon fill="#000000" stroke="#000000" points="1433.5621,-225.5001 1423.5621,-229 1433.562,-232.5001 1433.5621,-225.5001"/>
</g>
<!-- RecordList -->
<g id="node9" class="node">
<title>RecordList</title>
<polygon fill="#ffffb3" stroke="#000000" points="1734.2051,-190 1655.7949,-190 1655.7949,-154 1734.2051,-154 1734.2051,-190"/>
<text text-anchor="middle" x="1695" y="-167.8" font-family="Times,serif" font-size="14.00" fill="#000000">RecordList</text>
</g>
<!-- RecordList&#45;&gt;JS44DModule -->
<g id="edge8" class="edge">
<title>RecordList&#45;&gt;JS44DModule</title>
<path fill="none" stroke="#000000" d="M1660.4488,-190.0091C1660.4488,-206.0494 1660.4488,-227 1660.4488,-227 1660.4488,-227 1433.4225,-227 1433.4225,-227"/>
<polygon fill="#000000" stroke="#000000" points="1433.4225,-223.5001 1423.4225,-227 1433.4225,-230.5001 1433.4225,-223.5001"/>
</g>
<!-- Tabs -->
<g id="node10" class="node">
<title>Tabs</title>
<polygon fill="#ffffb3" stroke="#000000" points="1638,-190 1584,-190 1584,-154 1638,-154 1638,-190"/>
<text text-anchor="middle" x="1611" y="-167.8" font-family="Times,serif" font-size="14.00" fill="#000000">Tabs</text>
</g>
<!-- Tabs&#45;&gt;JS44DModule -->
<g id="edge9" class="edge">
<title>Tabs&#45;&gt;JS44DModule</title>
<path fill="none" stroke="#000000" d="M1588.5,-190.1871C1588.5,-205.1824 1588.5,-224 1588.5,-224 1588.5,-224 1433.4465,-224 1433.4465,-224"/>
<polygon fill="#000000" stroke="#000000" points="1433.4465,-220.5001 1423.4465,-224 1433.4464,-227.5001 1433.4465,-220.5001"/>
</g>
<!-- Tab -->
<g id="node11" class="node">
<title>Tab</title>
<polygon fill="#ffffb3" stroke="#000000" points="1566,-190 1512,-190 1512,-154 1566,-154 1566,-190"/>
<text text-anchor="middle" x="1539" y="-167.8" font-family="Times,serif" font-size="14.00" fill="#000000">Tab</text>
</g>
<!-- Tab&#45;&gt;JS44DModule -->
<g id="edge10" class="edge">
<title>Tab&#45;&gt;JS44DModule</title>
<path fill="none" stroke="#000000" d="M1516.3108,-190.0511C1516.3108,-204.373 1516.3108,-222 1516.3108,-222 1516.3108,-222 1433.6312,-222 1433.6312,-222"/>
<polygon fill="#000000" stroke="#000000" points="1433.6312,-218.5001 1423.6312,-222 1433.6311,-225.5001 1433.6312,-218.5001"/>
</g>
<!-- WebAppContainer -->
<g id="node12" class="node">
<title>WebAppContainer</title>
<polygon fill="#ffffb3" stroke="#000000" points="1493.7437,-190 1372.2563,-190 1372.2563,-154 1493.7437,-154 1493.7437,-190"/>
<text text-anchor="middle" x="1433" y="-167.8" font-family="Times,serif" font-size="14.00" fill="#000000">WebAppContainer</text>
</g>
<!-- WebAppContainer&#45;&gt;JS44DModule -->
<g id="edge11" class="edge">
<title>WebAppContainer&#45;&gt;JS44DModule</title>
<path fill="none" stroke="#000000" d="M1397.7851,-190.1061C1397.7851,-190.1061 1397.7851,-208.991 1397.7851,-208.991"/>
<polygon fill="#000000" stroke="#000000" points="1394.2851,-208.9909 1397.7851,-218.991 1401.2851,-208.991 1394.2851,-208.9909"/>
</g>
<!-- FourDDropDown -->
<g id="node13" class="node">
<title>FourDDropDown</title>
<polygon fill="#ffffb3" stroke="#000000" points="1353.5312,-190 1238.4688,-190 1238.4688,-154 1353.5312,-154 1353.5312,-190"/>
<text text-anchor="middle" x="1296" y="-167.8" font-family="Times,serif" font-size="14.00" fill="#000000">FourDDropDown</text>
</g>
<!-- FourDDropDown&#45;&gt;JS44DModule -->
<g id="edge12" class="edge">
<title>FourDDropDown&#45;&gt;JS44DModule</title>
<path fill="none" stroke="#000000" d="M1340.1617,-190.1061C1340.1617,-190.1061 1340.1617,-208.991 1340.1617,-208.991"/>
<polygon fill="#000000" stroke="#000000" points="1336.6617,-208.9909 1340.1617,-218.991 1343.6617,-208.991 1336.6617,-208.9909"/>
</g>
<!-- QuickFindInput -->
<g id="node14" class="node">
<title>QuickFindInput</title>
<polygon fill="#ffffb3" stroke="#000000" points="1220.9371,-190 1115.0629,-190 1115.0629,-154 1220.9371,-154 1220.9371,-190"/>
<text text-anchor="middle" x="1168" y="-167.8" font-family="Times,serif" font-size="14.00" fill="#000000">QuickFindInput</text>
</g>
<!-- QuickFindInput&#45;&gt;JS44DModule -->
<g id="edge13" class="edge">
<title>QuickFindInput&#45;&gt;JS44DModule</title>
<path fill="none" stroke="#000000" d="M1176.125,-190.0511C1176.125,-204.373 1176.125,-222 1176.125,-222 1176.125,-222 1316.604,-222 1316.604,-222"/>
<polygon fill="#000000" stroke="#000000" points="1316.604,-225.5001 1326.604,-222 1316.604,-218.5001 1316.604,-225.5001"/>
</g>
<!-- DataGrid -->
<g id="node15" class="node">
<title>DataGrid</title>
<polygon fill="#ffffb3" stroke="#000000" points="1097.0843,-190 1028.9157,-190 1028.9157,-154 1097.0843,-154 1097.0843,-190"/>
<text text-anchor="middle" x="1063" y="-167.8" font-family="Times,serif" font-size="14.00" fill="#000000">DataGrid</text>
</g>
<!-- DataGrid&#45;&gt;JS44DModule -->
<g id="edge14" class="edge">
<title>DataGrid&#45;&gt;JS44DModule</title>
<path fill="none" stroke="#000000" d="M1069.625,-190.2396C1069.625,-205.5706 1069.625,-225 1069.625,-225 1069.625,-225 1316.6124,-225 1316.6124,-225"/>
<polygon fill="#000000" stroke="#000000" points="1316.6125,-228.5001 1326.6124,-225 1316.6124,-221.5001 1316.6125,-228.5001"/>
</g>
<!-- ListSelectorDialog -->
<g id="node16" class="node">
<title>ListSelectorDialog</title>
<polygon fill="#ffffb3" stroke="#000000" points="1010.7493,-190 889.2507,-190 889.2507,-154 1010.7493,-154 1010.7493,-190"/>
<text text-anchor="middle" x="950" y="-167.8" font-family="Times,serif" font-size="14.00" fill="#000000">ListSelectorDialog</text>
</g>
<!-- ListSelectorDialog&#45;&gt;JS44DModule -->
<g id="edge15" class="edge">
<title>ListSelectorDialog&#45;&gt;JS44DModule</title>
<path fill="none" stroke="#000000" d="M955.125,-190.0091C955.125,-206.0494 955.125,-227 955.125,-227 955.125,-227 1316.4248,-227 1316.4248,-227"/>
<polygon fill="#000000" stroke="#000000" points="1316.4249,-230.5001 1326.4248,-227 1316.4248,-223.5001 1316.4249,-230.5001"/>
</g>
<!-- Base64ImageRef -->
<g id="node17" class="node">
<title>Base64ImageRef</title>
<polygon fill="#ffffb3" stroke="#000000" points="871.4033,-190 758.5967,-190 758.5967,-154 871.4033,-154 871.4033,-190"/>
<text text-anchor="middle" x="815" y="-167.8" font-family="Times,serif" font-size="14.00" fill="#000000">Base64ImageRef</text>
</g>
<!-- Base64ImageRef&#45;&gt;JS44DModule -->
<g id="edge16" class="edge">
<title>Base64ImageRef&#45;&gt;JS44DModule</title>
<path fill="none" stroke="#000000" d="M818.125,-190.0336C818.125,-207.0597 818.125,-230 818.125,-230 818.125,-230 1316.5552,-230 1316.5552,-230"/>
<polygon fill="#000000" stroke="#000000" points="1316.5552,-233.5001 1326.5552,-230 1316.5551,-226.5001 1316.5552,-233.5001"/>
</g>
<!-- FourDDateToString -->
<g id="node18" class="node">
<title>FourDDateToString</title>
<polygon fill="#ffffb3" stroke="#000000" points="740.2534,-190 611.7466,-190 611.7466,-154 740.2534,-154 740.2534,-190"/>
<text text-anchor="middle" x="676" y="-167.8" font-family="Times,serif" font-size="14.00" fill="#000000">FourDDateToString</text>
</g>
<!-- FourDDateToString&#45;&gt;JS44DModule -->
<g id="edge17" class="edge">
<title>FourDDateToString&#45;&gt;JS44DModule</title>
<path fill="none" stroke="#000000" d="M656.7078,-190.002C656.7078,-207.6754 656.7078,-232 656.7078,-232 656.7078,-232 1316.4749,-232 1316.4749,-232"/>
<polygon fill="#000000" stroke="#000000" points="1316.4749,-235.5001 1326.4749,-232 1316.4748,-228.5001 1316.4749,-235.5001"/>
</g>
<!-- LoginCmp -->
<g id="node19" class="node">
<title>LoginCmp</title>
<polygon fill="#ffffb3" stroke="#000000" points="593.1711,-190 516.8289,-190 516.8289,-154 593.1711,-154 593.1711,-190"/>
<text text-anchor="middle" x="555" y="-167.8" font-family="Times,serif" font-size="14.00" fill="#000000">LoginCmp</text>
</g>
<!-- LoginCmp&#45;&gt;JS44DModule -->
<g id="edge18" class="edge">
<title>LoginCmp&#45;&gt;JS44DModule</title>
<path fill="none" stroke="#000000" d="M542.3883,-190.2222C542.3883,-208.8285 542.3883,-235 542.3883,-235 542.3883,-235 1316.331,-235 1316.331,-235"/>
<polygon fill="#000000" stroke="#000000" points="1316.3311,-238.5001 1326.331,-235 1316.331,-231.5001 1316.3311,-238.5001"/>
</g>
<!-- QueryBand  -->
<g id="node21" class="node">
<title>QueryBand </title>
<polygon fill="#fb8072" stroke="#000000" points="2403.033,-323 2318.967,-323 2318.967,-287 2403.033,-287 2403.033,-323"/>
<text text-anchor="middle" x="2361" y="-300.8" font-family="Times,serif" font-size="14.00" fill="#000000">QueryBand </text>
</g>
<!-- JS44DModule&#45;&gt;QueryBand  -->
<g id="edge20" class="edge">
<title>JS44DModule&#45;&gt;QueryBand </title>
<path fill="none" stroke="#000000" stroke-dasharray="5,2" d="M1423.4467,-239C1618.8534,-239 2338.625,-239 2338.625,-239 2338.625,-239 2338.625,-276.9652 2338.625,-276.9652"/>
<polygon fill="#000000" stroke="#000000" points="2335.1251,-276.9652 2338.625,-286.9652 2342.1251,-276.9652 2335.1251,-276.9652"/>
</g>
<!-- CustomButtonBarDirective  -->
<g id="node22" class="node">
<title>CustomButtonBarDirective </title>
<polygon fill="#fb8072" stroke="#000000" points="2300.9755,-323 2127.0245,-323 2127.0245,-287 2300.9755,-287 2300.9755,-323"/>
<text text-anchor="middle" x="2214" y="-300.8" font-family="Times,serif" font-size="14.00" fill="#000000">CustomButtonBarDirective </text>
</g>
<!-- JS44DModule&#45;&gt;CustomButtonBarDirective  -->
<g id="edge21" class="edge">
<title>JS44DModule&#45;&gt;CustomButtonBarDirective </title>
<path fill="none" stroke="#000000" stroke-dasharray="5,2" d="M1423.4544,-241C1599.311,-241 2193.625,-241 2193.625,-241 2193.625,-241 2193.625,-276.8314 2193.625,-276.8314"/>
<polygon fill="#000000" stroke="#000000" points="2190.1251,-276.8313 2193.625,-286.8314 2197.1251,-276.8314 2190.1251,-276.8313"/>
</g>
<!-- AdvancedQueryComponent  -->
<g id="node23" class="node">
<title>AdvancedQueryComponent </title>
<polygon fill="#fb8072" stroke="#000000" points="2109.0651,-323 1932.9349,-323 1932.9349,-287 2109.0651,-287 2109.0651,-323"/>
<text text-anchor="middle" x="2021" y="-300.8" font-family="Times,serif" font-size="14.00" fill="#000000">AdvancedQueryComponent </text>
</g>
<!-- JS44DModule&#45;&gt;AdvancedQueryComponent  -->
<g id="edge22" class="edge">
<title>JS44DModule&#45;&gt;AdvancedQueryComponent </title>
<path fill="none" stroke="#000000" stroke-dasharray="5,2" d="M1423.4276,-243C1570.5255,-243 2002.125,-243 2002.125,-243 2002.125,-243 2002.125,-276.7333 2002.125,-276.7333"/>
<polygon fill="#000000" stroke="#000000" points="1998.6251,-276.7333 2002.125,-286.7333 2005.6251,-276.7333 1998.6251,-276.7333"/>
</g>
<!-- RecordEditWindow  -->
<g id="node24" class="node">
<title>RecordEditWindow </title>
<polygon fill="#fb8072" stroke="#000000" points="1914.9729,-323 1783.0271,-323 1783.0271,-287 1914.9729,-287 1914.9729,-323"/>
<text text-anchor="middle" x="1849" y="-300.8" font-family="Times,serif" font-size="14.00" fill="#000000">RecordEditWindow </text>
</g>
<!-- JS44DModule&#45;&gt;RecordEditWindow  -->
<g id="edge23" class="edge">
<title>JS44DModule&#45;&gt;RecordEditWindow </title>
<path fill="none" stroke="#000000" stroke-dasharray="5,2" d="M1423.4346,-246C1540.9525,-246 1831.625,-246 1831.625,-246 1831.625,-246 1831.625,-276.9775 1831.625,-276.9775"/>
<polygon fill="#000000" stroke="#000000" points="1828.1251,-276.9774 1831.625,-286.9775 1835.1251,-276.9775 1828.1251,-276.9774"/>
</g>
<!-- RecordList  -->
<g id="node25" class="node">
<title>RecordList </title>
<polygon fill="#fb8072" stroke="#000000" points="1764.7053,-323 1683.2947,-323 1683.2947,-287 1764.7053,-287 1764.7053,-323"/>
<text text-anchor="middle" x="1724" y="-300.8" font-family="Times,serif" font-size="14.00" fill="#000000">RecordList </text>
</g>
<!-- JS44DModule&#45;&gt;RecordList  -->
<g id="edge24" class="edge">
<title>JS44DModule&#45;&gt;RecordList </title>
<path fill="none" stroke="#000000" stroke-dasharray="5,2" d="M1423.5119,-248C1516.042,-248 1708.625,-248 1708.625,-248 1708.625,-248 1708.625,-276.9648 1708.625,-276.9648"/>
<polygon fill="#000000" stroke="#000000" points="1705.1251,-276.9648 1708.625,-286.9648 1712.1251,-276.9649 1705.1251,-276.9648"/>
</g>
<!-- Tabs  -->
<g id="node26" class="node">
<title>Tabs </title>
<polygon fill="#fb8072" stroke="#000000" points="1665,-323 1611,-323 1611,-287 1665,-287 1665,-323"/>
<text text-anchor="middle" x="1638" y="-300.8" font-family="Times,serif" font-size="14.00" fill="#000000">Tabs </text>
</g>
<!-- JS44DModule&#45;&gt;Tabs  -->
<g id="edge25" class="edge">
<title>JS44DModule&#45;&gt;Tabs </title>
<path fill="none" stroke="#000000" stroke-dasharray="5,2" d="M1423.4019,-251C1495.9579,-251 1624.5,-251 1624.5,-251 1624.5,-251 1624.5,-276.7181 1624.5,-276.7181"/>
<polygon fill="#000000" stroke="#000000" points="1621.0001,-276.718 1624.5,-286.7181 1628.0001,-276.7181 1621.0001,-276.718"/>
</g>
<!-- Tab  -->
<g id="node27" class="node">
<title>Tab </title>
<polygon fill="#fb8072" stroke="#000000" points="1593,-323 1539,-323 1539,-287 1593,-287 1593,-323"/>
<text text-anchor="middle" x="1566" y="-300.8" font-family="Times,serif" font-size="14.00" fill="#000000">Tab </text>
</g>
<!-- JS44DModule&#45;&gt;Tab  -->
<g id="edge26" class="edge">
<title>JS44DModule&#45;&gt;Tab </title>
<path fill="none" stroke="#000000" stroke-dasharray="5,2" d="M1423.5027,-253C1476.0571,-253 1552.5,-253 1552.5,-253 1552.5,-253 1552.5,-276.8129 1552.5,-276.8129"/>
<polygon fill="#000000" stroke="#000000" points="1549.0001,-276.8129 1552.5,-286.8129 1556.0001,-276.813 1549.0001,-276.8129"/>
</g>
<!-- WebAppContainer  -->
<g id="node28" class="node">
<title>WebAppContainer </title>
<polygon fill="#fb8072" stroke="#000000" points="1520.7436,-323 1395.2564,-323 1395.2564,-287 1520.7436,-287 1520.7436,-323"/>
<text text-anchor="middle" x="1458" y="-300.8" font-family="Times,serif" font-size="14.00" fill="#000000">WebAppContainer </text>
</g>
<!-- JS44DModule&#45;&gt;WebAppContainer  -->
<g id="edge27" class="edge">
<title>JS44DModule&#45;&gt;WebAppContainer </title>
<path fill="none" stroke="#000000" stroke-dasharray="5,2" d="M1409.4101,-255.2228C1409.4101,-255.2228 1409.4101,-276.7269 1409.4101,-276.7269"/>
<polygon fill="#000000" stroke="#000000" points="1405.9101,-276.7269 1409.4101,-286.7269 1412.9101,-276.727 1405.9101,-276.7269"/>
</g>
<!-- FourDDropDown  -->
<g id="node29" class="node">
<title>FourDDropDown </title>
<polygon fill="#fb8072" stroke="#000000" points="1377.5302,-323 1258.4698,-323 1258.4698,-287 1377.5302,-287 1377.5302,-323"/>
<text text-anchor="middle" x="1318" y="-300.8" font-family="Times,serif" font-size="14.00" fill="#000000">FourDDropDown </text>
</g>
<!-- JS44DModule&#45;&gt;FourDDropDown  -->
<g id="edge28" class="edge">
<title>JS44DModule&#45;&gt;FourDDropDown </title>
<path fill="none" stroke="#000000" stroke-dasharray="5,2" d="M1352.0367,-255.2228C1352.0367,-255.2228 1352.0367,-276.7269 1352.0367,-276.7269"/>
<polygon fill="#000000" stroke="#000000" points="1348.5367,-276.7269 1352.0367,-286.7269 1355.5367,-276.727 1348.5367,-276.7269"/>
</g>
<!-- QuickFindInput  -->
<g id="node30" class="node">
<title>QuickFindInput </title>
<polygon fill="#fb8072" stroke="#000000" points="1240.4362,-323 1131.5638,-323 1131.5638,-287 1240.4362,-287 1240.4362,-323"/>
<text text-anchor="middle" x="1186" y="-300.8" font-family="Times,serif" font-size="14.00" fill="#000000">QuickFindInput </text>
</g>
<!-- JS44DModule&#45;&gt;QuickFindInput  -->
<g id="edge29" class="edge">
<title>JS44DModule&#45;&gt;QuickFindInput </title>
<path fill="none" stroke="#000000" stroke-dasharray="5,2" d="M1326.5428,-253C1284.2099,-253 1229.4765,-253 1229.4765,-253 1229.4765,-253 1229.4765,-276.8129 1229.4765,-276.8129"/>
<polygon fill="#000000" stroke="#000000" points="1225.9766,-276.8129 1229.4765,-286.8129 1232.9766,-276.813 1225.9766,-276.8129"/>
</g>
<!-- DataGrid  -->
<g id="node31" class="node">
<title>DataGrid </title>
<polygon fill="#fb8072" stroke="#000000" points="1113.5854,-323 1042.4146,-323 1042.4146,-287 1113.5854,-287 1113.5854,-323"/>
<text text-anchor="middle" x="1078" y="-300.8" font-family="Times,serif" font-size="14.00" fill="#000000">DataGrid </text>
</g>
<!-- JS44DModule&#45;&gt;DataGrid  -->
<g id="edge30" class="edge">
<title>JS44DModule&#45;&gt;DataGrid </title>
<path fill="none" stroke="#000000" stroke-dasharray="5,2" d="M1326.4926,-250C1248.878,-250 1105.4171,-250 1105.4171,-250 1105.4171,-250 1105.4171,-276.9909 1105.4171,-276.9909"/>
<polygon fill="#000000" stroke="#000000" points="1101.9172,-276.9909 1105.4171,-286.9909 1108.9172,-276.991 1101.9172,-276.9909"/>
</g>
<!-- ListSelectorDialog  -->
<g id="node32" class="node">
<title>ListSelectorDialog </title>
<polygon fill="#fb8072" stroke="#000000" points="1024.7492,-323 899.2508,-323 899.2508,-287 1024.7492,-287 1024.7492,-323"/>
<text text-anchor="middle" x="962" y="-300.8" font-family="Times,serif" font-size="14.00" fill="#000000">ListSelectorDialog </text>
</g>
<!-- JS44DModule&#45;&gt;ListSelectorDialog  -->
<g id="edge31" class="edge">
<title>JS44DModule&#45;&gt;ListSelectorDialog </title>
<path fill="none" stroke="#000000" stroke-dasharray="5,2" d="M1326.4478,-248C1228.7689,-248 1017.7495,-248 1017.7495,-248 1017.7495,-248 1017.7495,-276.9648 1017.7495,-276.9648"/>
<polygon fill="#000000" stroke="#000000" points="1014.2496,-276.9648 1017.7495,-286.9648 1021.2496,-276.9649 1014.2496,-276.9648"/>
</g>
<!-- Base64ImageRef  -->
<g id="node33" class="node">
<title>Base64ImageRef </title>
<polygon fill="#fb8072" stroke="#000000" points="880.9026,-323 765.0974,-323 765.0974,-287 880.9026,-287 880.9026,-323"/>
<text text-anchor="middle" x="823" y="-300.8" font-family="Times,serif" font-size="14.00" fill="#000000">Base64ImageRef </text>
</g>
<!-- JS44DModule&#45;&gt;Base64ImageRef  -->
<g id="edge32" class="edge">
<title>JS44DModule&#45;&gt;Base64ImageRef </title>
<path fill="none" stroke="#000000" stroke-dasharray="5,2" d="M1326.2527,-245C1200.7105,-245 876.0763,-245 876.0763,-245 876.0763,-245 876.0763,-276.998 876.0763,-276.998"/>
<polygon fill="#000000" stroke="#000000" points="872.5764,-276.998 876.0763,-286.998 879.5764,-276.9981 872.5764,-276.998"/>
</g>
<!-- FourDDateToString  -->
<g id="node34" class="node">
<title>FourDDateToString </title>
<polygon fill="#fb8072" stroke="#000000" points="747.2534,-323 614.7466,-323 614.7466,-287 747.2534,-287 747.2534,-323"/>
<text text-anchor="middle" x="681" y="-300.8" font-family="Times,serif" font-size="14.00" fill="#000000">FourDDateToString </text>
</g>
<!-- JS44DModule&#45;&gt;FourDDateToString  -->
<g id="edge33" class="edge">
<title>JS44DModule&#45;&gt;FourDDateToString </title>
<path fill="none" stroke="#000000" stroke-dasharray="5,2" d="M1326.3508,-243C1171.2452,-243 698.5422,-243 698.5422,-243 698.5422,-243 698.5422,-276.7333 698.5422,-276.7333"/>
<polygon fill="#000000" stroke="#000000" points="695.0423,-276.7333 698.5422,-286.7333 702.0423,-276.7333 695.0423,-276.7333"/>
</g>
<!-- LoginCmp  -->
<g id="node35" class="node">
<title>LoginCmp </title>
<polygon fill="#fb8072" stroke="#000000" points="597.1706,-323 516.8294,-323 516.8294,-287 597.1706,-287 597.1706,-323"/>
<text text-anchor="middle" x="557" y="-300.8" font-family="Times,serif" font-size="14.00" fill="#000000">LoginCmp </text>
</g>
<!-- JS44DModule&#45;&gt;LoginCmp  -->
<g id="edge34" class="edge">
<title>JS44DModule&#45;&gt;LoginCmp </title>
<path fill="none" stroke="#000000" stroke-dasharray="5,2" d="M1326.3276,-240C1151.8234,-240 567.8617,-240 567.8617,-240 567.8617,-240 567.8617,-276.8939 567.8617,-276.8939"/>
<polygon fill="#000000" stroke="#000000" points="564.3618,-276.8938 567.8617,-286.8939 571.3618,-276.8939 564.3618,-276.8938"/>
</g>
<!-- OKOnlyModal -->
<g id="node36" class="node">
<title>OKOnlyModal</title>
<polygon fill="#ffffb3" stroke="#000000" points="2957.2605,-122 2856.7395,-122 2856.7395,-86 2957.2605,-86 2957.2605,-122"/>
<text text-anchor="middle" x="2907" y="-99.8" font-family="Times,serif" font-size="14.00" fill="#000000">OKOnlyModal</text>
</g>
<!-- ModalModule -->
<g id="node38" class="node">
<title>ModalModule</title>
<polygon fill="#8dd3c7" stroke="#000000" points="2785.0997,-190 2782.0997,-194 2761.0997,-194 2758.0997,-190 2688.9003,-190 2688.9003,-154 2785.0997,-154 2785.0997,-190"/>
<text text-anchor="middle" x="2737" y="-167.8" font-family="Times,serif" font-size="14.00" fill="#000000">ModalModule</text>
</g>
<!-- OKOnlyModal&#45;&gt;ModalModule -->
<g id="edge36" class="edge">
<title>OKOnlyModal&#45;&gt;ModalModule</title>
<path fill="none" stroke="#000000" d="M2907,-122.2228C2907,-142.3652 2907,-172 2907,-172 2907,-172 2795.2605,-172 2795.2605,-172"/>
<polygon fill="#000000" stroke="#000000" points="2795.2605,-168.5001 2785.2605,-172 2795.2604,-175.5001 2795.2605,-168.5001"/>
</g>
<!-- YesNoModal -->
<g id="node37" class="node">
<title>YesNoModal</title>
<polygon fill="#ffffb3" stroke="#000000" points="2838.9232,-122 2747.0768,-122 2747.0768,-86 2838.9232,-86 2838.9232,-122"/>
<text text-anchor="middle" x="2793" y="-99.8" font-family="Times,serif" font-size="14.00" fill="#000000">YesNoModal</text>
</g>
<!-- YesNoModal&#45;&gt;ModalModule -->
<g id="edge37" class="edge">
<title>YesNoModal&#45;&gt;ModalModule</title>
<path fill="none" stroke="#000000" d="M2766.1694,-122.2228C2766.1694,-122.2228 2766.1694,-143.7269 2766.1694,-143.7269"/>
<polygon fill="#000000" stroke="#000000" points="2762.6694,-143.7269 2766.1694,-153.7269 2769.6694,-143.727 2762.6694,-143.7269"/>
</g>
<!-- OKOnlyModal  -->
<g id="node39" class="node">
<title>OKOnlyModal </title>
<polygon fill="#fb8072" stroke="#000000" points="2848.2605,-255 2743.7395,-255 2743.7395,-219 2848.2605,-219 2848.2605,-255"/>
<text text-anchor="middle" x="2796" y="-232.8" font-family="Times,serif" font-size="14.00" fill="#000000">OKOnlyModal </text>
</g>
<!-- ModalModule&#45;&gt;OKOnlyModal  -->
<g id="edge38" class="edge">
<title>ModalModule&#45;&gt;OKOnlyModal </title>
<path fill="none" stroke="#000000" stroke-dasharray="5,2" d="M2764.4599,-190.1061C2764.4599,-190.1061 2764.4599,-208.991 2764.4599,-208.991"/>
<polygon fill="#000000" stroke="#000000" points="2760.9599,-208.9909 2764.4599,-218.991 2767.9599,-208.991 2760.9599,-208.9909"/>
</g>
<!-- YesNoModal  -->
<g id="node40" class="node">
<title>YesNoModal </title>
<polygon fill="#fb8072" stroke="#000000" points="2725.4222,-255 2630.5778,-255 2630.5778,-219 2725.4222,-219 2725.4222,-255"/>
<text text-anchor="middle" x="2678" y="-232.8" font-family="Times,serif" font-size="14.00" fill="#000000">YesNoModal </text>
</g>
<!-- ModalModule&#45;&gt;YesNoModal  -->
<g id="edge39" class="edge">
<title>ModalModule&#45;&gt;YesNoModal </title>
<path fill="none" stroke="#000000" stroke-dasharray="5,2" d="M2707.2057,-190.1061C2707.2057,-190.1061 2707.2057,-208.991 2707.2057,-208.991"/>
<polygon fill="#000000" stroke="#000000" points="2703.7057,-208.9909 2707.2057,-218.991 2710.7057,-208.991 2703.7057,-208.9909"/>
</g>
<!-- Modal -->
<g id="node41" class="node">
<title>Modal</title>
<ellipse fill="#fdb462" stroke="#000000" cx="2687" cy="-104" rx="36.4975" ry="18"/>
<text text-anchor="middle" x="2687" y="-99.8" font-family="Times,serif" font-size="14.00" fill="#000000">Modal</text>
</g>
<!-- Modal&#45;&gt;ModalModule -->
<g id="edge40" class="edge">
<title>Modal&#45;&gt;ModalModule</title>
<path fill="none" stroke="#000000" d="M2706.099,-119.4303C2706.099,-119.4303 2706.099,-143.7353 2706.099,-143.7353"/>
<polygon fill="#000000" stroke="#000000" points="2702.5991,-143.7353 2706.099,-153.7353 2709.5991,-143.7354 2702.5991,-143.7353"/>
</g>
<!-- ModalDialogInstance -->
<g id="node42" class="node">
<title>ModalDialogInstance</title>
<ellipse fill="#fdb462" stroke="#000000" cx="2538" cy="-104" rx="94.9032" ry="18"/>
<text text-anchor="middle" x="2538" y="-99.8" font-family="Times,serif" font-size="14.00" fill="#000000">ModalDialogInstance</text>
</g>
<!-- ModalDialogInstance&#45;&gt;ModalModule -->
<g id="edge41" class="edge">
<title>ModalDialogInstance&#45;&gt;ModalModule</title>
<path fill="none" stroke="#000000" d="M2536.9188,-122.2228C2536.9188,-142.3652 2536.9188,-172 2536.9188,-172 2536.9188,-172 2678.8209,-172 2678.8209,-172"/>
<polygon fill="#000000" stroke="#000000" points="2678.821,-175.5001 2688.8209,-172 2678.8209,-168.5001 2678.821,-175.5001"/>
</g>
</g>
</svg>
