<?xml version="1.0" encoding="UTF-8" standalone="no"?>
<!DOCTYPE svg PUBLIC "-//W3C//DTD SVG 1.1//EN"
 "http://www.w3.org/Graphics/SVG/1.1/DTD/svg11.dtd">
<!-- Generated by graphviz version 2.40.1 (20161225.0304)
 -->
<!-- Title: dependencies Pages: 1 -->
<svg width="3296pt" height="355pt"
 viewBox="0.00 0.00 3296.00 355.00" xmlns="http://www.w3.org/2000/svg" xmlns:xlink="http://www.w3.org/1999/xlink">
<g id="graph0" class="graph" transform="scale(1 1) rotate(0) translate(4 351)">
<title>dependencies</title>
<polygon fill="#ffffff" stroke="transparent" points="-4,4 -4,-351 3292,-351 3292,4 -4,4"/>
<text text-anchor="start" x="1623.0091" y="-42.4" font-family="sans-serif" font-weight="bold" font-size="14.00" fill="#000000">Legend</text>
<polygon fill="#ffffb3" stroke="transparent" points="1410,-10 1410,-30 1430,-30 1430,-10 1410,-10"/>
<text text-anchor="start" x="1433.629" y="-15.4" font-family="sans-serif" font-size="14.00" fill="#000000"> &#160;Declarations</text>
<polygon fill="#8dd3c7" stroke="transparent" points="1523,-10 1523,-30 1543,-30 1543,-10 1523,-10"/>
<text text-anchor="start" x="1546.7251" y="-15.4" font-family="sans-serif" font-size="14.00" fill="#000000"> &#160;Module</text>
<polygon fill="#80b1d3" stroke="transparent" points="1609,-10 1609,-30 1629,-30 1629,-10 1609,-10"/>
<text text-anchor="start" x="1632.7812" y="-15.4" font-family="sans-serif" font-size="14.00" fill="#000000"> &#160;Bootstrap</text>
<polygon fill="#fdb462" stroke="transparent" points="1706,-10 1706,-30 1726,-30 1726,-10 1706,-10"/>
<text text-anchor="start" x="1729.6732" y="-15.4" font-family="sans-serif" font-size="14.00" fill="#000000"> &#160;Providers</text>
<polygon fill="#fb8072" stroke="transparent" points="1802,-10 1802,-30 1822,-30 1822,-10 1802,-10"/>
<text text-anchor="start" x="1825.7258" y="-15.4" font-family="sans-serif" font-size="14.00" fill="#000000"> &#160;Exports</text>
<g id="clust1" class="cluster">
<title>cluster_FourDModule</title>
<polygon fill="none" stroke="#000000" stroke-dasharray="1,5" points="8,-70 8,-198 493,-198 493,-70 8,-70"/>
</g>
<g id="clust6" class="cluster">
<title>cluster_FourDModule_providers</title>
<polygon fill="none" stroke="#000000" points="16,-78 16,-130 485,-130 485,-78 16,-78"/>
</g>
<g id="clust7" class="cluster">
<title>cluster_JS44DModule</title>
<polygon fill="none" stroke="#000000" stroke-dasharray="1,5" points="501,-138 501,-339 2726,-339 2726,-138 501,-138"/>
</g>
<g id="clust8" class="cluster">
<title>cluster_JS44DModule_declarations</title>
<polygon fill="none" stroke="#000000" points="509,-146 509,-198 2665,-198 2665,-146 509,-146"/>
</g>
<g id="clust27" class="cluster">
<title>cluster_JS44DModule_exports</title>
<polygon fill="none" stroke="#000000" points="509,-279 509,-331 2718,-331 2718,-279 509,-279"/>
</g>
<g id="clust30" class="cluster">
<title>cluster_ModalModule</title>
<polygon fill="none" stroke="#000000" stroke-dasharray="1,5" points="2734,-70 2734,-271 3280,-271 3280,-70 2734,-70"/>
</g>
<g id="clust31" class="cluster">
<title>cluster_ModalModule_declarations</title>
<polygon fill="none" stroke="#000000" points="3046,-78 3046,-130 3272,-130 3272,-78 3046,-78"/>
</g>
<g id="clust35" class="cluster">
<title>cluster_ModalModule_exports</title>
<polygon fill="none" stroke="#000000" points="2930,-211 2930,-263 3163,-263 3163,-211 2930,-211"/>
</g>
<g id="clust37" class="cluster">
<title>cluster_ModalModule_providers</title>
<polygon fill="none" stroke="#000000" points="2742,-78 2742,-130 3038,-130 3038,-78 2742,-78"/>
</g>
<!-- FourDCollection -->
<g id="node1" class="node">
<title>FourDCollection</title>
<ellipse fill="#fdb462" stroke="#000000" cx="241" cy="-104" rx="76.4632" ry="18"/>
<text text-anchor="middle" x="241" y="-99.8" font-family="Times,serif" font-size="14.00" fill="#000000">FourDCollection</text>
</g>
<!-- FourDModule -->
<g id="node4" class="node">
<title>FourDModule</title>
<polygon fill="#8dd3c7" stroke="#000000" points="333.0997,-190 330.0997,-194 309.0997,-194 306.0997,-190 236.9003,-190 236.9003,-154 333.0997,-154 333.0997,-190"/>
<text text-anchor="middle" x="285" y="-167.8" font-family="Times,serif" font-size="14.00" fill="#000000">FourDModule</text>
</g>
<!-- FourDCollection&#45;&gt;FourDModule -->
<g id="edge1" class="edge">
<title>FourDCollection&#45;&gt;FourDModule</title>
<path fill="none" stroke="#000000" d="M277.2159,-120.1151C277.2159,-120.1151 277.2159,-143.5982 277.2159,-143.5982"/>
<polygon fill="#000000" stroke="#000000" points="273.716,-143.5982 277.2159,-153.5982 280.716,-143.5983 273.716,-143.5982"/>
</g>
<!-- FourDInterface -->
<g id="node2" class="node">
<title>FourDInterface</title>
<ellipse fill="#fdb462" stroke="#000000" cx="406" cy="-104" rx="70.6026" ry="18"/>
<text text-anchor="middle" x="406" y="-99.8" font-family="Times,serif" font-size="14.00" fill="#000000">FourDInterface</text>
</g>
<!-- FourDInterface&#45;&gt;FourDModule -->
<g id="edge2" class="edge">
<title>FourDInterface&#45;&gt;FourDModule</title>
<path fill="none" stroke="#000000" d="M335.1653,-104C329.129,-104 325.2657,-104 325.2657,-104 325.2657,-104 325.2657,-143.7772 325.2657,-143.7772"/>
<polygon fill="#000000" stroke="#000000" points="321.7658,-143.7772 325.2657,-153.7772 328.7658,-143.7773 321.7658,-143.7772"/>
</g>
<!-- JS44DModule -->
<g id="node22" class="node">
<title>JS44DModule</title>
<polygon fill="#8dd3c7" stroke="#000000" points="1464.3837,-255 1461.3837,-259 1440.3837,-259 1437.3837,-255 1367.6163,-255 1367.6163,-219 1464.3837,-219 1464.3837,-255"/>
<text text-anchor="middle" x="1416" y="-232.8" font-family="Times,serif" font-size="14.00" fill="#000000">JS44DModule</text>
</g>
<!-- FourDInterface&#45;&gt;JS44DModule -->
<g id="edge39" class="edge">
<title>FourDInterface&#45;&gt;JS44DModule</title>
<path fill="none" stroke="#000000" d="M476.8201,-104C705.1952,-104 1407.4657,-104 1407.4657,-104 1407.4657,-104 1407.4657,-208.7858 1407.4657,-208.7858"/>
<polygon fill="#000000" stroke="#000000" points="1403.9657,-208.7858 1407.4657,-218.7858 1410.9657,-208.7858 1403.9657,-208.7858"/>
</g>
<!-- FourDModel -->
<g id="node3" class="node">
<title>FourDModel</title>
<ellipse fill="#fdb462" stroke="#000000" cx="85" cy="-104" rx="61.4186" ry="18"/>
<text text-anchor="middle" x="85" y="-99.8" font-family="Times,serif" font-size="14.00" fill="#000000">FourDModel</text>
</g>
<!-- FourDModel&#45;&gt;FourDModule -->
<g id="edge3" class="edge">
<title>FourDModel&#45;&gt;FourDModule</title>
<path fill="none" stroke="#000000" d="M85,-122.2228C85,-142.3652 85,-172 85,-172 85,-172 226.8405,-172 226.8405,-172"/>
<polygon fill="#000000" stroke="#000000" points="226.8405,-175.5001 236.8405,-172 226.8405,-168.5001 226.8405,-175.5001"/>
</g>
<!-- FourDModule&#45;&gt;JS44DModule -->
<g id="edge21" class="edge">
<title>FourDModule&#45;&gt;JS44DModule</title>
<path fill="none" stroke="#000000" d="M285,-190.1061C285,-209.3391 285,-237 285,-237 285,-237 1357.4023,-237 1357.4023,-237"/>
<polygon fill="#000000" stroke="#000000" points="1357.4024,-240.5001 1367.4023,-237 1357.4023,-233.5001 1357.4024,-240.5001"/>
</g>
<!-- AdvancedQueryComponent -->
<g id="node5" class="node">
<title>AdvancedQueryComponent</title>
<polygon fill="#ffffb3" stroke="#000000" points="2656.5646,-190 2483.4354,-190 2483.4354,-154 2656.5646,-154 2656.5646,-190"/>
<text text-anchor="middle" x="2570" y="-167.8" font-family="Times,serif" font-size="14.00" fill="#000000">AdvancedQueryComponent</text>
</g>
<!-- AdvancedQueryComponent&#45;&gt;JS44DModule -->
<g id="edge4" class="edge">
<title>AdvancedQueryComponent&#45;&gt;JS44DModule</title>
<path fill="none" stroke="#000000" d="M2499.7095,-190.1686C2499.7095,-209.0898 2499.7095,-236 2499.7095,-236 2499.7095,-236 1474.6701,-236 1474.6701,-236"/>
<polygon fill="#000000" stroke="#000000" points="1474.6701,-232.5001 1464.6701,-236 1474.67,-239.5001 1474.6701,-232.5001"/>
</g>
<!-- Base64ImageRef -->
<g id="node6" class="node">
<title>Base64ImageRef</title>
<polygon fill="#ffffb3" stroke="#000000" points="2465.4033,-190 2352.5967,-190 2352.5967,-154 2465.4033,-154 2465.4033,-190"/>
<text text-anchor="middle" x="2409" y="-167.8" font-family="Times,serif" font-size="14.00" fill="#000000">Base64ImageRef</text>
</g>
<!-- Base64ImageRef&#45;&gt;JS44DModule -->
<g id="edge5" class="edge">
<title>Base64ImageRef&#45;&gt;JS44DModule</title>
<path fill="none" stroke="#000000" d="M2367.268,-190.2667C2367.268,-208.5552 2367.268,-234 2367.268,-234 2367.268,-234 1474.4813,-234 1474.4813,-234"/>
<polygon fill="#000000" stroke="#000000" points="1474.4814,-230.5001 1464.4813,-234 1474.4813,-237.5001 1474.4814,-230.5001"/>
</g>
<!-- CustomButtonBarDirective -->
<g id="node7" class="node">
<title>CustomButtonBarDirective</title>
<polygon fill="#ffffb3" stroke="#000000" points="2334.9748,-190 2165.0252,-190 2165.0252,-154 2334.9748,-154 2334.9748,-190"/>
<text text-anchor="middle" x="2250" y="-167.8" font-family="Times,serif" font-size="14.00" fill="#000000">CustomButtonBarDirective</text>
</g>
<!-- CustomButtonBarDirective&#45;&gt;JS44DModule -->
<g id="edge6" class="edge">
<title>CustomButtonBarDirective&#45;&gt;JS44DModule</title>
<path fill="none" stroke="#000000" d="M2177.4024,-190.002C2177.4024,-207.6754 2177.4024,-232 2177.4024,-232 2177.4024,-232 1474.4967,-232 1474.4967,-232"/>
<polygon fill="#000000" stroke="#000000" points="1474.4967,-228.5001 1464.4967,-232 1474.4967,-235.5001 1474.4967,-228.5001"/>
</g>
<!-- DataGrid -->
<g id="node8" class="node">
<title>DataGrid</title>
<polygon fill="#ffffb3" stroke="#000000" points="2147.0843,-190 2078.9157,-190 2078.9157,-154 2147.0843,-154 2147.0843,-190"/>
<text text-anchor="middle" x="2113" y="-167.8" font-family="Times,serif" font-size="14.00" fill="#000000">DataGrid</text>
</g>
<!-- DataGrid&#45;&gt;JS44DModule -->
<g id="edge7" class="edge">
<title>DataGrid&#45;&gt;JS44DModule</title>
<path fill="none" stroke="#000000" d="M2089.5423,-190.0336C2089.5423,-207.0597 2089.5423,-230 2089.5423,-230 2089.5423,-230 1474.4395,-230 1474.4395,-230"/>
<polygon fill="#000000" stroke="#000000" points="1474.4395,-226.5001 1464.4395,-230 1474.4395,-233.5001 1474.4395,-226.5001"/>
</g>
<!-- FourDDateToString -->
<g id="node9" class="node">
<title>FourDDateToString</title>
<polygon fill="#ffffb3" stroke="#000000" points="2061.2534,-190 1932.7466,-190 1932.7466,-154 2061.2534,-154 2061.2534,-190"/>
<text text-anchor="middle" x="1997" y="-167.8" font-family="Times,serif" font-size="14.00" fill="#000000">FourDDateToString</text>
</g>
<!-- FourDDateToString&#45;&gt;JS44DModule -->
<g id="edge8" class="edge">
<title>FourDDateToString&#45;&gt;JS44DModule</title>
<path fill="none" stroke="#000000" d="M1941.0693,-190.027C1941.0693,-206.3976 1941.0693,-228 1941.0693,-228 1941.0693,-228 1474.4561,-228 1474.4561,-228"/>
<polygon fill="#000000" stroke="#000000" points="1474.4561,-224.5001 1464.4561,-228 1474.4561,-231.5001 1474.4561,-224.5001"/>
</g>
<!-- FourDDropDown -->
<g id="node10" class="node">
<title>FourDDropDown</title>
<polygon fill="#ffffb3" stroke="#000000" points="1914.5312,-190 1799.4688,-190 1799.4688,-154 1914.5312,-154 1914.5312,-190"/>
<text text-anchor="middle" x="1857" y="-167.8" font-family="Times,serif" font-size="14.00" fill="#000000">FourDDropDown</text>
</g>
<!-- FourDDropDown&#45;&gt;JS44DModule -->
<g id="edge9" class="edge">
<title>FourDDropDown&#45;&gt;JS44DModule</title>
<path fill="none" stroke="#000000" d="M1805.8771,-190.2819C1805.8771,-205.9478 1805.8771,-226 1805.8771,-226 1805.8771,-226 1474.5899,-226 1474.5899,-226"/>
<polygon fill="#000000" stroke="#000000" points="1474.5899,-222.5001 1464.5899,-226 1474.5899,-229.5001 1474.5899,-222.5001"/>
</g>
<!-- FourDRegistryInput -->
<g id="node11" class="node">
<title>FourDRegistryInput</title>
<polygon fill="#ffffb3" stroke="#000000" points="1780.5394,-190 1651.4606,-190 1651.4606,-154 1780.5394,-154 1780.5394,-190"/>
<text text-anchor="middle" x="1716" y="-167.8" font-family="Times,serif" font-size="14.00" fill="#000000">FourDRegistryInput</text>
</g>
<!-- FourDRegistryInput&#45;&gt;JS44DModule -->
<g id="edge10" class="edge">
<title>FourDRegistryInput&#45;&gt;JS44DModule</title>
<path fill="none" stroke="#000000" d="M1656.4276,-190.1871C1656.4276,-205.1824 1656.4276,-224 1656.4276,-224 1656.4276,-224 1474.6541,-224 1474.6541,-224"/>
<polygon fill="#000000" stroke="#000000" points="1474.6541,-220.5001 1464.6541,-224 1474.6541,-227.5001 1474.6541,-220.5001"/>
</g>
<!-- ListSelectorDialog -->
<g id="node12" class="node">
<title>ListSelectorDialog</title>
<polygon fill="#ffffb3" stroke="#000000" points="1632.7493,-190 1511.2507,-190 1511.2507,-154 1632.7493,-154 1632.7493,-190"/>
<text text-anchor="middle" x="1572" y="-167.8" font-family="Times,serif" font-size="14.00" fill="#000000">ListSelectorDialog</text>
</g>
<!-- ListSelectorDialog&#45;&gt;JS44DModule -->
<g id="edge11" class="edge">
<title>ListSelectorDialog&#45;&gt;JS44DModule</title>
<path fill="none" stroke="#000000" d="M1527.2304,-190.0511C1527.2304,-204.373 1527.2304,-222 1527.2304,-222 1527.2304,-222 1474.4637,-222 1474.4637,-222"/>
<polygon fill="#000000" stroke="#000000" points="1474.4637,-218.5001 1464.4637,-222 1474.4636,-225.5001 1474.4637,-218.5001"/>
</g>
<!-- LoginCmp -->
<g id="node13" class="node">
<title>LoginCmp</title>
<polygon fill="#ffffb3" stroke="#000000" points="1493.1711,-190 1416.8289,-190 1416.8289,-154 1493.1711,-154 1493.1711,-190"/>
<text text-anchor="middle" x="1455" y="-167.8" font-family="Times,serif" font-size="14.00" fill="#000000">LoginCmp</text>
</g>
<!-- LoginCmp&#45;&gt;JS44DModule -->
<g id="edge12" class="edge">
<title>LoginCmp&#45;&gt;JS44DModule</title>
<path fill="none" stroke="#000000" d="M1440.5533,-190.1061C1440.5533,-190.1061 1440.5533,-208.991 1440.5533,-208.991"/>
<polygon fill="#000000" stroke="#000000" points="1437.0534,-208.9909 1440.5533,-218.991 1444.0534,-208.991 1437.0534,-208.9909"/>
</g>
<!-- QueryBand -->
<g id="node14" class="node">
<title>QueryBand</title>
<polygon fill="#ffffb3" stroke="#000000" points="1398.0343,-190 1317.9657,-190 1317.9657,-154 1398.0343,-154 1398.0343,-190"/>
<text text-anchor="middle" x="1358" y="-167.8" font-family="Times,serif" font-size="14.00" fill="#000000">QueryBand</text>
</g>
<!-- QueryBand&#45;&gt;JS44DModule -->
<g id="edge13" class="edge">
<title>QueryBand&#45;&gt;JS44DModule</title>
<path fill="none" stroke="#000000" d="M1382.9124,-190.1061C1382.9124,-190.1061 1382.9124,-208.991 1382.9124,-208.991"/>
<polygon fill="#000000" stroke="#000000" points="1379.4124,-208.9909 1382.9124,-218.991 1386.4124,-208.991 1379.4124,-208.9909"/>
</g>
<!-- QueryBandDirective -->
<g id="node15" class="node">
<title>QueryBandDirective</title>
<polygon fill="#ffffb3" stroke="#000000" points="1299.1164,-190 1166.8836,-190 1166.8836,-154 1299.1164,-154 1299.1164,-190"/>
<text text-anchor="middle" x="1233" y="-167.8" font-family="Times,serif" font-size="14.00" fill="#000000">QueryBandDirective</text>
</g>
<!-- QueryBandDirective&#45;&gt;JS44DModule -->
<g id="edge14" class="edge">
<title>QueryBandDirective&#45;&gt;JS44DModule</title>
<path fill="none" stroke="#000000" d="M1240.625,-190.0511C1240.625,-204.373 1240.625,-222 1240.625,-222 1240.625,-222 1357.6138,-222 1357.6138,-222"/>
<polygon fill="#000000" stroke="#000000" points="1357.6138,-225.5001 1367.6138,-222 1357.6137,-218.5001 1357.6138,-225.5001"/>
</g>
<!-- QuickFindInput -->
<g id="node16" class="node">
<title>QuickFindInput</title>
<polygon fill="#ffffb3" stroke="#000000" points="1148.9371,-190 1043.0629,-190 1043.0629,-154 1148.9371,-154 1148.9371,-190"/>
<text text-anchor="middle" x="1096" y="-167.8" font-family="Times,serif" font-size="14.00" fill="#000000">QuickFindInput</text>
</g>
<!-- QuickFindInput&#45;&gt;JS44DModule -->
<g id="edge15" class="edge">
<title>QuickFindInput&#45;&gt;JS44DModule</title>
<path fill="none" stroke="#000000" d="M1101.625,-190.1871C1101.625,-205.1824 1101.625,-224 1101.625,-224 1101.625,-224 1357.5679,-224 1357.5679,-224"/>
<polygon fill="#000000" stroke="#000000" points="1357.5679,-227.5001 1367.5679,-224 1357.5678,-220.5001 1357.5679,-227.5001"/>
</g>
<!-- RecordEditWindow -->
<g id="node17" class="node">
<title>RecordEditWindow</title>
<polygon fill="#ffffb3" stroke="#000000" points="1024.972,-190 897.028,-190 897.028,-154 1024.972,-154 1024.972,-190"/>
<text text-anchor="middle" x="961" y="-167.8" font-family="Times,serif" font-size="14.00" fill="#000000">RecordEditWindow</text>
</g>
<!-- RecordEditWindow&#45;&gt;JS44DModule -->
<g id="edge16" class="edge">
<title>RecordEditWindow&#45;&gt;JS44DModule</title>
<path fill="none" stroke="#000000" d="M965.125,-190.2819C965.125,-205.9478 965.125,-226 965.125,-226 965.125,-226 1357.3201,-226 1357.3201,-226"/>
<polygon fill="#000000" stroke="#000000" points="1357.3201,-229.5001 1367.3201,-226 1357.3201,-222.5001 1357.3201,-229.5001"/>
</g>
<!-- RecordList -->
<g id="node18" class="node">
<title>RecordList</title>
<polygon fill="#ffffb3" stroke="#000000" points="879.2051,-190 800.7949,-190 800.7949,-154 879.2051,-154 879.2051,-190"/>
<text text-anchor="middle" x="840" y="-167.8" font-family="Times,serif" font-size="14.00" fill="#000000">RecordList</text>
</g>
<!-- RecordList&#45;&gt;JS44DModule -->
<g id="edge17" class="edge">
<title>RecordList&#45;&gt;JS44DModule</title>
<path fill="none" stroke="#000000" d="M842.125,-190.027C842.125,-206.3976 842.125,-228 842.125,-228 842.125,-228 1357.5663,-228 1357.5663,-228"/>
<polygon fill="#000000" stroke="#000000" points="1357.5664,-231.5001 1367.5663,-228 1357.5663,-224.5001 1357.5664,-231.5001"/>
</g>
<!-- Tab -->
<g id="node19" class="node">
<title>Tab</title>
<polygon fill="#ffffb3" stroke="#000000" points="783,-190 729,-190 729,-154 783,-154 783,-190"/>
<text text-anchor="middle" x="756" y="-167.8" font-family="Times,serif" font-size="14.00" fill="#000000">Tab</text>
</g>
<!-- Tab&#45;&gt;JS44DModule -->
<g id="edge18" class="edge">
<title>Tab&#45;&gt;JS44DModule</title>
<path fill="none" stroke="#000000" d="M749.6667,-190.0225C749.6667,-207.3734 749.6667,-231 749.6667,-231 749.6667,-231 1357.5422,-231 1357.5422,-231"/>
<polygon fill="#000000" stroke="#000000" points="1357.5422,-234.5001 1367.5422,-231 1357.5422,-227.5001 1357.5422,-234.5001"/>
</g>
<!-- Tabs -->
<g id="node20" class="node">
<title>Tabs</title>
<polygon fill="#ffffb3" stroke="#000000" points="711,-190 657,-190 657,-154 711,-154 711,-190"/>
<text text-anchor="middle" x="684" y="-167.8" font-family="Times,serif" font-size="14.00" fill="#000000">Tabs</text>
</g>
<!-- Tabs&#45;&gt;JS44DModule -->
<g id="edge19" class="edge">
<title>Tabs&#45;&gt;JS44DModule</title>
<path fill="none" stroke="#000000" d="M677.6667,-190.302C677.6667,-208.2699 677.6667,-233 677.6667,-233 677.6667,-233 1357.5559,-233 1357.5559,-233"/>
<polygon fill="#000000" stroke="#000000" points="1357.5559,-236.5001 1367.5559,-233 1357.5559,-229.5001 1357.5559,-236.5001"/>
</g>
<!-- WebAppContainer -->
<g id="node21" class="node">
<title>WebAppContainer</title>
<polygon fill="#ffffb3" stroke="#000000" points="638.7437,-190 517.2563,-190 517.2563,-154 638.7437,-154 638.7437,-190"/>
<text text-anchor="middle" x="578" y="-167.8" font-family="Times,serif" font-size="14.00" fill="#000000">WebAppContainer</text>
</g>
<!-- WebAppContainer&#45;&gt;JS44DModule -->
<g id="edge20" class="edge">
<title>WebAppContainer&#45;&gt;JS44DModule</title>
<path fill="none" stroke="#000000" d="M557.8761,-190.2222C557.8761,-208.8285 557.8761,-235 557.8761,-235 557.8761,-235 1357.4048,-235 1357.4048,-235"/>
<polygon fill="#000000" stroke="#000000" points="1357.4049,-238.5001 1367.4048,-235 1357.4048,-231.5001 1357.4049,-238.5001"/>
</g>
<!-- AdvancedQueryComponent  -->
<g id="node23" class="node">
<title>AdvancedQueryComponent </title>
<polygon fill="#fb8072" stroke="#000000" points="2710.0651,-323 2533.9349,-323 2533.9349,-287 2710.0651,-287 2710.0651,-323"/>
<text text-anchor="middle" x="2622" y="-300.8" font-family="Times,serif" font-size="14.00" fill="#000000">AdvancedQueryComponent </text>
</g>
<!-- JS44DModule&#45;&gt;AdvancedQueryComponent  -->
<g id="edge22" class="edge">
<title>JS44DModule&#45;&gt;AdvancedQueryComponent </title>
<path fill="none" stroke="#000000" stroke-dasharray="5,2" d="M1464.4214,-239C1686.302,-239 2595.125,-239 2595.125,-239 2595.125,-239 2595.125,-276.9652 2595.125,-276.9652"/>
<polygon fill="#000000" stroke="#000000" points="2591.6251,-276.9652 2595.125,-286.9652 2598.6251,-276.9652 2591.6251,-276.9652"/>
</g>
<!-- Base64ImageRef  -->
<g id="node24" class="node">
<title>Base64ImageRef </title>
<polygon fill="#fb8072" stroke="#000000" points="2515.9026,-323 2400.0974,-323 2400.0974,-287 2515.9026,-287 2515.9026,-323"/>
<text text-anchor="middle" x="2458" y="-300.8" font-family="Times,serif" font-size="14.00" fill="#000000">Base64ImageRef </text>
</g>
<!-- JS44DModule&#45;&gt;Base64ImageRef  -->
<g id="edge23" class="edge">
<title>JS44DModule&#45;&gt;Base64ImageRef </title>
<path fill="none" stroke="#000000" stroke-dasharray="5,2" d="M1464.6914,-241C1667.2474,-241 2432.625,-241 2432.625,-241 2432.625,-241 2432.625,-276.8314 2432.625,-276.8314"/>
<polygon fill="#000000" stroke="#000000" points="2429.1251,-276.8313 2432.625,-286.8314 2436.1251,-276.8314 2429.1251,-276.8313"/>
</g>
<!-- CustomButtonBarDirective  -->
<g id="node25" class="node">
<title>CustomButtonBarDirective </title>
<polygon fill="#fb8072" stroke="#000000" points="2381.9755,-323 2208.0245,-323 2208.0245,-287 2381.9755,-287 2381.9755,-323"/>
<text text-anchor="middle" x="2295" y="-300.8" font-family="Times,serif" font-size="14.00" fill="#000000">CustomButtonBarDirective </text>
</g>
<!-- JS44DModule&#45;&gt;CustomButtonBarDirective  -->
<g id="edge24" class="edge">
<title>JS44DModule&#45;&gt;CustomButtonBarDirective </title>
<path fill="none" stroke="#000000" stroke-dasharray="5,2" d="M1464.4536,-243C1645.4557,-243 2271.625,-243 2271.625,-243 2271.625,-243 2271.625,-276.7333 2271.625,-276.7333"/>
<polygon fill="#000000" stroke="#000000" points="2268.1251,-276.7333 2271.625,-286.7333 2275.1251,-276.7333 2268.1251,-276.7333"/>
</g>
<!-- DataGrid  -->
<g id="node26" class="node">
<title>DataGrid </title>
<polygon fill="#fb8072" stroke="#000000" points="2189.5854,-323 2118.4146,-323 2118.4146,-287 2189.5854,-287 2189.5854,-323"/>
<text text-anchor="middle" x="2154" y="-300.8" font-family="Times,serif" font-size="14.00" fill="#000000">DataGrid </text>
</g>
<!-- JS44DModule&#45;&gt;DataGrid  -->
<g id="edge25" class="edge">
<title>JS44DModule&#45;&gt;DataGrid </title>
<path fill="none" stroke="#000000" stroke-dasharray="5,2" d="M1464.4125,-245C1625.3977,-245 2132.625,-245 2132.625,-245 2132.625,-245 2132.625,-276.998 2132.625,-276.998"/>
<polygon fill="#000000" stroke="#000000" points="2129.1251,-276.998 2132.625,-286.998 2136.1251,-276.9981 2129.1251,-276.998"/>
</g>
<!-- FourDDateToString  -->
<g id="node27" class="node">
<title>FourDDateToString </title>
<polygon fill="#fb8072" stroke="#000000" points="2100.2534,-323 1967.7466,-323 1967.7466,-287 2100.2534,-287 2100.2534,-323"/>
<text text-anchor="middle" x="2034" y="-300.8" font-family="Times,serif" font-size="14.00" fill="#000000">FourDDateToString </text>
</g>
<!-- JS44DModule&#45;&gt;FourDDateToString  -->
<g id="edge26" class="edge">
<title>JS44DModule&#45;&gt;FourDDateToString </title>
<path fill="none" stroke="#000000" stroke-dasharray="5,2" d="M1464.4809,-247C1606.9929,-247 2014.625,-247 2014.625,-247 2014.625,-247 2014.625,-276.9664 2014.625,-276.9664"/>
<polygon fill="#000000" stroke="#000000" points="2011.1251,-276.9663 2014.625,-286.9664 2018.1251,-276.9664 2011.1251,-276.9663"/>
</g>
<!-- FourDDropDown  -->
<g id="node28" class="node">
<title>FourDDropDown </title>
<polygon fill="#fb8072" stroke="#000000" points="1949.5302,-323 1830.4698,-323 1830.4698,-287 1949.5302,-287 1949.5302,-323"/>
<text text-anchor="middle" x="1890" y="-300.8" font-family="Times,serif" font-size="14.00" fill="#000000">FourDDropDown </text>
</g>
<!-- JS44DModule&#45;&gt;FourDDropDown  -->
<g id="edge27" class="edge">
<title>JS44DModule&#45;&gt;FourDDropDown </title>
<path fill="none" stroke="#000000" stroke-dasharray="5,2" d="M1464.4346,-249C1581.9525,-249 1872.625,-249 1872.625,-249 1872.625,-249 1872.625,-276.973 1872.625,-276.973"/>
<polygon fill="#000000" stroke="#000000" points="1869.1251,-276.973 1872.625,-286.973 1876.1251,-276.973 1869.1251,-276.973"/>
</g>
<!-- FourDRegistryInput  -->
<g id="node29" class="node">
<title>FourDRegistryInput </title>
<polygon fill="#fb8072" stroke="#000000" points="1812.5386,-323 1679.4614,-323 1679.4614,-287 1812.5386,-287 1812.5386,-323"/>
<text text-anchor="middle" x="1746" y="-300.8" font-family="Times,serif" font-size="14.00" fill="#000000">FourDRegistryInput </text>
</g>
<!-- JS44DModule&#45;&gt;FourDRegistryInput  -->
<g id="edge28" class="edge">
<title>JS44DModule&#45;&gt;FourDRegistryInput </title>
<path fill="none" stroke="#000000" stroke-dasharray="5,2" d="M1464.3936,-251C1552.5082,-251 1730.125,-251 1730.125,-251 1730.125,-251 1730.125,-276.7181 1730.125,-276.7181"/>
<polygon fill="#000000" stroke="#000000" points="1726.6251,-276.718 1730.125,-286.7181 1733.6251,-276.7181 1726.6251,-276.718"/>
</g>
<!-- ListSelectorDialog  -->
<g id="node30" class="node">
<title>ListSelectorDialog </title>
<polygon fill="#fb8072" stroke="#000000" points="1661.7492,-323 1536.2508,-323 1536.2508,-287 1661.7492,-287 1661.7492,-323"/>
<text text-anchor="middle" x="1599" y="-300.8" font-family="Times,serif" font-size="14.00" fill="#000000">ListSelectorDialog </text>
</g>
<!-- JS44DModule&#45;&gt;ListSelectorDialog  -->
<g id="edge29" class="edge">
<title>JS44DModule&#45;&gt;ListSelectorDialog </title>
<path fill="none" stroke="#000000" stroke-dasharray="5,2" d="M1464.7733,-253C1514.5747,-253 1584.625,-253 1584.625,-253 1584.625,-253 1584.625,-276.8129 1584.625,-276.8129"/>
<polygon fill="#000000" stroke="#000000" points="1581.1251,-276.8129 1584.625,-286.8129 1588.1251,-276.813 1581.1251,-276.8129"/>
</g>
<!-- LoginCmp  -->
<g id="node31" class="node">
<title>LoginCmp </title>
<polygon fill="#fb8072" stroke="#000000" points="1518.1706,-323 1437.8294,-323 1437.8294,-287 1518.1706,-287 1518.1706,-323"/>
<text text-anchor="middle" x="1478" y="-300.8" font-family="Times,serif" font-size="14.00" fill="#000000">LoginCmp </text>
</g>
<!-- JS44DModule&#45;&gt;LoginCmp  -->
<g id="edge30" class="edge">
<title>JS44DModule&#45;&gt;LoginCmp </title>
<path fill="none" stroke="#000000" stroke-dasharray="5,2" d="M1451.1783,-255.2228C1451.1783,-255.2228 1451.1783,-276.7269 1451.1783,-276.7269"/>
<polygon fill="#000000" stroke="#000000" points="1447.6784,-276.7269 1451.1783,-286.7269 1454.6784,-276.727 1447.6784,-276.7269"/>
</g>
<!-- QueryBand  -->
<g id="node32" class="node">
<title>QueryBand </title>
<polygon fill="#fb8072" stroke="#000000" points="1420.033,-323 1335.967,-323 1335.967,-287 1420.033,-287 1420.033,-323"/>
<text text-anchor="middle" x="1378" y="-300.8" font-family="Times,serif" font-size="14.00" fill="#000000">QueryBand </text>
</g>
<!-- JS44DModule&#45;&gt;QueryBand  -->
<g id="edge31" class="edge">
<title>JS44DModule&#45;&gt;QueryBand </title>
<path fill="none" stroke="#000000" stroke-dasharray="5,2" d="M1393.7874,-255.2228C1393.7874,-255.2228 1393.7874,-276.7269 1393.7874,-276.7269"/>
<polygon fill="#000000" stroke="#000000" points="1390.2874,-276.7269 1393.7874,-286.7269 1397.2874,-276.727 1390.2874,-276.7269"/>
</g>
<!-- QueryBandDirective  -->
<g id="node33" class="node">
<title>QueryBandDirective </title>
<polygon fill="#fb8072" stroke="#000000" points="1318.1158,-323 1181.8842,-323 1181.8842,-287 1318.1158,-287 1318.1158,-323"/>
<text text-anchor="middle" x="1250" y="-300.8" font-family="Times,serif" font-size="14.00" fill="#000000">QueryBandDirective </text>
</g>
<!-- JS44DModule&#45;&gt;QueryBandDirective  -->
<g id="edge32" class="edge">
<title>JS44DModule&#45;&gt;QueryBandDirective </title>
<path fill="none" stroke="#000000" stroke-dasharray="5,2" d="M1367.6055,-253C1339.0777,-253 1308.5207,-253 1308.5207,-253 1308.5207,-253 1308.5207,-276.8129 1308.5207,-276.8129"/>
<polygon fill="#000000" stroke="#000000" points="1305.0208,-276.8129 1308.5207,-286.8129 1312.0208,-276.813 1305.0208,-276.8129"/>
</g>
<!-- QuickFindInput  -->
<g id="node34" class="node">
<title>QuickFindInput </title>
<polygon fill="#fb8072" stroke="#000000" points="1163.4362,-323 1054.5638,-323 1054.5638,-287 1163.4362,-287 1163.4362,-323"/>
<text text-anchor="middle" x="1109" y="-300.8" font-family="Times,serif" font-size="14.00" fill="#000000">QuickFindInput </text>
</g>
<!-- JS44DModule&#45;&gt;QuickFindInput  -->
<g id="edge33" class="edge">
<title>JS44DModule&#45;&gt;QuickFindInput </title>
<path fill="none" stroke="#000000" stroke-dasharray="5,2" d="M1367.4184,-251C1292.1919,-251 1156.0931,-251 1156.0931,-251 1156.0931,-251 1156.0931,-276.7181 1156.0931,-276.7181"/>
<polygon fill="#000000" stroke="#000000" points="1152.5932,-276.718 1156.0931,-286.7181 1159.5932,-276.7181 1152.5932,-276.718"/>
</g>
<!-- RecordEditWindow  -->
<g id="node35" class="node">
<title>RecordEditWindow </title>
<polygon fill="#fb8072" stroke="#000000" points="1036.9729,-323 905.0271,-323 905.0271,-287 1036.9729,-287 1036.9729,-323"/>
<text text-anchor="middle" x="971" y="-300.8" font-family="Times,serif" font-size="14.00" fill="#000000">RecordEditWindow </text>
</g>
<!-- JS44DModule&#45;&gt;RecordEditWindow  -->
<g id="edge34" class="edge">
<title>JS44DModule&#45;&gt;RecordEditWindow </title>
<path fill="none" stroke="#000000" stroke-dasharray="5,2" d="M1367.6119,-249C1264.1715,-249 1030.861,-249 1030.861,-249 1030.861,-249 1030.861,-276.973 1030.861,-276.973"/>
<polygon fill="#000000" stroke="#000000" points="1027.3611,-276.973 1030.861,-286.973 1034.3611,-276.973 1027.3611,-276.973"/>
</g>
<!-- RecordList  -->
<g id="node36" class="node">
<title>RecordList </title>
<polygon fill="#fb8072" stroke="#000000" points="886.7053,-323 805.2947,-323 805.2947,-287 886.7053,-287 886.7053,-323"/>
<text text-anchor="middle" x="846" y="-300.8" font-family="Times,serif" font-size="14.00" fill="#000000">RecordList </text>
</g>
<!-- JS44DModule&#45;&gt;RecordList  -->
<g id="edge35" class="edge">
<title>JS44DModule&#45;&gt;RecordList </title>
<path fill="none" stroke="#000000" stroke-dasharray="5,2" d="M1367.2848,-246C1235.702,-246 882.9774,-246 882.9774,-246 882.9774,-246 882.9774,-276.9775 882.9774,-276.9775"/>
<polygon fill="#000000" stroke="#000000" points="879.4775,-276.9774 882.9774,-286.9775 886.4775,-276.9775 879.4775,-276.9774"/>
</g>
<!-- Tab  -->
<g id="node37" class="node">
<title>Tab </title>
<polygon fill="#fb8072" stroke="#000000" points="787,-323 733,-323 733,-287 787,-287 787,-323"/>
<text text-anchor="middle" x="760" y="-300.8" font-family="Times,serif" font-size="14.00" fill="#000000">Tab </text>
</g>
<!-- JS44DModule&#45;&gt;Tab  -->
<g id="edge36" class="edge">
<title>JS44DModule&#45;&gt;Tab </title>
<path fill="none" stroke="#000000" stroke-dasharray="5,2" d="M1367.4351,-244C1216.61,-244 766.3333,-244 766.3333,-244 766.3333,-244 766.3333,-276.698 766.3333,-276.698"/>
<polygon fill="#000000" stroke="#000000" points="762.8334,-276.698 766.3333,-286.698 769.8334,-276.698 762.8334,-276.698"/>
</g>
<!-- Tabs  -->
<g id="node38" class="node">
<title>Tabs </title>
<polygon fill="#fb8072" stroke="#000000" points="715,-323 661,-323 661,-287 715,-287 715,-323"/>
<text text-anchor="middle" x="688" y="-300.8" font-family="Times,serif" font-size="14.00" fill="#000000">Tabs </text>
</g>
<!-- JS44DModule&#45;&gt;Tabs  -->
<g id="edge37" class="edge">
<title>JS44DModule&#45;&gt;Tabs </title>
<path fill="none" stroke="#000000" stroke-dasharray="5,2" d="M1367.5288,-242C1205.7222,-242 694.3333,-242 694.3333,-242 694.3333,-242 694.3333,-276.7778 694.3333,-276.7778"/>
<polygon fill="#000000" stroke="#000000" points="690.8334,-276.7778 694.3333,-286.7778 697.8334,-276.7778 690.8334,-276.7778"/>
</g>
<!-- WebAppContainer  -->
<g id="node39" class="node">
<title>WebAppContainer </title>
<polygon fill="#fb8072" stroke="#000000" points="642.7436,-323 517.2564,-323 517.2564,-287 642.7436,-287 642.7436,-323"/>
<text text-anchor="middle" x="580" y="-300.8" font-family="Times,serif" font-size="14.00" fill="#000000">WebAppContainer </text>
</g>
<!-- JS44DModule&#45;&gt;WebAppContainer  -->
<g id="edge38" class="edge">
<title>JS44DModule&#45;&gt;WebAppContainer </title>
<path fill="none" stroke="#000000" stroke-dasharray="5,2" d="M1367.6047,-240C1191.9627,-240 598.3739,-240 598.3739,-240 598.3739,-240 598.3739,-276.8939 598.3739,-276.8939"/>
<polygon fill="#000000" stroke="#000000" points="594.874,-276.8938 598.3739,-286.8939 601.874,-276.8939 594.874,-276.8938"/>
</g>
<!-- OKOnlyModal -->
<g id="node40" class="node">
<title>OKOnlyModal</title>
<polygon fill="#ffffb3" stroke="#000000" points="3264.2605,-122 3163.7395,-122 3163.7395,-86 3264.2605,-86 3264.2605,-122"/>
<text text-anchor="middle" x="3214" y="-99.8" font-family="Times,serif" font-size="14.00" fill="#000000">OKOnlyModal</text>
</g>
<!-- ModalModule -->
<g id="node42" class="node">
<title>ModalModule</title>
<polygon fill="#8dd3c7" stroke="#000000" points="3092.0997,-190 3089.0997,-194 3068.0997,-194 3065.0997,-190 2995.9003,-190 2995.9003,-154 3092.0997,-154 3092.0997,-190"/>
<text text-anchor="middle" x="3044" y="-167.8" font-family="Times,serif" font-size="14.00" fill="#000000">ModalModule</text>
</g>
<!-- OKOnlyModal&#45;&gt;ModalModule -->
<g id="edge40" class="edge">
<title>OKOnlyModal&#45;&gt;ModalModule</title>
<path fill="none" stroke="#000000" d="M3214,-122.2228C3214,-142.3652 3214,-172 3214,-172 3214,-172 3102.2605,-172 3102.2605,-172"/>
<polygon fill="#000000" stroke="#000000" points="3102.2605,-168.5001 3092.2605,-172 3102.2604,-175.5001 3102.2605,-168.5001"/>
</g>
<!-- YesNoModal -->
<g id="node41" class="node">
<title>YesNoModal</title>
<polygon fill="#ffffb3" stroke="#000000" points="3145.9232,-122 3054.0768,-122 3054.0768,-86 3145.9232,-86 3145.9232,-122"/>
<text text-anchor="middle" x="3100" y="-99.8" font-family="Times,serif" font-size="14.00" fill="#000000">YesNoModal</text>
</g>
<!-- YesNoModal&#45;&gt;ModalModule -->
<g id="edge41" class="edge">
<title>YesNoModal&#45;&gt;ModalModule</title>
<path fill="none" stroke="#000000" d="M3073.1694,-122.2228C3073.1694,-122.2228 3073.1694,-143.7269 3073.1694,-143.7269"/>
<polygon fill="#000000" stroke="#000000" points="3069.6694,-143.7269 3073.1694,-153.7269 3076.6694,-143.727 3069.6694,-143.7269"/>
</g>
<!-- OKOnlyModal  -->
<g id="node43" class="node">
<title>OKOnlyModal </title>
<polygon fill="#fb8072" stroke="#000000" points="3155.2605,-255 3050.7395,-255 3050.7395,-219 3155.2605,-219 3155.2605,-255"/>
<text text-anchor="middle" x="3103" y="-232.8" font-family="Times,serif" font-size="14.00" fill="#000000">OKOnlyModal </text>
</g>
<!-- ModalModule&#45;&gt;OKOnlyModal  -->
<g id="edge42" class="edge">
<title>ModalModule&#45;&gt;OKOnlyModal </title>
<path fill="none" stroke="#000000" stroke-dasharray="5,2" d="M3071.4599,-190.1061C3071.4599,-190.1061 3071.4599,-208.991 3071.4599,-208.991"/>
<polygon fill="#000000" stroke="#000000" points="3067.9599,-208.9909 3071.4599,-218.991 3074.9599,-208.991 3067.9599,-208.9909"/>
</g>
<!-- YesNoModal  -->
<g id="node44" class="node">
<title>YesNoModal </title>
<polygon fill="#fb8072" stroke="#000000" points="3032.4222,-255 2937.5778,-255 2937.5778,-219 3032.4222,-219 3032.4222,-255"/>
<text text-anchor="middle" x="2985" y="-232.8" font-family="Times,serif" font-size="14.00" fill="#000000">YesNoModal </text>
</g>
<!-- ModalModule&#45;&gt;YesNoModal  -->
<g id="edge43" class="edge">
<title>ModalModule&#45;&gt;YesNoModal </title>
<path fill="none" stroke="#000000" stroke-dasharray="5,2" d="M3014.2057,-190.1061C3014.2057,-190.1061 3014.2057,-208.991 3014.2057,-208.991"/>
<polygon fill="#000000" stroke="#000000" points="3010.7057,-208.9909 3014.2057,-218.991 3017.7057,-208.991 3010.7057,-208.9909"/>
</g>
<!-- Modal -->
<g id="node45" class="node">
<title>Modal</title>
<ellipse fill="#fdb462" stroke="#000000" cx="2994" cy="-104" rx="36.4975" ry="18"/>
<text text-anchor="middle" x="2994" y="-99.8" font-family="Times,serif" font-size="14.00" fill="#000000">Modal</text>
</g>
<!-- Modal&#45;&gt;ModalModule -->
<g id="edge44" class="edge">
<title>Modal&#45;&gt;ModalModule</title>
<path fill="none" stroke="#000000" d="M3013.099,-119.4303C3013.099,-119.4303 3013.099,-143.7353 3013.099,-143.7353"/>
<polygon fill="#000000" stroke="#000000" points="3009.5991,-143.7353 3013.099,-153.7353 3016.5991,-143.7354 3009.5991,-143.7353"/>
</g>
<!-- ModalDialogInstance -->
<g id="node46" class="node">
<title>ModalDialogInstance</title>
<ellipse fill="#fdb462" stroke="#000000" cx="2845" cy="-104" rx="94.9032" ry="18"/>
<text text-anchor="middle" x="2845" y="-99.8" font-family="Times,serif" font-size="14.00" fill="#000000">ModalDialogInstance</text>
</g>
<!-- ModalDialogInstance&#45;&gt;ModalModule -->
<g id="edge45" class="edge">
<title>ModalDialogInstance&#45;&gt;ModalModule</title>
<path fill="none" stroke="#000000" d="M2843.9188,-122.2228C2843.9188,-142.3652 2843.9188,-172 2843.9188,-172 2843.9188,-172 2985.8209,-172 2985.8209,-172"/>
<polygon fill="#000000" stroke="#000000" points="2985.821,-175.5001 2995.8209,-172 2985.8209,-168.5001 2985.821,-175.5001"/>
</g>
</g>
</svg>
