<?xml version="1.0" encoding="UTF-8" standalone="no"?>
<!DOCTYPE svg PUBLIC "-//W3C//DTD SVG 1.1//EN"
 "http://www.w3.org/Graphics/SVG/1.1/DTD/svg11.dtd">
<!-- Generated by graphviz version 2.40.1 (20161225.0304)
 -->
<!-- Title: dependencies Pages: 1 -->
<svg width="570pt" height="284pt"
 viewBox="0.00 0.00 570.00 284.00" xmlns="http://www.w3.org/2000/svg" xmlns:xlink="http://www.w3.org/1999/xlink">
<g id="graph0" class="graph" transform="scale(1 1) rotate(0) translate(4 280)">
<title>dependencies</title>
<polygon fill="#ffffff" stroke="transparent" points="-4,4 -4,-280 566,-280 566,4 -4,4"/>
<text text-anchor="start" x="260.0091" y="-42.4" font-family="sans-serif" font-weight="bold" font-size="14.00" fill="#000000">Legend</text>
<polygon fill="#ffffb3" stroke="transparent" points="47,-10 47,-30 67,-30 67,-10 47,-10"/>
<text text-anchor="start" x="70.629" y="-15.4" font-family="sans-serif" font-size="14.00" fill="#000000"> &#160;Declarations</text>
<polygon fill="#8dd3c7" stroke="transparent" points="160,-10 160,-30 180,-30 180,-10 160,-10"/>
<text text-anchor="start" x="183.7251" y="-15.4" font-family="sans-serif" font-size="14.00" fill="#000000"> &#160;Module</text>
<polygon fill="#80b1d3" stroke="transparent" points="246,-10 246,-30 266,-30 266,-10 246,-10"/>
<text text-anchor="start" x="269.7812" y="-15.4" font-family="sans-serif" font-size="14.00" fill="#000000"> &#160;Bootstrap</text>
<polygon fill="#fdb462" stroke="transparent" points="343,-10 343,-30 363,-30 363,-10 343,-10"/>
<text text-anchor="start" x="366.6732" y="-15.4" font-family="sans-serif" font-size="14.00" fill="#000000"> &#160;Providers</text>
<polygon fill="#fb8072" stroke="transparent" points="439,-10 439,-30 459,-30 459,-10 439,-10"/>
<text text-anchor="start" x="462.7258" y="-15.4" font-family="sans-serif" font-size="14.00" fill="#000000"> &#160;Exports</text>
<g id="clust1" class="cluster">
<title>cluster_ModalModule</title>
<polygon fill="none" stroke="#000000" stroke-dasharray="1,5" points="8,-70 8,-268 554,-268 554,-70 8,-70"/>
</g>
<g id="clust2" class="cluster">
<title>cluster_ModalModule_declarations</title>
<polygon fill="none" stroke="#000000" points="320,-78 320,-130 546,-130 546,-78 320,-78"/>
</g>
<g id="clust6" class="cluster">
<title>cluster_ModalModule_exports</title>
<polygon fill="none" stroke="#000000" points="204,-208 204,-260 437,-260 437,-208 204,-208"/>
</g>
<g id="clust8" class="cluster">
<title>cluster_ModalModule_providers</title>
<polygon fill="none" stroke="#000000" points="16,-78 16,-130 312,-130 312,-78 16,-78"/>
</g>
<!-- OKOnlyModal -->
<g id="node1" class="node">
<title>OKOnlyModal</title>
<polygon fill="#ffffb3" stroke="#000000" points="538.2605,-122 437.7395,-122 437.7395,-86 538.2605,-86 538.2605,-122"/>
<text text-anchor="middle" x="488" y="-99.8" font-family="Times,serif" font-size="14.00" fill="#000000">OKOnlyModal</text>
</g>
<!-- ModalModule -->
<g id="node3" class="node">
<title>ModalModule</title>
<polygon fill="#8dd3c7" stroke="#000000" points="366.0997,-187 363.0997,-191 342.0997,-191 339.0997,-187 269.9003,-187 269.9003,-151 366.0997,-151 366.0997,-187"/>
<text text-anchor="middle" x="318" y="-164.8" font-family="Times,serif" font-size="14.00" fill="#000000">ModalModule</text>
</g>
<!-- OKOnlyModal&#45;&gt;ModalModule -->
<g id="edge1" class="edge">
<title>OKOnlyModal&#45;&gt;ModalModule</title>
<path fill="none" stroke="#000000" d="M488,-122.1061C488,-141.3391 488,-169 488,-169 488,-169 376.2605,-169 376.2605,-169"/>
<polygon fill="#000000" stroke="#000000" points="376.2605,-165.5001 366.2605,-169 376.2604,-172.5001 376.2605,-165.5001"/>
</g>
<!-- YesNoModal -->
<g id="node2" class="node">
<title>YesNoModal</title>
<polygon fill="#ffffb3" stroke="#000000" points="419.9232,-122 328.0768,-122 328.0768,-86 419.9232,-86 419.9232,-122"/>
<text text-anchor="middle" x="374" y="-99.8" font-family="Times,serif" font-size="14.00" fill="#000000">YesNoModal</text>
</g>
<!-- YesNoModal&#45;&gt;ModalModule -->
<g id="edge2" class="edge">
<title>YesNoModal&#45;&gt;ModalModule</title>
<path fill="none" stroke="#000000" d="M347.1694,-122.1061C347.1694,-122.1061 347.1694,-140.991 347.1694,-140.991"/>
<polygon fill="#000000" stroke="#000000" points="343.6694,-140.9909 347.1694,-150.991 350.6694,-140.991 343.6694,-140.9909"/>
</g>
<!-- OKOnlyModal  -->
<g id="node4" class="node">
<title>OKOnlyModal </title>
<polygon fill="#fb8072" stroke="#000000" points="429.2605,-252 324.7395,-252 324.7395,-216 429.2605,-216 429.2605,-252"/>
<text text-anchor="middle" x="377" y="-229.8" font-family="Times,serif" font-size="14.00" fill="#000000">OKOnlyModal </text>
</g>
<!-- ModalModule&#45;&gt;OKOnlyModal  -->
<g id="edge3" class="edge">
<title>ModalModule&#45;&gt;OKOnlyModal </title>
<path fill="none" stroke="#000000" stroke-dasharray="5,2" d="M345.4599,-187.1061C345.4599,-187.1061 345.4599,-205.991 345.4599,-205.991"/>
<polygon fill="#000000" stroke="#000000" points="341.9599,-205.9909 345.4599,-215.991 348.9599,-205.991 341.9599,-205.9909"/>
</g>
<!-- YesNoModal  -->
<g id="node5" class="node">
<title>YesNoModal </title>
<polygon fill="#fb8072" stroke="#000000" points="306.4222,-252 211.5778,-252 211.5778,-216 306.4222,-216 306.4222,-252"/>
<text text-anchor="middle" x="259" y="-229.8" font-family="Times,serif" font-size="14.00" fill="#000000">YesNoModal </text>
</g>
<!-- ModalModule&#45;&gt;YesNoModal  -->
<g id="edge4" class="edge">
<title>ModalModule&#45;&gt;YesNoModal </title>
<path fill="none" stroke="#000000" stroke-dasharray="5,2" d="M288.2057,-187.1061C288.2057,-187.1061 288.2057,-205.991 288.2057,-205.991"/>
<polygon fill="#000000" stroke="#000000" points="284.7057,-205.9909 288.2057,-215.991 291.7057,-205.991 284.7057,-205.9909"/>
</g>
<!-- Modal -->
<g id="node6" class="node">
<title>Modal</title>
<ellipse fill="#fdb462" stroke="#000000" cx="268" cy="-104" rx="36.4975" ry="18"/>
<text text-anchor="middle" x="268" y="-99.8" font-family="Times,serif" font-size="14.00" fill="#000000">Modal</text>
</g>
<!-- Modal&#45;&gt;ModalModule -->
<g id="edge5" class="edge">
<title>Modal&#45;&gt;ModalModule</title>
<path fill="none" stroke="#000000" d="M287.099,-119.4041C287.099,-119.4041 287.099,-140.9397 287.099,-140.9397"/>
<polygon fill="#000000" stroke="#000000" points="283.5991,-140.9397 287.099,-150.9397 290.5991,-140.9398 283.5991,-140.9397"/>
</g>
<!-- ModalDialogInstance -->
<g id="node7" class="node">
<title>ModalDialogInstance</title>
<ellipse fill="#fdb462" stroke="#000000" cx="119" cy="-104" rx="94.9032" ry="18"/>
<text text-anchor="middle" x="119" y="-99.8" font-family="Times,serif" font-size="14.00" fill="#000000">ModalDialogInstance</text>
</g>
<!-- ModalDialogInstance&#45;&gt;ModalModule -->
<g id="edge6" class="edge">
<title>ModalDialogInstance&#45;&gt;ModalModule</title>
<path fill="none" stroke="#000000" d="M117.9188,-122.1061C117.9188,-141.3391 117.9188,-169 117.9188,-169 117.9188,-169 259.8209,-169 259.8209,-169"/>
<polygon fill="#000000" stroke="#000000" points="259.821,-172.5001 269.8209,-169 259.8209,-165.5001 259.821,-172.5001"/>
</g>
</g>
</svg>
