<?xml version="1.0" encoding="UTF-8" standalone="no"?>
<!DOCTYPE svg PUBLIC "-//W3C//DTD SVG 1.1//EN"
 "http://www.w3.org/Graphics/SVG/1.1/DTD/svg11.dtd">
<!-- Generated by graphviz version 2.40.1 (20161225.0304)
 -->
<!-- Title: dependencies Pages: 1 -->
<svg width="509pt" height="211pt"
 viewBox="0.00 0.00 509.00 211.00" xmlns="http://www.w3.org/2000/svg" xmlns:xlink="http://www.w3.org/1999/xlink">
<g id="graph0" class="graph" transform="scale(1 1) rotate(0) translate(4 207)">
<title>dependencies</title>
<polygon fill="#ffffff" stroke="transparent" points="-4,4 -4,-207 505,-207 505,4 -4,4"/>
<text text-anchor="start" x="229.5091" y="-42.4" font-family="sans-serif" font-weight="bold" font-size="14.00" fill="#000000">Legend</text>
<polygon fill="#ffffb3" stroke="transparent" points="16.5,-10 16.5,-30 36.5,-30 36.5,-10 16.5,-10"/>
<text text-anchor="start" x="40.129" y="-15.4" font-family="sans-serif" font-size="14.00" fill="#000000"> &#160;Declarations</text>
<polygon fill="#8dd3c7" stroke="transparent" points="129.5,-10 129.5,-30 149.5,-30 149.5,-10 129.5,-10"/>
<text text-anchor="start" x="153.2251" y="-15.4" font-family="sans-serif" font-size="14.00" fill="#000000"> &#160;Module</text>
<polygon fill="#80b1d3" stroke="transparent" points="215.5,-10 215.5,-30 235.5,-30 235.5,-10 215.5,-10"/>
<text text-anchor="start" x="239.2812" y="-15.4" font-family="sans-serif" font-size="14.00" fill="#000000"> &#160;Bootstrap</text>
<polygon fill="#fdb462" stroke="transparent" points="312.5,-10 312.5,-30 332.5,-30 332.5,-10 312.5,-10"/>
<text text-anchor="start" x="336.1732" y="-15.4" font-family="sans-serif" font-size="14.00" fill="#000000"> &#160;Providers</text>
<polygon fill="#fb8072" stroke="transparent" points="408.5,-10 408.5,-30 428.5,-30 428.5,-10 408.5,-10"/>
<text text-anchor="start" x="432.2258" y="-15.4" font-family="sans-serif" font-size="14.00" fill="#000000"> &#160;Exports</text>
<g id="clust1" class="cluster">
<title>cluster_FourDModule</title>
<polygon fill="none" stroke="#000000" stroke-dasharray="1,5" points="8,-70 8,-195 493,-195 493,-70 8,-70"/>
</g>
<g id="clust6" class="cluster">
<title>cluster_FourDModule_providers</title>
<polygon fill="none" stroke="#000000" points="16,-78 16,-130 485,-130 485,-78 16,-78"/>
</g>
<!-- FourDInterface -->
<g id="node1" class="node">
<title>FourDInterface</title>
<ellipse fill="#fdb462" stroke="#000000" cx="406" cy="-104" rx="70.6026" ry="18"/>
<text text-anchor="middle" x="406" y="-99.8" font-family="Times,serif" font-size="14.00" fill="#000000">FourDInterface</text>
</g>
<!-- FourDModule -->
<g id="node4" class="node">
<title>FourDModule</title>
<polygon fill="#8dd3c7" stroke="#000000" points="304.0997,-187 301.0997,-191 280.0997,-191 277.0997,-187 207.9003,-187 207.9003,-151 304.0997,-151 304.0997,-187"/>
<text text-anchor="middle" x="256" y="-164.8" font-family="Times,serif" font-size="14.00" fill="#000000">FourDModule</text>
</g>
<!-- FourDInterface&#45;&gt;FourDModule -->
<g id="edge1" class="edge">
<title>FourDInterface&#45;&gt;FourDModule</title>
<path fill="none" stroke="#000000" d="M406,-122.1061C406,-141.3391 406,-169 406,-169 406,-169 314.2866,-169 314.2866,-169"/>
<polygon fill="#000000" stroke="#000000" points="314.2866,-165.5001 304.2866,-169 314.2866,-172.5001 314.2866,-165.5001"/>
</g>
<!-- FourDModel -->
<g id="node2" class="node">
<title>FourDModel</title>
<ellipse fill="#fdb462" stroke="#000000" cx="256" cy="-104" rx="61.4186" ry="18"/>
<text text-anchor="middle" x="256" y="-99.8" font-family="Times,serif" font-size="14.00" fill="#000000">FourDModel</text>
</g>
<!-- FourDModel&#45;&gt;FourDModule -->
<g id="edge2" class="edge">
<title>FourDModel&#45;&gt;FourDModule</title>
<path fill="none" stroke="#000000" d="M256,-122.1061C256,-122.1061 256,-140.991 256,-140.991"/>
<polygon fill="#000000" stroke="#000000" points="252.5001,-140.9909 256,-150.991 259.5001,-140.991 252.5001,-140.9909"/>
</g>
<!-- FourDCollection -->
<g id="node3" class="node">
<title>FourDCollection</title>
<ellipse fill="#fdb462" stroke="#000000" cx="100" cy="-104" rx="76.4632" ry="18"/>
<text text-anchor="middle" x="100" y="-99.8" font-family="Times,serif" font-size="14.00" fill="#000000">FourDCollection</text>
</g>
<!-- FourDCollection&#45;&gt;FourDModule -->
<g id="edge3" class="edge">
<title>FourDCollection&#45;&gt;FourDModule</title>
<path fill="none" stroke="#000000" d="M100,-122.1061C100,-141.3391 100,-169 100,-169 100,-169 197.9219,-169 197.9219,-169"/>
<polygon fill="#000000" stroke="#000000" points="197.922,-172.5001 207.9219,-169 197.9219,-165.5001 197.922,-172.5001"/>
</g>
</g>
</svg>
