<?xml version="1.0" encoding="UTF-8" standalone="no"?>
<!DOCTYPE svg PUBLIC "-//W3C//DTD SVG 1.1//EN"
 "http://www.w3.org/Graphics/SVG/1.1/DTD/svg11.dtd">
<!-- Generated by graphviz version 2.40.1 (20161225.0304)
 -->
<!-- Title: dependencies Pages: 1 -->
<svg width="508pt" height="211pt"
 viewBox="0.00 0.00 508.00 211.00" xmlns="http://www.w3.org/2000/svg" xmlns:xlink="http://www.w3.org/1999/xlink">
<g id="graph0" class="graph" transform="scale(1 1) rotate(0) translate(4 207)">
<title>dependencies</title>
<polygon fill="#ffffff" stroke="transparent" points="-4,4 -4,-207 504,-207 504,4 -4,4"/>
<text text-anchor="start" x="229.0091" y="-42.4" font-family="sans-serif" font-weight="bold" font-size="14.00" fill="#000000">Legend</text>
<polygon fill="#ffffb3" stroke="transparent" points="16,-10 16,-30 36,-30 36,-10 16,-10"/>
<text text-anchor="start" x="39.629" y="-15.4" font-family="sans-serif" font-size="14.00" fill="#000000"> &#160;Declarations</text>
<polygon fill="#8dd3c7" stroke="transparent" points="129,-10 129,-30 149,-30 149,-10 129,-10"/>
<text text-anchor="start" x="152.7251" y="-15.4" font-family="sans-serif" font-size="14.00" fill="#000000"> &#160;Module</text>
<polygon fill="#80b1d3" stroke="transparent" points="215,-10 215,-30 235,-30 235,-10 215,-10"/>
<text text-anchor="start" x="238.7812" y="-15.4" font-family="sans-serif" font-size="14.00" fill="#000000"> &#160;Bootstrap</text>
<polygon fill="#fdb462" stroke="transparent" points="312,-10 312,-30 332,-30 332,-10 312,-10"/>
<text text-anchor="start" x="335.6732" y="-15.4" font-family="sans-serif" font-size="14.00" fill="#000000"> &#160;Providers</text>
<polygon fill="#fb8072" stroke="transparent" points="408,-10 408,-30 428,-30 428,-10 408,-10"/>
<text text-anchor="start" x="431.7258" y="-15.4" font-family="sans-serif" font-size="14.00" fill="#000000"> &#160;Exports</text>
<g id="clust1" class="cluster">
<title>cluster_FourDModule</title>
<polygon fill="none" stroke="#000000" stroke-dasharray="1,5" points="8,-70 8,-195 492,-195 492,-70 8,-70"/>
</g>
<g id="clust6" class="cluster">
<title>cluster_FourDModule_providers</title>
<polygon fill="none" stroke="#000000" points="16,-78 16,-130 484,-130 484,-78 16,-78"/>
</g>
<!-- FourDCollection -->
<g id="node1" class="node">
<title>FourDCollection</title>
<ellipse fill="#fdb462" stroke="#000000" cx="400" cy="-104" rx="76.4632" ry="18"/>
<text text-anchor="middle" x="400" y="-99.8" font-family="Times,serif" font-size="14.00" fill="#000000">FourDCollection</text>
</g>
<!-- FourDModule -->
<g id="node4" class="node">
<title>FourDModule</title>
<polygon fill="#8dd3c7" stroke="#000000" points="283.0997,-187 280.0997,-191 259.0997,-191 256.0997,-187 186.9003,-187 186.9003,-151 283.0997,-151 283.0997,-187"/>
<text text-anchor="middle" x="235" y="-164.8" font-family="Times,serif" font-size="14.00" fill="#000000">FourDModule</text>
</g>
<!-- FourDCollection&#45;&gt;FourDModule -->
<g id="edge1" class="edge">
<title>FourDCollection&#45;&gt;FourDModule</title>
<path fill="none" stroke="#000000" d="M400,-122.1061C400,-141.3391 400,-169 400,-169 400,-169 293.1684,-169 293.1684,-169"/>
<polygon fill="#000000" stroke="#000000" points="293.1684,-165.5001 283.1684,-169 293.1684,-172.5001 293.1684,-165.5001"/>
</g>
<!-- FourDInterface -->
<g id="node2" class="node">
<title>FourDInterface</title>
<ellipse fill="#fdb462" stroke="#000000" cx="235" cy="-104" rx="70.6026" ry="18"/>
<text text-anchor="middle" x="235" y="-99.8" font-family="Times,serif" font-size="14.00" fill="#000000">FourDInterface</text>
</g>
<!-- FourDInterface&#45;&gt;FourDModule -->
<g id="edge2" class="edge">
<title>FourDInterface&#45;&gt;FourDModule</title>
<path fill="none" stroke="#000000" d="M235,-122.1061C235,-122.1061 235,-140.991 235,-140.991"/>
<polygon fill="#000000" stroke="#000000" points="231.5001,-140.9909 235,-150.991 238.5001,-140.991 231.5001,-140.9909"/>
</g>
<!-- FourDModel -->
<g id="node3" class="node">
<title>FourDModel</title>
<ellipse fill="#fdb462" stroke="#000000" cx="85" cy="-104" rx="61.4186" ry="18"/>
<text text-anchor="middle" x="85" y="-99.8" font-family="Times,serif" font-size="14.00" fill="#000000">FourDModel</text>
</g>
<!-- FourDModel&#45;&gt;FourDModule -->
<g id="edge3" class="edge">
<title>FourDModel&#45;&gt;FourDModule</title>
<path fill="none" stroke="#000000" d="M85,-122.1061C85,-141.3391 85,-169 85,-169 85,-169 176.7134,-169 176.7134,-169"/>
<polygon fill="#000000" stroke="#000000" points="176.7134,-172.5001 186.7134,-169 176.7134,-165.5001 176.7134,-172.5001"/>
</g>
</g>
</svg>
