<?xml version="1.0" encoding="UTF-8" standalone="no"?>
<!DOCTYPE svg PUBLIC "-//W3C//DTD SVG 1.1//EN"
 "http://www.w3.org/Graphics/SVG/1.1/DTD/svg11.dtd">
<!-- Generated by graphviz version 2.40.1 (20161225.0304)
 -->
<!-- Title: dependencies Pages: 1 -->
<svg width="1658pt" height="284pt"
 viewBox="0.00 0.00 1658.00 284.00" xmlns="http://www.w3.org/2000/svg" xmlns:xlink="http://www.w3.org/1999/xlink">
<g id="graph0" class="graph" transform="scale(1 1) rotate(0) translate(4 280)">
<title>dependencies</title>
<polygon fill="#ffffff" stroke="transparent" points="-4,4 -4,-280 1654,-280 1654,4 -4,4"/>
<text text-anchor="start" x="804.0091" y="-42.4" font-family="sans-serif" font-weight="bold" font-size="14.00" fill="#000000">Legend</text>
<polygon fill="#ffffb3" stroke="transparent" points="591,-10 591,-30 611,-30 611,-10 591,-10"/>
<text text-anchor="start" x="614.629" y="-15.4" font-family="sans-serif" font-size="14.00" fill="#000000"> &#160;Declarations</text>
<polygon fill="#8dd3c7" stroke="transparent" points="704,-10 704,-30 724,-30 724,-10 704,-10"/>
<text text-anchor="start" x="727.7251" y="-15.4" font-family="sans-serif" font-size="14.00" fill="#000000"> &#160;Module</text>
<polygon fill="#80b1d3" stroke="transparent" points="790,-10 790,-30 810,-30 810,-10 790,-10"/>
<text text-anchor="start" x="813.7812" y="-15.4" font-family="sans-serif" font-size="14.00" fill="#000000"> &#160;Bootstrap</text>
<polygon fill="#fdb462" stroke="transparent" points="887,-10 887,-30 907,-30 907,-10 887,-10"/>
<text text-anchor="start" x="910.6732" y="-15.4" font-family="sans-serif" font-size="14.00" fill="#000000"> &#160;Providers</text>
<polygon fill="#fb8072" stroke="transparent" points="983,-10 983,-30 1003,-30 1003,-10 983,-10"/>
<text text-anchor="start" x="1006.7258" y="-15.4" font-family="sans-serif" font-size="14.00" fill="#000000"> &#160;Exports</text>
<g id="clust1" class="cluster">
<title>cluster_JS44DModule</title>
<polygon fill="none" stroke="#000000" stroke-dasharray="1,5" points="8,-70 8,-268 1642,-268 1642,-70 8,-70"/>
</g>
<g id="clust2" class="cluster">
<title>cluster_JS44DModule_declarations</title>
<polygon fill="none" stroke="#000000" points="37,-78 37,-130 1616,-130 1616,-78 37,-78"/>
</g>
<g id="clust17" class="cluster">
<title>cluster_JS44DModule_exports</title>
<polygon fill="none" stroke="#000000" points="16,-208 16,-260 1634,-260 1634,-208 16,-208"/>
</g>
<!-- QueryBand -->
<g id="node1" class="node">
<title>QueryBand</title>
<polygon fill="#ffffb3" stroke="#000000" points="1608.0343,-122 1527.9657,-122 1527.9657,-86 1608.0343,-86 1608.0343,-122"/>
<text text-anchor="middle" x="1568" y="-99.8" font-family="Times,serif" font-size="14.00" fill="#000000">QueryBand</text>
</g>
<!-- JS44DModule -->
<g id="node14" class="node">
<title>JS44DModule</title>
<polygon fill="#8dd3c7" stroke="#000000" points="837.3837,-187 834.3837,-191 813.3837,-191 810.3837,-187 740.6163,-187 740.6163,-151 837.3837,-151 837.3837,-187"/>
<text text-anchor="middle" x="789" y="-164.8" font-family="Times,serif" font-size="14.00" fill="#000000">JS44DModule</text>
</g>
<!-- QueryBand&#45;&gt;JS44DModule -->
<g id="edge1" class="edge">
<title>QueryBand&#45;&gt;JS44DModule</title>
<path fill="none" stroke="#000000" d="M1534.8585,-122.1686C1534.8585,-141.0898 1534.8585,-168 1534.8585,-168 1534.8585,-168 847.6501,-168 847.6501,-168"/>
<polygon fill="#000000" stroke="#000000" points="847.6502,-164.5001 837.6501,-168 847.6501,-171.5001 847.6502,-164.5001"/>
</g>
<!-- CustomButtonBarDirective -->
<g id="node2" class="node">
<title>CustomButtonBarDirective</title>
<polygon fill="#ffffb3" stroke="#000000" points="1509.9748,-122 1340.0252,-122 1340.0252,-86 1509.9748,-86 1509.9748,-122"/>
<text text-anchor="middle" x="1425" y="-99.8" font-family="Times,serif" font-size="14.00" fill="#000000">CustomButtonBarDirective</text>
</g>
<!-- CustomButtonBarDirective&#45;&gt;JS44DModule -->
<g id="edge2" class="edge">
<title>CustomButtonBarDirective&#45;&gt;JS44DModule</title>
<path fill="none" stroke="#000000" d="M1345.1376,-122.302C1345.1376,-140.2699 1345.1376,-165 1345.1376,-165 1345.1376,-165 847.8661,-165 847.8661,-165"/>
<polygon fill="#000000" stroke="#000000" points="847.8661,-161.5001 837.8661,-165 847.8661,-168.5001 847.8661,-161.5001"/>
</g>
<!-- AdvancedQueryComponent -->
<g id="node3" class="node">
<title>AdvancedQueryComponent</title>
<polygon fill="#ffffb3" stroke="#000000" points="1321.5646,-122 1148.4354,-122 1148.4354,-86 1321.5646,-86 1321.5646,-122"/>
<text text-anchor="middle" x="1235" y="-99.8" font-family="Times,serif" font-size="14.00" fill="#000000">AdvancedQueryComponent</text>
</g>
<!-- AdvancedQueryComponent&#45;&gt;JS44DModule -->
<g id="edge3" class="edge">
<title>AdvancedQueryComponent&#45;&gt;JS44DModule</title>
<path fill="none" stroke="#000000" d="M1152.0927,-122.0352C1152.0927,-138.7344 1152.0927,-161 1152.0927,-161 1152.0927,-161 847.5915,-161 847.5915,-161"/>
<polygon fill="#000000" stroke="#000000" points="847.5916,-157.5001 837.5915,-161 847.5915,-164.5001 847.5916,-157.5001"/>
</g>
<!-- RecordEditWindow -->
<g id="node4" class="node">
<title>RecordEditWindow</title>
<polygon fill="#ffffb3" stroke="#000000" points="1129.972,-122 1002.028,-122 1002.028,-86 1129.972,-86 1129.972,-122"/>
<text text-anchor="middle" x="1066" y="-99.8" font-family="Times,serif" font-size="14.00" fill="#000000">RecordEditWindow</text>
</g>
<!-- RecordEditWindow&#45;&gt;JS44DModule -->
<g id="edge4" class="edge">
<title>RecordEditWindow&#45;&gt;JS44DModule</title>
<path fill="none" stroke="#000000" d="M1088.7453,-122.2819C1088.7453,-137.9478 1088.7453,-158 1088.7453,-158 1088.7453,-158 847.4924,-158 847.4924,-158"/>
<polygon fill="#000000" stroke="#000000" points="847.4924,-154.5001 837.4924,-158 847.4924,-161.5001 847.4924,-154.5001"/>
</g>
<!-- RecordList -->
<g id="node5" class="node">
<title>RecordList</title>
<polygon fill="#ffffb3" stroke="#000000" points="984.2051,-122 905.7949,-122 905.7949,-86 984.2051,-86 984.2051,-122"/>
<text text-anchor="middle" x="945" y="-99.8" font-family="Times,serif" font-size="14.00" fill="#000000">RecordList</text>
</g>
<!-- RecordList&#45;&gt;JS44DModule -->
<g id="edge5" class="edge">
<title>RecordList&#45;&gt;JS44DModule</title>
<path fill="none" stroke="#000000" d="M958.1175,-122.1243C958.1175,-136.7832 958.1175,-155 958.1175,-155 958.1175,-155 847.4623,-155 847.4623,-155"/>
<polygon fill="#000000" stroke="#000000" points="847.4623,-151.5001 837.4623,-155 847.4622,-158.5001 847.4623,-151.5001"/>
</g>
<!-- Tabs -->
<g id="node6" class="node">
<title>Tabs</title>
<polygon fill="#ffffb3" stroke="#000000" points="888,-122 834,-122 834,-86 888,-86 888,-122"/>
<text text-anchor="middle" x="861" y="-99.8" font-family="Times,serif" font-size="14.00" fill="#000000">Tabs</text>
</g>
<!-- Tabs&#45;&gt;JS44DModule -->
<g id="edge6" class="edge">
<title>Tabs&#45;&gt;JS44DModule</title>
<path fill="none" stroke="#000000" d="M833.7146,-104C828.6936,-104 825,-104 825,-104 825,-104 825,-140.8939 825,-140.8939"/>
<polygon fill="#000000" stroke="#000000" points="821.5001,-140.8938 825,-150.8939 828.5001,-140.8939 821.5001,-140.8938"/>
</g>
<!-- Tab -->
<g id="node7" class="node">
<title>Tab</title>
<polygon fill="#ffffb3" stroke="#000000" points="816,-122 762,-122 762,-86 816,-86 816,-122"/>
<text text-anchor="middle" x="789" y="-99.8" font-family="Times,serif" font-size="14.00" fill="#000000">Tab</text>
</g>
<!-- Tab&#45;&gt;JS44DModule -->
<g id="edge7" class="edge">
<title>Tab&#45;&gt;JS44DModule</title>
<path fill="none" stroke="#000000" d="M789,-122.1061C789,-122.1061 789,-140.991 789,-140.991"/>
<polygon fill="#000000" stroke="#000000" points="785.5001,-140.9909 789,-150.991 792.5001,-140.991 785.5001,-140.9909"/>
</g>
<!-- WebAppContainer -->
<g id="node8" class="node">
<title>WebAppContainer</title>
<polygon fill="#ffffb3" stroke="#000000" points="743.7437,-122 622.2563,-122 622.2563,-86 743.7437,-86 743.7437,-122"/>
<text text-anchor="middle" x="683" y="-99.8" font-family="Times,serif" font-size="14.00" fill="#000000">WebAppContainer</text>
</g>
<!-- WebAppContainer&#45;&gt;JS44DModule -->
<g id="edge8" class="edge">
<title>WebAppContainer&#45;&gt;JS44DModule</title>
<path fill="none" stroke="#000000" d="M743.793,-104C749.346,-104 752.9359,-104 752.9359,-104 752.9359,-104 752.9359,-140.8939 752.9359,-140.8939"/>
<polygon fill="#000000" stroke="#000000" points="749.4359,-140.8938 752.9359,-150.8939 756.4359,-140.8939 749.4359,-140.8938"/>
</g>
<!-- FourDDropDown -->
<g id="node9" class="node">
<title>FourDDropDown</title>
<polygon fill="#ffffb3" stroke="#000000" points="603.5312,-122 488.4688,-122 488.4688,-86 603.5312,-86 603.5312,-122"/>
<text text-anchor="middle" x="546" y="-99.8" font-family="Times,serif" font-size="14.00" fill="#000000">FourDDropDown</text>
</g>
<!-- FourDDropDown&#45;&gt;JS44DModule -->
<g id="edge9" class="edge">
<title>FourDDropDown&#45;&gt;JS44DModule</title>
<path fill="none" stroke="#000000" d="M563.0884,-122.1243C563.0884,-136.7832 563.0884,-155 563.0884,-155 563.0884,-155 730.5363,-155 730.5363,-155"/>
<polygon fill="#000000" stroke="#000000" points="730.5363,-158.5001 740.5363,-155 730.5363,-151.5001 730.5363,-158.5001"/>
</g>
<!-- QuickFindInput -->
<g id="node10" class="node">
<title>QuickFindInput</title>
<polygon fill="#ffffb3" stroke="#000000" points="470.9371,-122 365.0629,-122 365.0629,-86 470.9371,-86 470.9371,-122"/>
<text text-anchor="middle" x="418" y="-99.8" font-family="Times,serif" font-size="14.00" fill="#000000">QuickFindInput</text>
</g>
<!-- QuickFindInput&#45;&gt;JS44DModule -->
<g id="edge10" class="edge">
<title>QuickFindInput&#45;&gt;JS44DModule</title>
<path fill="none" stroke="#000000" d="M467.0931,-122.2819C467.0931,-137.9478 467.0931,-158 467.0931,-158 467.0931,-158 730.4587,-158 730.4587,-158"/>
<polygon fill="#000000" stroke="#000000" points="730.4588,-161.5001 740.4587,-158 730.4587,-154.5001 730.4588,-161.5001"/>
</g>
<!-- DataGrid -->
<g id="node11" class="node">
<title>DataGrid</title>
<polygon fill="#ffffb3" stroke="#000000" points="347.0843,-122 278.9157,-122 278.9157,-86 347.0843,-86 347.0843,-122"/>
<text text-anchor="middle" x="313" y="-99.8" font-family="Times,serif" font-size="14.00" fill="#000000">DataGrid</text>
</g>
<!-- DataGrid&#45;&gt;JS44DModule -->
<g id="edge11" class="edge">
<title>DataGrid&#45;&gt;JS44DModule</title>
<path fill="none" stroke="#000000" d="M341.9171,-122.0352C341.9171,-138.7344 341.9171,-161 341.9171,-161 341.9171,-161 730.3032,-161 730.3032,-161"/>
<polygon fill="#000000" stroke="#000000" points="730.3032,-164.5001 740.3032,-161 730.3032,-157.5001 730.3032,-164.5001"/>
</g>
<!-- ListSelectorDialog -->
<g id="node12" class="node">
<title>ListSelectorDialog</title>
<polygon fill="#ffffb3" stroke="#000000" points="260.7493,-122 139.2507,-122 139.2507,-86 260.7493,-86 260.7493,-122"/>
<text text-anchor="middle" x="200" y="-99.8" font-family="Times,serif" font-size="14.00" fill="#000000">ListSelectorDialog</text>
</g>
<!-- ListSelectorDialog&#45;&gt;JS44DModule -->
<g id="edge12" class="edge">
<title>ListSelectorDialog&#45;&gt;JS44DModule</title>
<path fill="none" stroke="#000000" d="M254.2495,-122.302C254.2495,-140.2699 254.2495,-165 254.2495,-165 254.2495,-165 730.6013,-165 730.6013,-165"/>
<polygon fill="#000000" stroke="#000000" points="730.6013,-168.5001 740.6013,-165 730.6013,-161.5001 730.6013,-168.5001"/>
</g>
<!-- LoginCmp -->
<g id="node13" class="node">
<title>LoginCmp</title>
<polygon fill="#ffffb3" stroke="#000000" points="121.1711,-122 44.8289,-122 44.8289,-86 121.1711,-86 121.1711,-122"/>
<text text-anchor="middle" x="83" y="-99.8" font-family="Times,serif" font-size="14.00" fill="#000000">LoginCmp</text>
</g>
<!-- LoginCmp&#45;&gt;JS44DModule -->
<g id="edge13" class="edge">
<title>LoginCmp&#45;&gt;JS44DModule</title>
<path fill="none" stroke="#000000" d="M112.7102,-122.1686C112.7102,-141.0898 112.7102,-168 112.7102,-168 112.7102,-168 730.3629,-168 730.3629,-168"/>
<polygon fill="#000000" stroke="#000000" points="730.3629,-171.5001 740.3629,-168 730.3629,-164.5001 730.3629,-171.5001"/>
</g>
<!-- QueryBand  -->
<g id="node15" class="node">
<title>QueryBand </title>
<polygon fill="#fb8072" stroke="#000000" points="1626.033,-252 1541.967,-252 1541.967,-216 1626.033,-216 1626.033,-252"/>
<text text-anchor="middle" x="1584" y="-229.8" font-family="Times,serif" font-size="14.00" fill="#000000">QueryBand </text>
</g>
<!-- JS44DModule&#45;&gt;QueryBand  -->
<g id="edge14" class="edge">
<title>JS44DModule&#45;&gt;QueryBand </title>
<path fill="none" stroke="#000000" stroke-dasharray="5,2" d="M837.5824,-171C1008.9753,-171 1575.125,-171 1575.125,-171 1575.125,-171 1575.125,-205.7778 1575.125,-205.7778"/>
<polygon fill="#000000" stroke="#000000" points="1571.6251,-205.7778 1575.125,-215.7778 1578.6251,-205.7778 1571.6251,-205.7778"/>
</g>
<!-- CustomButtonBarDirective  -->
<g id="node16" class="node">
<title>CustomButtonBarDirective </title>
<polygon fill="#fb8072" stroke="#000000" points="1523.9755,-252 1350.0245,-252 1350.0245,-216 1523.9755,-216 1523.9755,-252"/>
<text text-anchor="middle" x="1437" y="-229.8" font-family="Times,serif" font-size="14.00" fill="#000000">CustomButtonBarDirective </text>
</g>
<!-- JS44DModule&#45;&gt;CustomButtonBarDirective  -->
<g id="edge15" class="edge">
<title>JS44DModule&#45;&gt;CustomButtonBarDirective </title>
<path fill="none" stroke="#000000" stroke-dasharray="5,2" d="M837.4514,-174C986.8103,-174 1430.125,-174 1430.125,-174 1430.125,-174 1430.125,-205.998 1430.125,-205.998"/>
<polygon fill="#000000" stroke="#000000" points="1426.6251,-205.998 1430.125,-215.998 1433.6251,-205.9981 1426.6251,-205.998"/>
</g>
<!-- AdvancedQueryComponent  -->
<g id="node17" class="node">
<title>AdvancedQueryComponent </title>
<polygon fill="#fb8072" stroke="#000000" points="1332.0651,-252 1155.9349,-252 1155.9349,-216 1332.0651,-216 1332.0651,-252"/>
<text text-anchor="middle" x="1244" y="-229.8" font-family="Times,serif" font-size="14.00" fill="#000000">AdvancedQueryComponent </text>
</g>
<!-- JS44DModule&#45;&gt;AdvancedQueryComponent  -->
<g id="edge16" class="edge">
<title>JS44DModule&#45;&gt;AdvancedQueryComponent </title>
<path fill="none" stroke="#000000" stroke-dasharray="5,2" d="M837.545,-178C953.8081,-178 1238.625,-178 1238.625,-178 1238.625,-178 1238.625,-205.973 1238.625,-205.973"/>
<polygon fill="#000000" stroke="#000000" points="1235.1251,-205.973 1238.625,-215.973 1242.1251,-205.973 1235.1251,-205.973"/>
</g>
<!-- RecordEditWindow  -->
<g id="node18" class="node">
<title>RecordEditWindow </title>
<polygon fill="#fb8072" stroke="#000000" points="1137.9729,-252 1006.0271,-252 1006.0271,-216 1137.9729,-216 1137.9729,-252"/>
<text text-anchor="middle" x="1072" y="-229.8" font-family="Times,serif" font-size="14.00" fill="#000000">RecordEditWindow </text>
</g>
<!-- JS44DModule&#45;&gt;RecordEditWindow  -->
<g id="edge17" class="edge">
<title>JS44DModule&#45;&gt;RecordEditWindow </title>
<path fill="none" stroke="#000000" stroke-dasharray="5,2" d="M837.6228,-181C912.5052,-181 1047.5047,-181 1047.5047,-181 1047.5047,-181 1047.5047,-205.7604 1047.5047,-205.7604"/>
<polygon fill="#000000" stroke="#000000" points="1044.0048,-205.7604 1047.5047,-215.7604 1051.0048,-205.7604 1044.0048,-205.7604"/>
</g>
<!-- RecordList  -->
<g id="node19" class="node">
<title>RecordList </title>
<polygon fill="#fb8072" stroke="#000000" points="987.7053,-252 906.2947,-252 906.2947,-216 987.7053,-216 987.7053,-252"/>
<text text-anchor="middle" x="947" y="-229.8" font-family="Times,serif" font-size="14.00" fill="#000000">RecordList </text>
</g>
<!-- JS44DModule&#45;&gt;RecordList  -->
<g id="edge18" class="edge">
<title>JS44DModule&#45;&gt;RecordList </title>
<path fill="none" stroke="#000000" stroke-dasharray="5,2" d="M837.4581,-184C878.982,-184 932.1325,-184 932.1325,-184 932.1325,-184 932.1325,-205.9489 932.1325,-205.9489"/>
<polygon fill="#000000" stroke="#000000" points="928.6326,-205.9488 932.1325,-215.9489 935.6326,-205.9489 928.6326,-205.9488"/>
</g>
<!-- Tabs  -->
<g id="node20" class="node">
<title>Tabs </title>
<polygon fill="#fb8072" stroke="#000000" points="888,-252 834,-252 834,-216 888,-216 888,-252"/>
<text text-anchor="middle" x="861" y="-229.8" font-family="Times,serif" font-size="14.00" fill="#000000">Tabs </text>
</g>
<!-- JS44DModule&#45;&gt;Tabs  -->
<g id="edge19" class="edge">
<title>JS44DModule&#45;&gt;Tabs </title>
<path fill="none" stroke="#000000" stroke-dasharray="5,2" d="M825,-187.1061C825,-206.3391 825,-234 825,-234 825,-234 825.8715,-234 825.8715,-234"/>
<polygon fill="#000000" stroke="#000000" points="823.7146,-237.5001 833.7146,-234 823.7146,-230.5001 823.7146,-237.5001"/>
</g>
<!-- Tab  -->
<g id="node21" class="node">
<title>Tab </title>
<polygon fill="#fb8072" stroke="#000000" points="816,-252 762,-252 762,-216 816,-216 816,-252"/>
<text text-anchor="middle" x="789" y="-229.8" font-family="Times,serif" font-size="14.00" fill="#000000">Tab </text>
</g>
<!-- JS44DModule&#45;&gt;Tab  -->
<g id="edge20" class="edge">
<title>JS44DModule&#45;&gt;Tab </title>
<path fill="none" stroke="#000000" stroke-dasharray="5,2" d="M789,-187.1061C789,-187.1061 789,-205.991 789,-205.991"/>
<polygon fill="#000000" stroke="#000000" points="785.5001,-205.9909 789,-215.991 792.5001,-205.991 785.5001,-205.9909"/>
</g>
<!-- WebAppContainer  -->
<g id="node22" class="node">
<title>WebAppContainer </title>
<polygon fill="#fb8072" stroke="#000000" points="743.7436,-252 618.2564,-252 618.2564,-216 743.7436,-216 743.7436,-252"/>
<text text-anchor="middle" x="681" y="-229.8" font-family="Times,serif" font-size="14.00" fill="#000000">WebAppContainer </text>
</g>
<!-- JS44DModule&#45;&gt;WebAppContainer  -->
<g id="edge21" class="edge">
<title>JS44DModule&#45;&gt;WebAppContainer </title>
<path fill="none" stroke="#000000" stroke-dasharray="5,2" d="M752.8109,-187.1061C752.8109,-206.3391 752.8109,-234 752.8109,-234 752.8109,-234 751.9014,-234 751.9014,-234"/>
<polygon fill="#000000" stroke="#000000" points="753.716,-230.5001 743.716,-234 753.7159,-237.5001 753.716,-230.5001"/>
</g>
<!-- FourDDropDown  -->
<g id="node23" class="node">
<title>FourDDropDown </title>
<polygon fill="#fb8072" stroke="#000000" points="600.5302,-252 481.4698,-252 481.4698,-216 600.5302,-216 600.5302,-252"/>
<text text-anchor="middle" x="541" y="-229.8" font-family="Times,serif" font-size="14.00" fill="#000000">FourDDropDown </text>
</g>
<!-- JS44DModule&#45;&gt;FourDDropDown  -->
<g id="edge22" class="edge">
<title>JS44DModule&#45;&gt;FourDDropDown </title>
<path fill="none" stroke="#000000" stroke-dasharray="5,2" d="M740.3928,-184C664.3027,-184 525.6616,-184 525.6616,-184 525.6616,-184 525.6616,-205.9489 525.6616,-205.9489"/>
<polygon fill="#000000" stroke="#000000" points="522.1617,-205.9488 525.6616,-215.9489 529.1617,-205.9489 522.1617,-205.9488"/>
</g>
<!-- QuickFindInput  -->
<g id="node24" class="node">
<title>QuickFindInput </title>
<polygon fill="#fb8072" stroke="#000000" points="463.4362,-252 354.5638,-252 354.5638,-216 463.4362,-216 463.4362,-252"/>
<text text-anchor="middle" x="409" y="-229.8" font-family="Times,serif" font-size="14.00" fill="#000000">QuickFindInput </text>
</g>
<!-- JS44DModule&#45;&gt;QuickFindInput  -->
<g id="edge23" class="edge">
<title>JS44DModule&#45;&gt;QuickFindInput </title>
<path fill="none" stroke="#000000" stroke-dasharray="5,2" d="M740.4084,-181C639.044,-181 414.375,-181 414.375,-181 414.375,-181 414.375,-205.7604 414.375,-205.7604"/>
<polygon fill="#000000" stroke="#000000" points="410.8751,-205.7604 414.375,-215.7604 417.8751,-205.7604 410.8751,-205.7604"/>
</g>
<!-- DataGrid  -->
<g id="node25" class="node">
<title>DataGrid </title>
<polygon fill="#fb8072" stroke="#000000" points="336.5854,-252 265.4146,-252 265.4146,-216 336.5854,-216 336.5854,-252"/>
<text text-anchor="middle" x="301" y="-229.8" font-family="Times,serif" font-size="14.00" fill="#000000">DataGrid </text>
</g>
<!-- JS44DModule&#45;&gt;DataGrid  -->
<g id="edge24" class="edge">
<title>JS44DModule&#45;&gt;DataGrid </title>
<path fill="none" stroke="#000000" stroke-dasharray="5,2" d="M740.2195,-178C617.9035,-178 307.875,-178 307.875,-178 307.875,-178 307.875,-205.973 307.875,-205.973"/>
<polygon fill="#000000" stroke="#000000" points="304.3751,-205.973 307.875,-215.973 311.3751,-205.973 304.3751,-205.973"/>
</g>
<!-- ListSelectorDialog  -->
<g id="node26" class="node">
<title>ListSelectorDialog </title>
<polygon fill="#fb8072" stroke="#000000" points="247.7492,-252 122.2508,-252 122.2508,-216 247.7492,-216 247.7492,-252"/>
<text text-anchor="middle" x="185" y="-229.8" font-family="Times,serif" font-size="14.00" fill="#000000">ListSelectorDialog </text>
</g>
<!-- JS44DModule&#45;&gt;ListSelectorDialog  -->
<g id="edge25" class="edge">
<title>JS44DModule&#45;&gt;ListSelectorDialog </title>
<path fill="none" stroke="#000000" stroke-dasharray="5,2" d="M740.51,-174C598.4844,-174 193.375,-174 193.375,-174 193.375,-174 193.375,-205.998 193.375,-205.998"/>
<polygon fill="#000000" stroke="#000000" points="189.8751,-205.998 193.375,-215.998 196.8751,-205.9981 189.8751,-205.998"/>
</g>
<!-- LoginCmp  -->
<g id="node27" class="node">
<title>LoginCmp </title>
<polygon fill="#fb8072" stroke="#000000" points="104.1706,-252 23.8294,-252 23.8294,-216 104.1706,-216 104.1706,-252"/>
<text text-anchor="middle" x="64" y="-229.8" font-family="Times,serif" font-size="14.00" fill="#000000">LoginCmp </text>
</g>
<!-- JS44DModule&#45;&gt;LoginCmp  -->
<g id="edge26" class="edge">
<title>JS44DModule&#45;&gt;LoginCmp </title>
<path fill="none" stroke="#000000" stroke-dasharray="5,2" d="M740.4428,-171C579.5997,-171 74.375,-171 74.375,-171 74.375,-171 74.375,-205.7778 74.375,-205.7778"/>
<polygon fill="#000000" stroke="#000000" points="70.8751,-205.7778 74.375,-215.7778 77.8751,-205.7778 70.8751,-205.7778"/>
</g>
</g>
</svg>
