<?xml version="1.0" encoding="UTF-8" standalone="no"?>
<!DOCTYPE svg PUBLIC "-//W3C//DTD SVG 1.1//EN"
 "http://www.w3.org/Graphics/SVG/1.1/DTD/svg11.dtd">
<!-- Generated by graphviz version 2.40.1 (20161225.0304)
 -->
<!-- Title: dependencies Pages: 1 -->
<svg width="1792pt" height="284pt"
 viewBox="0.00 0.00 1792.00 284.00" xmlns="http://www.w3.org/2000/svg" xmlns:xlink="http://www.w3.org/1999/xlink">
<g id="graph0" class="graph" transform="scale(1 1) rotate(0) translate(4 280)">
<title>dependencies</title>
<polygon fill="#ffffff" stroke="transparent" points="-4,4 -4,-280 1788,-280 1788,4 -4,4"/>
<text text-anchor="start" x="871.0091" y="-42.4" font-family="sans-serif" font-weight="bold" font-size="14.00" fill="#000000">Legend</text>
<polygon fill="#ffffb3" stroke="transparent" points="658,-10 658,-30 678,-30 678,-10 658,-10"/>
<text text-anchor="start" x="681.629" y="-15.4" font-family="sans-serif" font-size="14.00" fill="#000000"> &#160;Declarations</text>
<polygon fill="#8dd3c7" stroke="transparent" points="771,-10 771,-30 791,-30 791,-10 771,-10"/>
<text text-anchor="start" x="794.7251" y="-15.4" font-family="sans-serif" font-size="14.00" fill="#000000"> &#160;Module</text>
<polygon fill="#80b1d3" stroke="transparent" points="857,-10 857,-30 877,-30 877,-10 857,-10"/>
<text text-anchor="start" x="880.7812" y="-15.4" font-family="sans-serif" font-size="14.00" fill="#000000"> &#160;Bootstrap</text>
<polygon fill="#fdb462" stroke="transparent" points="954,-10 954,-30 974,-30 974,-10 954,-10"/>
<text text-anchor="start" x="977.6732" y="-15.4" font-family="sans-serif" font-size="14.00" fill="#000000"> &#160;Providers</text>
<polygon fill="#fb8072" stroke="transparent" points="1050,-10 1050,-30 1070,-30 1070,-10 1050,-10"/>
<text text-anchor="start" x="1073.7258" y="-15.4" font-family="sans-serif" font-size="14.00" fill="#000000"> &#160;Exports</text>
<g id="clust1" class="cluster">
<title>cluster_JS44DModule</title>
<polygon fill="none" stroke="#000000" stroke-dasharray="1,5" points="8,-70 8,-268 1776,-268 1776,-70 8,-70"/>
</g>
<g id="clust2" class="cluster">
<title>cluster_JS44DModule_declarations</title>
<polygon fill="none" stroke="#000000" points="42,-78 42,-130 1752,-130 1752,-78 42,-78"/>
</g>
<g id="clust18" class="cluster">
<title>cluster_JS44DModule_exports</title>
<polygon fill="none" stroke="#000000" points="16,-208 16,-260 1768,-260 1768,-208 16,-208"/>
</g>
<!-- QueryBand -->
<g id="node1" class="node">
<title>QueryBand</title>
<polygon fill="#ffffb3" stroke="#000000" points="1744.0343,-122 1663.9657,-122 1663.9657,-86 1744.0343,-86 1744.0343,-122"/>
<text text-anchor="middle" x="1704" y="-99.8" font-family="Times,serif" font-size="14.00" fill="#000000">QueryBand</text>
</g>
<!-- JS44DModule -->
<g id="node15" class="node">
<title>JS44DModule</title>
<polygon fill="#8dd3c7" stroke="#000000" points="878.3837,-187 875.3837,-191 854.3837,-191 851.3837,-187 781.6163,-187 781.6163,-151 878.3837,-151 878.3837,-187"/>
<text text-anchor="middle" x="830" y="-164.8" font-family="Times,serif" font-size="14.00" fill="#000000">JS44DModule</text>
</g>
<!-- QueryBand&#45;&gt;JS44DModule -->
<g id="edge1" class="edge">
<title>QueryBand&#45;&gt;JS44DModule</title>
<path fill="none" stroke="#000000" d="M1669.8585,-122.1686C1669.8585,-141.0898 1669.8585,-168 1669.8585,-168 1669.8585,-168 888.4773,-168 888.4773,-168"/>
<polygon fill="#000000" stroke="#000000" points="888.4773,-164.5001 878.4773,-168 888.4773,-171.5001 888.4773,-164.5001"/>
</g>
<!-- CustomButtonBarDirective -->
<g id="node2" class="node">
<title>CustomButtonBarDirective</title>
<polygon fill="#ffffb3" stroke="#000000" points="1645.9748,-122 1476.0252,-122 1476.0252,-86 1645.9748,-86 1645.9748,-122"/>
<text text-anchor="middle" x="1561" y="-99.8" font-family="Times,serif" font-size="14.00" fill="#000000">CustomButtonBarDirective</text>
</g>
<!-- CustomButtonBarDirective&#45;&gt;JS44DModule -->
<g id="edge2" class="edge">
<title>CustomButtonBarDirective&#45;&gt;JS44DModule</title>
<path fill="none" stroke="#000000" d="M1480.1376,-122.2667C1480.1376,-140.5552 1480.1376,-166 1480.1376,-166 1480.1376,-166 888.6001,-166 888.6001,-166"/>
<polygon fill="#000000" stroke="#000000" points="888.6001,-162.5001 878.6001,-166 888.6001,-169.5001 888.6001,-162.5001"/>
</g>
<!-- AdvancedQueryComponent -->
<g id="node3" class="node">
<title>AdvancedQueryComponent</title>
<polygon fill="#ffffb3" stroke="#000000" points="1457.5646,-122 1284.4354,-122 1284.4354,-86 1457.5646,-86 1457.5646,-122"/>
<text text-anchor="middle" x="1371" y="-99.8" font-family="Times,serif" font-size="14.00" fill="#000000">AdvancedQueryComponent</text>
</g>
<!-- AdvancedQueryComponent&#45;&gt;JS44DModule -->
<g id="edge3" class="edge">
<title>AdvancedQueryComponent&#45;&gt;JS44DModule</title>
<path fill="none" stroke="#000000" d="M1401.5941,-122.0225C1401.5941,-139.3734 1401.5941,-163 1401.5941,-163 1401.5941,-163 888.7338,-163 888.7338,-163"/>
<polygon fill="#000000" stroke="#000000" points="888.7338,-159.5001 878.7338,-163 888.7338,-166.5001 888.7338,-159.5001"/>
</g>
<!-- RecordEditWindow -->
<g id="node4" class="node">
<title>RecordEditWindow</title>
<polygon fill="#ffffb3" stroke="#000000" points="1265.972,-122 1138.028,-122 1138.028,-86 1265.972,-86 1265.972,-122"/>
<text text-anchor="middle" x="1202" y="-99.8" font-family="Times,serif" font-size="14.00" fill="#000000">RecordEditWindow</text>
</g>
<!-- RecordEditWindow&#45;&gt;JS44DModule -->
<g id="edge4" class="edge">
<title>RecordEditWindow&#45;&gt;JS44DModule</title>
<path fill="none" stroke="#000000" d="M1224.0787,-122.0352C1224.0787,-138.7344 1224.0787,-161 1224.0787,-161 1224.0787,-161 888.717,-161 888.717,-161"/>
<polygon fill="#000000" stroke="#000000" points="888.7171,-157.5001 878.717,-161 888.717,-164.5001 888.7171,-157.5001"/>
</g>
<!-- RecordList -->
<g id="node5" class="node">
<title>RecordList</title>
<polygon fill="#ffffb3" stroke="#000000" points="1120.2051,-122 1041.7949,-122 1041.7949,-86 1120.2051,-86 1120.2051,-122"/>
<text text-anchor="middle" x="1081" y="-99.8" font-family="Times,serif" font-size="14.00" fill="#000000">RecordList</text>
</g>
<!-- RecordList&#45;&gt;JS44DModule -->
<g id="edge5" class="edge">
<title>RecordList&#45;&gt;JS44DModule</title>
<path fill="none" stroke="#000000" d="M1094.0341,-122.0091C1094.0341,-138.0494 1094.0341,-159 1094.0341,-159 1094.0341,-159 888.4279,-159 888.4279,-159"/>
<polygon fill="#000000" stroke="#000000" points="888.428,-155.5001 878.4279,-159 888.4279,-162.5001 888.428,-155.5001"/>
</g>
<!-- Tabs -->
<g id="node6" class="node">
<title>Tabs</title>
<polygon fill="#ffffb3" stroke="#000000" points="1024,-122 970,-122 970,-86 1024,-86 1024,-122"/>
<text text-anchor="middle" x="997" y="-99.8" font-family="Times,serif" font-size="14.00" fill="#000000">Tabs</text>
</g>
<!-- Tabs&#45;&gt;JS44DModule -->
<g id="edge6" class="edge">
<title>Tabs&#45;&gt;JS44DModule</title>
<path fill="none" stroke="#000000" d="M987.3333,-122.1871C987.3333,-137.1824 987.3333,-156 987.3333,-156 987.3333,-156 888.489,-156 888.489,-156"/>
<polygon fill="#000000" stroke="#000000" points="888.489,-152.5001 878.489,-156 888.4889,-159.5001 888.489,-152.5001"/>
</g>
<!-- Tab -->
<g id="node7" class="node">
<title>Tab</title>
<polygon fill="#ffffb3" stroke="#000000" points="952,-122 898,-122 898,-86 952,-86 952,-122"/>
<text text-anchor="middle" x="925" y="-99.8" font-family="Times,serif" font-size="14.00" fill="#000000">Tab</text>
</g>
<!-- Tab&#45;&gt;JS44DModule -->
<g id="edge7" class="edge">
<title>Tab&#45;&gt;JS44DModule</title>
<path fill="none" stroke="#000000" d="M915.3333,-122.0511C915.3333,-136.373 915.3333,-154 915.3333,-154 915.3333,-154 888.6491,-154 888.6491,-154"/>
<polygon fill="#000000" stroke="#000000" points="888.6491,-150.5001 878.6491,-154 888.6491,-157.5001 888.6491,-150.5001"/>
</g>
<!-- WebAppContainer -->
<g id="node8" class="node">
<title>WebAppContainer</title>
<polygon fill="#ffffb3" stroke="#000000" points="879.7437,-122 758.2563,-122 758.2563,-86 879.7437,-86 879.7437,-122"/>
<text text-anchor="middle" x="819" y="-99.8" font-family="Times,serif" font-size="14.00" fill="#000000">WebAppContainer</text>
</g>
<!-- WebAppContainer&#45;&gt;JS44DModule -->
<g id="edge8" class="edge">
<title>WebAppContainer&#45;&gt;JS44DModule</title>
<path fill="none" stroke="#000000" d="M830,-122.1061C830,-122.1061 830,-140.991 830,-140.991"/>
<polygon fill="#000000" stroke="#000000" points="826.5001,-140.9909 830,-150.991 833.5001,-140.991 826.5001,-140.9909"/>
</g>
<!-- FourDDropDown -->
<g id="node9" class="node">
<title>FourDDropDown</title>
<polygon fill="#ffffb3" stroke="#000000" points="739.5312,-122 624.4688,-122 624.4688,-86 739.5312,-86 739.5312,-122"/>
<text text-anchor="middle" x="682" y="-99.8" font-family="Times,serif" font-size="14.00" fill="#000000">FourDDropDown</text>
</g>
<!-- FourDDropDown&#45;&gt;JS44DModule -->
<g id="edge9" class="edge">
<title>FourDDropDown&#45;&gt;JS44DModule</title>
<path fill="none" stroke="#000000" d="M697.755,-122.0511C697.755,-136.373 697.755,-154 697.755,-154 697.755,-154 771.5078,-154 771.5078,-154"/>
<polygon fill="#000000" stroke="#000000" points="771.5078,-157.5001 781.5078,-154 771.5077,-150.5001 771.5078,-157.5001"/>
</g>
<!-- QuickFindInput -->
<g id="node10" class="node">
<title>QuickFindInput</title>
<polygon fill="#ffffb3" stroke="#000000" points="606.9371,-122 501.0629,-122 501.0629,-86 606.9371,-86 606.9371,-122"/>
<text text-anchor="middle" x="554" y="-99.8" font-family="Times,serif" font-size="14.00" fill="#000000">QuickFindInput</text>
</g>
<!-- QuickFindInput&#45;&gt;JS44DModule -->
<g id="edge10" class="edge">
<title>QuickFindInput&#45;&gt;JS44DModule</title>
<path fill="none" stroke="#000000" d="M602.0931,-122.2396C602.0931,-137.5706 602.0931,-157 602.0931,-157 602.0931,-157 771.3878,-157 771.3878,-157"/>
<polygon fill="#000000" stroke="#000000" points="771.3878,-160.5001 781.3878,-157 771.3878,-153.5001 771.3878,-160.5001"/>
</g>
<!-- DataGrid -->
<g id="node11" class="node">
<title>DataGrid</title>
<polygon fill="#ffffb3" stroke="#000000" points="483.0843,-122 414.9157,-122 414.9157,-86 483.0843,-86 483.0843,-122"/>
<text text-anchor="middle" x="449" y="-99.8" font-family="Times,serif" font-size="14.00" fill="#000000">DataGrid</text>
</g>
<!-- DataGrid&#45;&gt;JS44DModule -->
<g id="edge11" class="edge">
<title>DataGrid&#45;&gt;JS44DModule</title>
<path fill="none" stroke="#000000" d="M476.9171,-122.027C476.9171,-138.3976 476.9171,-160 476.9171,-160 476.9171,-160 771.276,-160 771.276,-160"/>
<polygon fill="#000000" stroke="#000000" points="771.2761,-163.5001 781.276,-160 771.276,-156.5001 771.2761,-163.5001"/>
</g>
<!-- ListSelectorDialog -->
<g id="node12" class="node">
<title>ListSelectorDialog</title>
<polygon fill="#ffffb3" stroke="#000000" points="396.7493,-122 275.2507,-122 275.2507,-86 396.7493,-86 396.7493,-122"/>
<text text-anchor="middle" x="336" y="-99.8" font-family="Times,serif" font-size="14.00" fill="#000000">ListSelectorDialog</text>
</g>
<!-- ListSelectorDialog&#45;&gt;JS44DModule -->
<g id="edge12" class="edge">
<title>ListSelectorDialog&#45;&gt;JS44DModule</title>
<path fill="none" stroke="#000000" d="M389.2495,-122.0225C389.2495,-139.3734 389.2495,-163 389.2495,-163 389.2495,-163 771.5712,-163 771.5712,-163"/>
<polygon fill="#000000" stroke="#000000" points="771.5712,-166.5001 781.5712,-163 771.5712,-159.5001 771.5712,-166.5001"/>
</g>
<!-- Base64ImageRef -->
<g id="node13" class="node">
<title>Base64ImageRef</title>
<polygon fill="#ffffb3" stroke="#000000" points="257.4033,-122 144.5967,-122 144.5967,-86 257.4033,-86 257.4033,-122"/>
<text text-anchor="middle" x="201" y="-99.8" font-family="Times,serif" font-size="14.00" fill="#000000">Base64ImageRef</text>
</g>
<!-- Base64ImageRef&#45;&gt;JS44DModule -->
<g id="edge13" class="edge">
<title>Base64ImageRef&#45;&gt;JS44DModule</title>
<path fill="none" stroke="#000000" d="M247.1634,-122.302C247.1634,-140.2699 247.1634,-165 247.1634,-165 247.1634,-165 771.3102,-165 771.3102,-165"/>
<polygon fill="#000000" stroke="#000000" points="771.3102,-168.5001 781.3102,-165 771.3101,-161.5001 771.3102,-168.5001"/>
</g>
<!-- LoginCmp -->
<g id="node14" class="node">
<title>LoginCmp</title>
<polygon fill="#ffffb3" stroke="#000000" points="126.1711,-122 49.8289,-122 49.8289,-86 126.1711,-86 126.1711,-122"/>
<text text-anchor="middle" x="88" y="-99.8" font-family="Times,serif" font-size="14.00" fill="#000000">LoginCmp</text>
</g>
<!-- LoginCmp&#45;&gt;JS44DModule -->
<g id="edge14" class="edge">
<title>LoginCmp&#45;&gt;JS44DModule</title>
<path fill="none" stroke="#000000" d="M113.067,-122.1686C113.067,-141.0898 113.067,-168 113.067,-168 113.067,-168 771.5667,-168 771.5667,-168"/>
<polygon fill="#000000" stroke="#000000" points="771.5667,-171.5001 781.5667,-168 771.5667,-164.5001 771.5667,-171.5001"/>
</g>
<!-- QueryBand  -->
<g id="node16" class="node">
<title>QueryBand </title>
<polygon fill="#fb8072" stroke="#000000" points="1760.033,-252 1675.967,-252 1675.967,-216 1760.033,-216 1760.033,-252"/>
<text text-anchor="middle" x="1718" y="-229.8" font-family="Times,serif" font-size="14.00" fill="#000000">QueryBand </text>
</g>
<!-- JS44DModule&#45;&gt;QueryBand  -->
<g id="edge15" class="edge">
<title>JS44DModule&#45;&gt;QueryBand </title>
<path fill="none" stroke="#000000" stroke-dasharray="5,2" d="M878.573,-171C1063.0815,-171 1710.125,-171 1710.125,-171 1710.125,-171 1710.125,-205.7778 1710.125,-205.7778"/>
<polygon fill="#000000" stroke="#000000" points="1706.6251,-205.7778 1710.125,-215.7778 1713.6251,-205.7778 1706.6251,-205.7778"/>
</g>
<!-- CustomButtonBarDirective  -->
<g id="node17" class="node">
<title>CustomButtonBarDirective </title>
<polygon fill="#fb8072" stroke="#000000" points="1657.9755,-252 1484.0245,-252 1484.0245,-216 1657.9755,-216 1657.9755,-252"/>
<text text-anchor="middle" x="1571" y="-229.8" font-family="Times,serif" font-size="14.00" fill="#000000">CustomButtonBarDirective </text>
</g>
<!-- JS44DModule&#45;&gt;CustomButtonBarDirective  -->
<g id="edge16" class="edge">
<title>JS44DModule&#45;&gt;CustomButtonBarDirective </title>
<path fill="none" stroke="#000000" stroke-dasharray="5,2" d="M878.5179,-173C1042.3847,-173 1565.125,-173 1565.125,-173 1565.125,-173 1565.125,-205.698 1565.125,-205.698"/>
<polygon fill="#000000" stroke="#000000" points="1561.6251,-205.698 1565.125,-215.698 1568.6251,-205.698 1561.6251,-205.698"/>
</g>
<!-- AdvancedQueryComponent  -->
<g id="node18" class="node">
<title>AdvancedQueryComponent </title>
<polygon fill="#fb8072" stroke="#000000" points="1466.0651,-252 1289.9349,-252 1289.9349,-216 1466.0651,-216 1466.0651,-252"/>
<text text-anchor="middle" x="1378" y="-229.8" font-family="Times,serif" font-size="14.00" fill="#000000">AdvancedQueryComponent </text>
</g>
<!-- JS44DModule&#45;&gt;AdvancedQueryComponent  -->
<g id="edge17" class="edge">
<title>JS44DModule&#45;&gt;AdvancedQueryComponent </title>
<path fill="none" stroke="#000000" stroke-dasharray="5,2" d="M878.5117,-175C1006.8771,-175 1345.6559,-175 1345.6559,-175 1345.6559,-175 1345.6559,-205.9775 1345.6559,-205.9775"/>
<polygon fill="#000000" stroke="#000000" points="1342.156,-205.9774 1345.6559,-215.9775 1349.156,-205.9775 1342.156,-205.9774"/>
</g>
<!-- RecordEditWindow  -->
<g id="node19" class="node">
<title>RecordEditWindow </title>
<polygon fill="#fb8072" stroke="#000000" points="1271.9729,-252 1140.0271,-252 1140.0271,-216 1271.9729,-216 1271.9729,-252"/>
<text text-anchor="middle" x="1206" y="-229.8" font-family="Times,serif" font-size="14.00" fill="#000000">RecordEditWindow </text>
</g>
<!-- JS44DModule&#45;&gt;RecordEditWindow  -->
<g id="edge18" class="edge">
<title>JS44DModule&#45;&gt;RecordEditWindow </title>
<path fill="none" stroke="#000000" stroke-dasharray="5,2" d="M878.5982,-178C975.208,-178 1182.1713,-178 1182.1713,-178 1182.1713,-178 1182.1713,-205.973 1182.1713,-205.973"/>
<polygon fill="#000000" stroke="#000000" points="1178.6714,-205.973 1182.1713,-215.973 1185.6714,-205.973 1178.6714,-205.973"/>
</g>
<!-- RecordList  -->
<g id="node20" class="node">
<title>RecordList </title>
<polygon fill="#fb8072" stroke="#000000" points="1121.7053,-252 1040.2947,-252 1040.2947,-216 1121.7053,-216 1121.7053,-252"/>
<text text-anchor="middle" x="1081" y="-229.8" font-family="Times,serif" font-size="14.00" fill="#000000">RecordList </text>
</g>
<!-- JS44DModule&#45;&gt;RecordList  -->
<g id="edge19" class="edge">
<title>JS44DModule&#45;&gt;RecordList </title>
<path fill="none" stroke="#000000" stroke-dasharray="5,2" d="M878.4428,-180C948.0205,-180 1067.9659,-180 1067.9659,-180 1067.9659,-180 1067.9659,-205.7181 1067.9659,-205.7181"/>
<polygon fill="#000000" stroke="#000000" points="1064.466,-205.718 1067.9659,-215.7181 1071.466,-205.7181 1064.466,-205.718"/>
</g>
<!-- Tabs  -->
<g id="node21" class="node">
<title>Tabs </title>
<polygon fill="#fb8072" stroke="#000000" points="1022,-252 968,-252 968,-216 1022,-216 1022,-252"/>
<text text-anchor="middle" x="995" y="-229.8" font-family="Times,serif" font-size="14.00" fill="#000000">Tabs </text>
</g>
<!-- JS44DModule&#45;&gt;Tabs  -->
<g id="edge20" class="edge">
<title>JS44DModule&#45;&gt;Tabs </title>
<path fill="none" stroke="#000000" stroke-dasharray="5,2" d="M878.6544,-183C930.3369,-183 1004.6667,-183 1004.6667,-183 1004.6667,-183 1004.6667,-205.8757 1004.6667,-205.8757"/>
<polygon fill="#000000" stroke="#000000" points="1001.1668,-205.8757 1004.6667,-215.8757 1008.1668,-205.8757 1001.1668,-205.8757"/>
</g>
<!-- Tab  -->
<g id="node22" class="node">
<title>Tab </title>
<polygon fill="#fb8072" stroke="#000000" points="950,-252 896,-252 896,-216 950,-216 950,-252"/>
<text text-anchor="middle" x="923" y="-229.8" font-family="Times,serif" font-size="14.00" fill="#000000">Tab </text>
</g>
<!-- JS44DModule&#45;&gt;Tab  -->
<g id="edge21" class="edge">
<title>JS44DModule&#45;&gt;Tab </title>
<path fill="none" stroke="#000000" stroke-dasharray="5,2" d="M878.6274,-185C905.1636,-185 932.6667,-185 932.6667,-185 932.6667,-185 932.6667,-205.7542 932.6667,-205.7542"/>
<polygon fill="#000000" stroke="#000000" points="929.1668,-205.7542 932.6667,-215.7542 936.1668,-205.7542 929.1668,-205.7542"/>
</g>
<!-- WebAppContainer  -->
<g id="node23" class="node">
<title>WebAppContainer </title>
<polygon fill="#fb8072" stroke="#000000" points="877.7436,-252 752.2564,-252 752.2564,-216 877.7436,-216 877.7436,-252"/>
<text text-anchor="middle" x="815" y="-229.8" font-family="Times,serif" font-size="14.00" fill="#000000">WebAppContainer </text>
</g>
<!-- JS44DModule&#45;&gt;WebAppContainer  -->
<g id="edge22" class="edge">
<title>JS44DModule&#45;&gt;WebAppContainer </title>
<path fill="none" stroke="#000000" stroke-dasharray="5,2" d="M829.59,-187.1061C829.59,-187.1061 829.59,-205.991 829.59,-205.991"/>
<polygon fill="#000000" stroke="#000000" points="826.09,-205.9909 829.59,-215.991 833.09,-205.991 826.09,-205.9909"/>
</g>
<!-- FourDDropDown  -->
<g id="node24" class="node">
<title>FourDDropDown </title>
<polygon fill="#fb8072" stroke="#000000" points="734.5302,-252 615.4698,-252 615.4698,-216 734.5302,-216 734.5302,-252"/>
<text text-anchor="middle" x="675" y="-229.8" font-family="Times,serif" font-size="14.00" fill="#000000">FourDDropDown </text>
</g>
<!-- JS44DModule&#45;&gt;FourDDropDown  -->
<g id="edge23" class="edge">
<title>JS44DModule&#45;&gt;FourDDropDown </title>
<path fill="none" stroke="#000000" stroke-dasharray="5,2" d="M781.5699,-185C731.6293,-185 660.995,-185 660.995,-185 660.995,-185 660.995,-205.7542 660.995,-205.7542"/>
<polygon fill="#000000" stroke="#000000" points="657.4951,-205.7542 660.995,-215.7542 664.4951,-205.7542 657.4951,-205.7542"/>
</g>
<!-- QuickFindInput  -->
<g id="node25" class="node">
<title>QuickFindInput </title>
<polygon fill="#fb8072" stroke="#000000" points="597.4362,-252 488.5638,-252 488.5638,-216 597.4362,-216 597.4362,-252"/>
<text text-anchor="middle" x="543" y="-229.8" font-family="Times,serif" font-size="14.00" fill="#000000">QuickFindInput </text>
</g>
<!-- JS44DModule&#45;&gt;QuickFindInput  -->
<g id="edge24" class="edge">
<title>JS44DModule&#45;&gt;QuickFindInput </title>
<path fill="none" stroke="#000000" stroke-dasharray="5,2" d="M781.4392,-182C701.1207,-182 549.375,-182 549.375,-182 549.375,-182 549.375,-205.8129 549.375,-205.8129"/>
<polygon fill="#000000" stroke="#000000" points="545.8751,-205.8129 549.375,-215.8129 552.8751,-205.813 545.8751,-205.8129"/>
</g>
<!-- DataGrid  -->
<g id="node26" class="node">
<title>DataGrid </title>
<polygon fill="#fb8072" stroke="#000000" points="470.5854,-252 399.4146,-252 399.4146,-216 470.5854,-216 470.5854,-252"/>
<text text-anchor="middle" x="435" y="-229.8" font-family="Times,serif" font-size="14.00" fill="#000000">DataGrid </text>
</g>
<!-- JS44DModule&#45;&gt;DataGrid  -->
<g id="edge25" class="edge">
<title>JS44DModule&#45;&gt;DataGrid </title>
<path fill="none" stroke="#000000" stroke-dasharray="5,2" d="M781.3623,-179C677.3886,-179 442.875,-179 442.875,-179 442.875,-179 442.875,-205.9909 442.875,-205.9909"/>
<polygon fill="#000000" stroke="#000000" points="439.3751,-205.9909 442.875,-215.9909 446.3751,-205.991 439.3751,-205.9909"/>
</g>
<!-- ListSelectorDialog  -->
<g id="node27" class="node">
<title>ListSelectorDialog </title>
<polygon fill="#fb8072" stroke="#000000" points="381.7492,-252 256.2508,-252 256.2508,-216 381.7492,-216 381.7492,-252"/>
<text text-anchor="middle" x="319" y="-229.8" font-family="Times,serif" font-size="14.00" fill="#000000">ListSelectorDialog </text>
</g>
<!-- JS44DModule&#45;&gt;ListSelectorDialog  -->
<g id="edge26" class="edge">
<title>JS44DModule&#45;&gt;ListSelectorDialog </title>
<path fill="none" stroke="#000000" stroke-dasharray="5,2" d="M781.4463,-176C655.5577,-176 328.375,-176 328.375,-176 328.375,-176 328.375,-205.9664 328.375,-205.9664"/>
<polygon fill="#000000" stroke="#000000" points="324.8751,-205.9663 328.375,-215.9664 331.8751,-205.9664 324.8751,-205.9663"/>
</g>
<!-- Base64ImageRef  -->
<g id="node28" class="node">
<title>Base64ImageRef </title>
<polygon fill="#fb8072" stroke="#000000" points="237.9026,-252 122.0974,-252 122.0974,-216 237.9026,-216 237.9026,-252"/>
<text text-anchor="middle" x="180" y="-229.8" font-family="Times,serif" font-size="14.00" fill="#000000">Base64ImageRef </text>
</g>
<!-- JS44DModule&#45;&gt;Base64ImageRef  -->
<g id="edge27" class="edge">
<title>JS44DModule&#45;&gt;Base64ImageRef </title>
<path fill="none" stroke="#000000" stroke-dasharray="5,2" d="M781.4752,-174C632.4426,-174 191.375,-174 191.375,-174 191.375,-174 191.375,-205.998 191.375,-205.998"/>
<polygon fill="#000000" stroke="#000000" points="187.8751,-205.998 191.375,-215.998 194.8751,-205.9981 187.8751,-205.998"/>
</g>
<!-- LoginCmp  -->
<g id="node29" class="node">
<title>LoginCmp </title>
<polygon fill="#fb8072" stroke="#000000" points="104.1706,-252 23.8294,-252 23.8294,-216 104.1706,-216 104.1706,-252"/>
<text text-anchor="middle" x="64" y="-229.8" font-family="Times,serif" font-size="14.00" fill="#000000">LoginCmp </text>
</g>
<!-- JS44DModule&#45;&gt;LoginCmp  -->
<g id="edge28" class="edge">
<title>JS44DModule&#45;&gt;LoginCmp </title>
<path fill="none" stroke="#000000" stroke-dasharray="5,2" d="M781.4547,-171C614.8986,-171 76.875,-171 76.875,-171 76.875,-171 76.875,-205.7778 76.875,-205.7778"/>
<polygon fill="#000000" stroke="#000000" points="73.3751,-205.7778 76.875,-215.7778 80.3751,-205.7778 73.3751,-205.7778"/>
</g>
</g>
</svg>
