<?xml version="1.0" encoding="UTF-8" standalone="no"?>
<!DOCTYPE svg PUBLIC "-//W3C//DTD SVG 1.1//EN"
 "http://www.w3.org/Graphics/SVG/1.1/DTD/svg11.dtd">
<!-- Generated by graphviz version 2.40.1 (20161225.0304)
 -->
<!-- Title: dependencies Pages: 1 -->
<svg width="2482pt" height="284pt"
 viewBox="0.00 0.00 2482.00 284.00" xmlns="http://www.w3.org/2000/svg" xmlns:xlink="http://www.w3.org/1999/xlink">
<g id="graph0" class="graph" transform="scale(1 1) rotate(0) translate(4 280)">
<title>dependencies</title>
<polygon fill="#ffffff" stroke="transparent" points="-4,4 -4,-280 2478,-280 2478,4 -4,4"/>
<text text-anchor="start" x="1216.0091" y="-42.4" font-family="sans-serif" font-weight="bold" font-size="14.00" fill="#000000">Legend</text>
<polygon fill="#ffffb3" stroke="transparent" points="1003,-10 1003,-30 1023,-30 1023,-10 1003,-10"/>
<text text-anchor="start" x="1026.629" y="-15.4" font-family="sans-serif" font-size="14.00" fill="#000000"> &#160;Declarations</text>
<polygon fill="#8dd3c7" stroke="transparent" points="1116,-10 1116,-30 1136,-30 1136,-10 1116,-10"/>
<text text-anchor="start" x="1139.7251" y="-15.4" font-family="sans-serif" font-size="14.00" fill="#000000"> &#160;Module</text>
<polygon fill="#80b1d3" stroke="transparent" points="1202,-10 1202,-30 1222,-30 1222,-10 1202,-10"/>
<text text-anchor="start" x="1225.7812" y="-15.4" font-family="sans-serif" font-size="14.00" fill="#000000"> &#160;Bootstrap</text>
<polygon fill="#fdb462" stroke="transparent" points="1299,-10 1299,-30 1319,-30 1319,-10 1299,-10"/>
<text text-anchor="start" x="1322.6732" y="-15.4" font-family="sans-serif" font-size="14.00" fill="#000000"> &#160;Providers</text>
<polygon fill="#fb8072" stroke="transparent" points="1395,-10 1395,-30 1415,-30 1415,-10 1395,-10"/>
<text text-anchor="start" x="1418.7258" y="-15.4" font-family="sans-serif" font-size="14.00" fill="#000000"> &#160;Exports</text>
<g id="clust1" class="cluster">
<title>cluster_JS44DModule</title>
<polygon fill="none" stroke="#000000" stroke-dasharray="1,5" points="8,-70 8,-268 2466,-268 2466,-70 8,-70"/>
</g>
<g id="clust2" class="cluster">
<title>cluster_JS44DModule_declarations</title>
<polygon fill="none" stroke="#000000" points="302,-78 302,-130 2458,-130 2458,-78 302,-78"/>
</g>
<g id="clust20" class="cluster">
<title>cluster_JS44DModule_imports</title>
<polygon fill="none" stroke="#000000" points="182,-78 182,-130 294,-130 294,-78 182,-78"/>
</g>
<g id="clust21" class="cluster">
<title>cluster_JS44DModule_exports</title>
<polygon fill="none" stroke="#000000" points="182,-208 182,-260 2391,-260 2391,-208 182,-208"/>
</g>
<g id="clust23" class="cluster">
<title>cluster_JS44DModule_providers</title>
<polygon fill="none" stroke="#000000" points="16,-78 16,-130 174,-130 174,-78 16,-78"/>
</g>
<!-- AdvancedQueryComponent -->
<g id="node1" class="node">
<title>AdvancedQueryComponent</title>
<polygon fill="#ffffb3" stroke="#000000" points="2449.5646,-122 2276.4354,-122 2276.4354,-86 2449.5646,-86 2449.5646,-122"/>
<text text-anchor="middle" x="2363" y="-99.8" font-family="Times,serif" font-size="14.00" fill="#000000">AdvancedQueryComponent</text>
</g>
<!-- JS44DModule -->
<g id="node18" class="node">
<title>JS44DModule</title>
<polygon fill="#8dd3c7" stroke="#000000" points="1199.3837,-187 1196.3837,-191 1175.3837,-191 1172.3837,-187 1102.6163,-187 1102.6163,-151 1199.3837,-151 1199.3837,-187"/>
<text text-anchor="middle" x="1151" y="-164.8" font-family="Times,serif" font-size="14.00" fill="#000000">JS44DModule</text>
</g>
<!-- AdvancedQueryComponent&#45;&gt;JS44DModule -->
<g id="edge1" class="edge">
<title>AdvancedQueryComponent&#45;&gt;JS44DModule</title>
<path fill="none" stroke="#000000" d="M2329.875,-122.1061C2329.875,-141.3391 2329.875,-169 2329.875,-169 2329.875,-169 1209.4111,-169 1209.4111,-169"/>
<polygon fill="#000000" stroke="#000000" points="1209.4111,-165.5001 1199.4111,-169 1209.4111,-172.5001 1209.4111,-165.5001"/>
</g>
<!-- Base64ImageRef -->
<g id="node2" class="node">
<title>Base64ImageRef</title>
<polygon fill="#ffffb3" stroke="#000000" points="2258.4033,-122 2145.5967,-122 2145.5967,-86 2258.4033,-86 2258.4033,-122"/>
<text text-anchor="middle" x="2202" y="-99.8" font-family="Times,serif" font-size="14.00" fill="#000000">Base64ImageRef</text>
</g>
<!-- Base64ImageRef&#45;&gt;JS44DModule -->
<g id="edge2" class="edge">
<title>Base64ImageRef&#45;&gt;JS44DModule</title>
<path fill="none" stroke="#000000" d="M2167.375,-122.2222C2167.375,-140.8285 2167.375,-167 2167.375,-167 2167.375,-167 1209.6795,-167 1209.6795,-167"/>
<polygon fill="#000000" stroke="#000000" points="1209.6795,-163.5001 1199.6795,-167 1209.6794,-170.5001 1209.6795,-163.5001"/>
</g>
<!-- CustomButtonBarDirective -->
<g id="node3" class="node">
<title>CustomButtonBarDirective</title>
<polygon fill="#ffffb3" stroke="#000000" points="2127.9748,-122 1958.0252,-122 1958.0252,-86 2127.9748,-86 2127.9748,-122"/>
<text text-anchor="middle" x="2043" y="-99.8" font-family="Times,serif" font-size="14.00" fill="#000000">CustomButtonBarDirective</text>
</g>
<!-- CustomButtonBarDirective&#45;&gt;JS44DModule -->
<g id="edge3" class="edge">
<title>CustomButtonBarDirective&#45;&gt;JS44DModule</title>
<path fill="none" stroke="#000000" d="M2006.375,-122.302C2006.375,-140.2699 2006.375,-165 2006.375,-165 2006.375,-165 1209.4395,-165 1209.4395,-165"/>
<polygon fill="#000000" stroke="#000000" points="1209.4395,-161.5001 1199.4395,-165 1209.4395,-168.5001 1209.4395,-161.5001"/>
</g>
<!-- DataGrid -->
<g id="node4" class="node">
<title>DataGrid</title>
<polygon fill="#ffffb3" stroke="#000000" points="1940.0843,-122 1871.9157,-122 1871.9157,-86 1940.0843,-86 1940.0843,-122"/>
<text text-anchor="middle" x="1906" y="-99.8" font-family="Times,serif" font-size="14.00" fill="#000000">DataGrid</text>
</g>
<!-- DataGrid&#45;&gt;JS44DModule -->
<g id="edge4" class="edge">
<title>DataGrid&#45;&gt;JS44DModule</title>
<path fill="none" stroke="#000000" d="M1876.6103,-122.0225C1876.6103,-139.3734 1876.6103,-163 1876.6103,-163 1876.6103,-163 1209.4533,-163 1209.4533,-163"/>
<polygon fill="#000000" stroke="#000000" points="1209.4533,-159.5001 1199.4533,-163 1209.4533,-166.5001 1209.4533,-159.5001"/>
</g>
<!-- FourDDateToString -->
<g id="node5" class="node">
<title>FourDDateToString</title>
<polygon fill="#ffffb3" stroke="#000000" points="1854.2534,-122 1725.7466,-122 1725.7466,-86 1854.2534,-86 1854.2534,-122"/>
<text text-anchor="middle" x="1790" y="-99.8" font-family="Times,serif" font-size="14.00" fill="#000000">FourDDateToString</text>
</g>
<!-- FourDDateToString&#45;&gt;JS44DModule -->
<g id="edge5" class="edge">
<title>FourDDateToString&#45;&gt;JS44DModule</title>
<path fill="none" stroke="#000000" d="M1749.375,-122.027C1749.375,-138.3976 1749.375,-160 1749.375,-160 1749.375,-160 1209.4607,-160 1209.4607,-160"/>
<polygon fill="#000000" stroke="#000000" points="1209.4607,-156.5001 1199.4607,-160 1209.4606,-163.5001 1209.4607,-156.5001"/>
</g>
<!-- FourDDropDown -->
<g id="node6" class="node">
<title>FourDDropDown</title>
<polygon fill="#ffffb3" stroke="#000000" points="1707.5312,-122 1592.4688,-122 1592.4688,-86 1707.5312,-86 1707.5312,-122"/>
<text text-anchor="middle" x="1650" y="-99.8" font-family="Times,serif" font-size="14.00" fill="#000000">FourDDropDown</text>
</g>
<!-- FourDDropDown&#45;&gt;JS44DModule -->
<g id="edge6" class="edge">
<title>FourDDropDown&#45;&gt;JS44DModule</title>
<path fill="none" stroke="#000000" d="M1607.375,-122.2819C1607.375,-137.9478 1607.375,-158 1607.375,-158 1607.375,-158 1209.4081,-158 1209.4081,-158"/>
<polygon fill="#000000" stroke="#000000" points="1209.4081,-154.5001 1199.4081,-158 1209.408,-161.5001 1209.4081,-154.5001"/>
</g>
<!-- FourDRegistryInput -->
<g id="node7" class="node">
<title>FourDRegistryInput</title>
<polygon fill="#ffffb3" stroke="#000000" points="1573.5394,-122 1444.4606,-122 1444.4606,-86 1573.5394,-86 1573.5394,-122"/>
<text text-anchor="middle" x="1509" y="-99.8" font-family="Times,serif" font-size="14.00" fill="#000000">FourDRegistryInput</text>
</g>
<!-- FourDRegistryInput&#45;&gt;JS44DModule -->
<g id="edge7" class="edge">
<title>FourDRegistryInput&#45;&gt;JS44DModule</title>
<path fill="none" stroke="#000000" d="M1464.875,-122.1871C1464.875,-137.1824 1464.875,-156 1464.875,-156 1464.875,-156 1209.6986,-156 1209.6986,-156"/>
<polygon fill="#000000" stroke="#000000" points="1209.6986,-152.5001 1199.6986,-156 1209.6985,-159.5001 1209.6986,-152.5001"/>
</g>
<!-- ListSelectorDialog -->
<g id="node8" class="node">
<title>ListSelectorDialog</title>
<polygon fill="#ffffb3" stroke="#000000" points="1425.7493,-122 1304.2507,-122 1304.2507,-86 1425.7493,-86 1425.7493,-122"/>
<text text-anchor="middle" x="1365" y="-99.8" font-family="Times,serif" font-size="14.00" fill="#000000">ListSelectorDialog</text>
</g>
<!-- ListSelectorDialog&#45;&gt;JS44DModule -->
<g id="edge8" class="edge">
<title>ListSelectorDialog&#45;&gt;JS44DModule</title>
<path fill="none" stroke="#000000" d="M1319.375,-122.0511C1319.375,-136.373 1319.375,-154 1319.375,-154 1319.375,-154 1209.701,-154 1209.701,-154"/>
<polygon fill="#000000" stroke="#000000" points="1209.7011,-150.5001 1199.701,-154 1209.701,-157.5001 1209.7011,-150.5001"/>
</g>
<!-- LoginCmp -->
<g id="node9" class="node">
<title>LoginCmp</title>
<polygon fill="#ffffb3" stroke="#000000" points="1286.1711,-122 1209.8289,-122 1209.8289,-86 1286.1711,-86 1286.1711,-122"/>
<text text-anchor="middle" x="1248" y="-99.8" font-family="Times,serif" font-size="14.00" fill="#000000">LoginCmp</text>
</g>
<!-- LoginCmp&#45;&gt;JS44DModule -->
<g id="edge9" class="edge">
<title>LoginCmp&#45;&gt;JS44DModule</title>
<path fill="none" stroke="#000000" d="M1209.7399,-104C1201.575,-104 1195.3542,-104 1195.3542,-104 1195.3542,-104 1195.3542,-140.8939 1195.3542,-140.8939"/>
<polygon fill="#000000" stroke="#000000" points="1191.8542,-140.8938 1195.3542,-150.8939 1198.8542,-140.8939 1191.8542,-140.8938"/>
</g>
<!-- QueryBand -->
<g id="node10" class="node">
<title>QueryBand</title>
<polygon fill="#ffffb3" stroke="#000000" points="1191.0343,-122 1110.9657,-122 1110.9657,-86 1191.0343,-86 1191.0343,-122"/>
<text text-anchor="middle" x="1151" y="-99.8" font-family="Times,serif" font-size="14.00" fill="#000000">QueryBand</text>
</g>
<!-- QueryBand&#45;&gt;JS44DModule -->
<g id="edge10" class="edge">
<title>QueryBand&#45;&gt;JS44DModule</title>
<path fill="none" stroke="#000000" d="M1151,-122.1061C1151,-122.1061 1151,-140.991 1151,-140.991"/>
<polygon fill="#000000" stroke="#000000" points="1147.5001,-140.9909 1151,-150.991 1154.5001,-140.991 1147.5001,-140.9909"/>
</g>
<!-- QueryBandDirective -->
<g id="node11" class="node">
<title>QueryBandDirective</title>
<polygon fill="#ffffb3" stroke="#000000" points="1092.1164,-122 959.8836,-122 959.8836,-86 1092.1164,-86 1092.1164,-122"/>
<text text-anchor="middle" x="1026" y="-99.8" font-family="Times,serif" font-size="14.00" fill="#000000">QueryBandDirective</text>
</g>
<!-- QueryBandDirective&#45;&gt;JS44DModule -->
<g id="edge11" class="edge">
<title>QueryBandDirective&#45;&gt;JS44DModule</title>
<path fill="none" stroke="#000000" d="M1092.228,-104C1100.7872,-104 1106.6458,-104 1106.6458,-104 1106.6458,-104 1106.6458,-140.8939 1106.6458,-140.8939"/>
<polygon fill="#000000" stroke="#000000" points="1103.1459,-140.8938 1106.6458,-150.8939 1110.1459,-140.8939 1103.1459,-140.8938"/>
</g>
<!-- QuickFindInput -->
<g id="node12" class="node">
<title>QuickFindInput</title>
<polygon fill="#ffffb3" stroke="#000000" points="941.9371,-122 836.0629,-122 836.0629,-86 941.9371,-86 941.9371,-122"/>
<text text-anchor="middle" x="889" y="-99.8" font-family="Times,serif" font-size="14.00" fill="#000000">QuickFindInput</text>
</g>
<!-- QuickFindInput&#45;&gt;JS44DModule -->
<g id="edge12" class="edge">
<title>QuickFindInput&#45;&gt;JS44DModule</title>
<path fill="none" stroke="#000000" d="M898.3301,-122.0511C898.3301,-136.373 898.3301,-154 898.3301,-154 898.3301,-154 1092.5817,-154 1092.5817,-154"/>
<polygon fill="#000000" stroke="#000000" points="1092.5817,-157.5001 1102.5817,-154 1092.5816,-150.5001 1092.5817,-157.5001"/>
</g>
<!-- RecordEditWindow -->
<g id="node13" class="node">
<title>RecordEditWindow</title>
<polygon fill="#ffffb3" stroke="#000000" points="817.972,-122 690.028,-122 690.028,-86 817.972,-86 817.972,-122"/>
<text text-anchor="middle" x="754" y="-99.8" font-family="Times,serif" font-size="14.00" fill="#000000">RecordEditWindow</text>
</g>
<!-- RecordEditWindow&#45;&gt;JS44DModule -->
<g id="edge13" class="edge">
<title>RecordEditWindow&#45;&gt;JS44DModule</title>
<path fill="none" stroke="#000000" d="M772.7589,-122.1871C772.7589,-137.1824 772.7589,-156 772.7589,-156 772.7589,-156 1092.3259,-156 1092.3259,-156"/>
<polygon fill="#000000" stroke="#000000" points="1092.326,-159.5001 1102.3259,-156 1092.3259,-152.5001 1092.326,-159.5001"/>
</g>
<!-- RecordList -->
<g id="node14" class="node">
<title>RecordList</title>
<polygon fill="#ffffb3" stroke="#000000" points="672.2051,-122 593.7949,-122 593.7949,-86 672.2051,-86 672.2051,-122"/>
<text text-anchor="middle" x="633" y="-99.8" font-family="Times,serif" font-size="14.00" fill="#000000">RecordList</text>
</g>
<!-- RecordList&#45;&gt;JS44DModule -->
<g id="edge14" class="edge">
<title>RecordList&#45;&gt;JS44DModule</title>
<path fill="none" stroke="#000000" d="M633,-122.2819C633,-137.9478 633,-158 633,-158 633,-158 1092.2678,-158 1092.2678,-158"/>
<polygon fill="#000000" stroke="#000000" points="1092.2679,-161.5001 1102.2678,-158 1092.2678,-154.5001 1092.2679,-161.5001"/>
</g>
<!-- Tab -->
<g id="node15" class="node">
<title>Tab</title>
<polygon fill="#ffffb3" stroke="#000000" points="576,-122 522,-122 522,-86 576,-86 576,-122"/>
<text text-anchor="middle" x="549" y="-99.8" font-family="Times,serif" font-size="14.00" fill="#000000">Tab</text>
</g>
<!-- Tab&#45;&gt;JS44DModule -->
<g id="edge15" class="edge">
<title>Tab&#45;&gt;JS44DModule</title>
<path fill="none" stroke="#000000" d="M567.9262,-122.027C567.9262,-138.3976 567.9262,-160 567.9262,-160 567.9262,-160 1092.2903,-160 1092.2903,-160"/>
<polygon fill="#000000" stroke="#000000" points="1092.2904,-163.5001 1102.2903,-160 1092.2903,-156.5001 1092.2904,-163.5001"/>
</g>
<!-- Tabs -->
<g id="node16" class="node">
<title>Tabs</title>
<polygon fill="#ffffb3" stroke="#000000" points="504,-122 450,-122 450,-86 504,-86 504,-122"/>
<text text-anchor="middle" x="477" y="-99.8" font-family="Times,serif" font-size="14.00" fill="#000000">Tabs</text>
</g>
<!-- Tabs&#45;&gt;JS44DModule -->
<g id="edge16" class="edge">
<title>Tabs&#45;&gt;JS44DModule</title>
<path fill="none" stroke="#000000" d="M491.0738,-122.0225C491.0738,-139.3734 491.0738,-163 491.0738,-163 491.0738,-163 1092.4741,-163 1092.4741,-163"/>
<polygon fill="#000000" stroke="#000000" points="1092.4741,-166.5001 1102.4741,-163 1092.474,-159.5001 1092.4741,-166.5001"/>
</g>
<!-- WebAppContainer -->
<g id="node17" class="node">
<title>WebAppContainer</title>
<polygon fill="#ffffb3" stroke="#000000" points="431.7437,-122 310.2563,-122 310.2563,-86 431.7437,-86 431.7437,-122"/>
<text text-anchor="middle" x="371" y="-99.8" font-family="Times,serif" font-size="14.00" fill="#000000">WebAppContainer</text>
</g>
<!-- WebAppContainer&#45;&gt;JS44DModule -->
<g id="edge17" class="edge">
<title>WebAppContainer&#45;&gt;JS44DModule</title>
<path fill="none" stroke="#000000" d="M418.9358,-122.302C418.9358,-140.2699 418.9358,-165 418.9358,-165 418.9358,-165 1092.4003,-165 1092.4003,-165"/>
<polygon fill="#000000" stroke="#000000" points="1092.4003,-168.5001 1102.4003,-165 1092.4003,-161.5001 1092.4003,-168.5001"/>
</g>
<!-- AdvancedQueryComponent  -->
<g id="node20" class="node">
<title>AdvancedQueryComponent </title>
<polygon fill="#fb8072" stroke="#000000" points="2383.0651,-252 2206.9349,-252 2206.9349,-216 2383.0651,-216 2383.0651,-252"/>
<text text-anchor="middle" x="2295" y="-229.8" font-family="Times,serif" font-size="14.00" fill="#000000">AdvancedQueryComponent </text>
</g>
<!-- JS44DModule&#45;&gt;AdvancedQueryComponent  -->
<g id="edge19" class="edge">
<title>JS44DModule&#45;&gt;AdvancedQueryComponent </title>
<path fill="none" stroke="#000000" stroke-dasharray="5,2" d="M1199.569,-172C1410.0024,-172 2232.4595,-172 2232.4595,-172 2232.4595,-172 2232.4595,-205.7333 2232.4595,-205.7333"/>
<polygon fill="#000000" stroke="#000000" points="2228.9596,-205.7333 2232.4595,-215.7333 2235.9596,-205.7333 2228.9596,-205.7333"/>
</g>
<!-- Base64ImageRef  -->
<g id="node21" class="node">
<title>Base64ImageRef </title>
<polygon fill="#fb8072" stroke="#000000" points="2188.9026,-252 2073.0974,-252 2073.0974,-216 2188.9026,-216 2188.9026,-252"/>
<text text-anchor="middle" x="2131" y="-229.8" font-family="Times,serif" font-size="14.00" fill="#000000">Base64ImageRef </text>
</g>
<!-- JS44DModule&#45;&gt;Base64ImageRef  -->
<g id="edge20" class="edge">
<title>JS44DModule&#45;&gt;Base64ImageRef </title>
<path fill="none" stroke="#000000" stroke-dasharray="5,2" d="M1199.3921,-174C1392.8854,-174 2100.5181,-174 2100.5181,-174 2100.5181,-174 2100.5181,-205.998 2100.5181,-205.998"/>
<polygon fill="#000000" stroke="#000000" points="2097.0181,-205.998 2100.5181,-215.998 2104.0181,-205.9981 2097.0181,-205.998"/>
</g>
<!-- CustomButtonBarDirective  -->
<g id="node22" class="node">
<title>CustomButtonBarDirective </title>
<polygon fill="#fb8072" stroke="#000000" points="2054.9755,-252 1881.0245,-252 1881.0245,-216 2054.9755,-216 2054.9755,-252"/>
<text text-anchor="middle" x="1968" y="-229.8" font-family="Times,serif" font-size="14.00" fill="#000000">CustomButtonBarDirective </text>
</g>
<!-- JS44DModule&#45;&gt;CustomButtonBarDirective  -->
<g id="edge21" class="edge">
<title>JS44DModule&#45;&gt;CustomButtonBarDirective </title>
<path fill="none" stroke="#000000" stroke-dasharray="5,2" d="M1199.3852,-176C1366.711,-176 1910.6524,-176 1910.6524,-176 1910.6524,-176 1910.6524,-205.9664 1910.6524,-205.9664"/>
<polygon fill="#000000" stroke="#000000" points="1907.1524,-205.9663 1910.6524,-215.9664 1914.1524,-205.9664 1907.1524,-205.9663"/>
</g>
<!-- DataGrid  -->
<g id="node23" class="node">
<title>DataGrid </title>
<polygon fill="#fb8072" stroke="#000000" points="1862.5854,-252 1791.4146,-252 1791.4146,-216 1862.5854,-216 1862.5854,-252"/>
<text text-anchor="middle" x="1827" y="-229.8" font-family="Times,serif" font-size="14.00" fill="#000000">DataGrid </text>
</g>
<!-- JS44DModule&#45;&gt;DataGrid  -->
<g id="edge22" class="edge">
<title>JS44DModule&#45;&gt;DataGrid </title>
<path fill="none" stroke="#000000" stroke-dasharray="5,2" d="M1199.5839,-178C1353.8978,-178 1822.7923,-178 1822.7923,-178 1822.7923,-178 1822.7923,-205.973 1822.7923,-205.973"/>
<polygon fill="#000000" stroke="#000000" points="1819.2923,-205.973 1822.7923,-215.973 1826.2923,-205.973 1819.2923,-205.973"/>
</g>
<!-- FourDDateToString  -->
<g id="node24" class="node">
<title>FourDDateToString </title>
<polygon fill="#fb8072" stroke="#000000" points="1773.2534,-252 1640.7466,-252 1640.7466,-216 1773.2534,-216 1773.2534,-252"/>
<text text-anchor="middle" x="1707" y="-229.8" font-family="Times,serif" font-size="14.00" fill="#000000">FourDDateToString </text>
</g>
<!-- JS44DModule&#45;&gt;FourDDateToString  -->
<g id="edge23" class="edge">
<title>JS44DModule&#45;&gt;FourDDateToString </title>
<path fill="none" stroke="#000000" stroke-dasharray="5,2" d="M1199.7627,-181C1329.6767,-181 1674.3193,-181 1674.3193,-181 1674.3193,-181 1674.3193,-205.7604 1674.3193,-205.7604"/>
<polygon fill="#000000" stroke="#000000" points="1670.8193,-205.7604 1674.3193,-215.7604 1677.8193,-205.7604 1670.8193,-205.7604"/>
</g>
<!-- FourDDropDown  -->
<g id="node25" class="node">
<title>FourDDropDown </title>
<polygon fill="#fb8072" stroke="#000000" points="1622.5302,-252 1503.4698,-252 1503.4698,-216 1622.5302,-216 1622.5302,-252"/>
<text text-anchor="middle" x="1563" y="-229.8" font-family="Times,serif" font-size="14.00" fill="#000000">FourDDropDown </text>
</g>
<!-- JS44DModule&#45;&gt;FourDDropDown  -->
<g id="edge24" class="edge">
<title>JS44DModule&#45;&gt;FourDDropDown </title>
<path fill="none" stroke="#000000" stroke-dasharray="5,2" d="M1199.7007,-183C1303.8094,-183 1538.6271,-183 1538.6271,-183 1538.6271,-183 1538.6271,-205.8757 1538.6271,-205.8757"/>
<polygon fill="#000000" stroke="#000000" points="1535.1272,-205.8757 1538.6271,-215.8757 1542.1272,-205.8757 1535.1272,-205.8757"/>
</g>
<!-- FourDRegistryInput  -->
<g id="node26" class="node">
<title>FourDRegistryInput </title>
<polygon fill="#fb8072" stroke="#000000" points="1485.5386,-252 1352.4614,-252 1352.4614,-216 1485.5386,-216 1485.5386,-252"/>
<text text-anchor="middle" x="1419" y="-229.8" font-family="Times,serif" font-size="14.00" fill="#000000">FourDRegistryInput </text>
</g>
<!-- JS44DModule&#45;&gt;FourDRegistryInput  -->
<g id="edge25" class="edge">
<title>JS44DModule&#45;&gt;FourDRegistryInput </title>
<path fill="none" stroke="#000000" stroke-dasharray="5,2" d="M1199.4859,-185C1269.1255,-185 1389.1776,-185 1389.1776,-185 1389.1776,-185 1389.1776,-205.7542 1389.1776,-205.7542"/>
<polygon fill="#000000" stroke="#000000" points="1385.6777,-205.7542 1389.1776,-215.7542 1392.6777,-205.7542 1385.6777,-205.7542"/>
</g>
<!-- ListSelectorDialog  -->
<g id="node27" class="node">
<title>ListSelectorDialog </title>
<polygon fill="#fb8072" stroke="#000000" points="1334.7492,-252 1209.2508,-252 1209.2508,-216 1334.7492,-216 1334.7492,-252"/>
<text text-anchor="middle" x="1272" y="-229.8" font-family="Times,serif" font-size="14.00" fill="#000000">ListSelectorDialog </text>
</g>
<!-- JS44DModule&#45;&gt;ListSelectorDialog  -->
<g id="edge26" class="edge">
<title>JS44DModule&#45;&gt;ListSelectorDialog </title>
<path fill="none" stroke="#000000" stroke-dasharray="5,2" d="M1195.2635,-187.1061C1195.2635,-206.3391 1195.2635,-234 1195.2635,-234 1195.2635,-234 1199.3382,-234 1199.3382,-234"/>
<polygon fill="#000000" stroke="#000000" points="1199.3382,-237.5001 1209.3382,-234 1199.3381,-230.5001 1199.3382,-237.5001"/>
</g>
<!-- LoginCmp  -->
<g id="node28" class="node">
<title>LoginCmp </title>
<polygon fill="#fb8072" stroke="#000000" points="1191.1706,-252 1110.8294,-252 1110.8294,-216 1191.1706,-216 1191.1706,-252"/>
<text text-anchor="middle" x="1151" y="-229.8" font-family="Times,serif" font-size="14.00" fill="#000000">LoginCmp </text>
</g>
<!-- JS44DModule&#45;&gt;LoginCmp  -->
<g id="edge27" class="edge">
<title>JS44DModule&#45;&gt;LoginCmp </title>
<path fill="none" stroke="#000000" stroke-dasharray="5,2" d="M1151,-187.1061C1151,-187.1061 1151,-205.991 1151,-205.991"/>
<polygon fill="#000000" stroke="#000000" points="1147.5001,-205.9909 1151,-215.991 1154.5001,-205.991 1147.5001,-205.9909"/>
</g>
<!-- QueryBand  -->
<g id="node29" class="node">
<title>QueryBand </title>
<polygon fill="#fb8072" stroke="#000000" points="1093.033,-252 1008.967,-252 1008.967,-216 1093.033,-216 1093.033,-252"/>
<text text-anchor="middle" x="1051" y="-229.8" font-family="Times,serif" font-size="14.00" fill="#000000">QueryBand </text>
</g>
<!-- JS44DModule&#45;&gt;QueryBand  -->
<g id="edge28" class="edge">
<title>JS44DModule&#45;&gt;QueryBand </title>
<path fill="none" stroke="#000000" stroke-dasharray="5,2" d="M1106.7365,-187.1061C1106.7365,-206.3391 1106.7365,-234 1106.7365,-234 1106.7365,-234 1103.2442,-234 1103.2442,-234"/>
<polygon fill="#000000" stroke="#000000" points="1103.2443,-230.5001 1093.2442,-234 1103.2442,-237.5001 1103.2443,-230.5001"/>
</g>
<!-- QueryBandDirective  -->
<g id="node30" class="node">
<title>QueryBandDirective </title>
<polygon fill="#fb8072" stroke="#000000" points="991.1158,-252 854.8842,-252 854.8842,-216 991.1158,-216 991.1158,-252"/>
<text text-anchor="middle" x="923" y="-229.8" font-family="Times,serif" font-size="14.00" fill="#000000">QueryBandDirective </text>
</g>
<!-- JS44DModule&#45;&gt;QueryBandDirective  -->
<g id="edge29" class="edge">
<title>JS44DModule&#45;&gt;QueryBandDirective </title>
<path fill="none" stroke="#000000" stroke-dasharray="5,2" d="M1102.5448,-185C1050.5608,-185 975.375,-185 975.375,-185 975.375,-185 975.375,-205.7542 975.375,-205.7542"/>
<polygon fill="#000000" stroke="#000000" points="971.8751,-205.7542 975.375,-215.7542 978.8751,-205.7542 971.8751,-205.7542"/>
</g>
<!-- QuickFindInput  -->
<g id="node31" class="node">
<title>QuickFindInput </title>
<polygon fill="#fb8072" stroke="#000000" points="836.4362,-252 727.5638,-252 727.5638,-216 836.4362,-216 836.4362,-252"/>
<text text-anchor="middle" x="782" y="-229.8" font-family="Times,serif" font-size="14.00" fill="#000000">QuickFindInput </text>
</g>
<!-- JS44DModule&#45;&gt;QuickFindInput  -->
<g id="edge30" class="edge">
<title>JS44DModule&#45;&gt;QuickFindInput </title>
<path fill="none" stroke="#000000" stroke-dasharray="5,2" d="M1102.514,-183C1012.1662,-183 827.1339,-183 827.1339,-183 827.1339,-183 827.1339,-205.8757 827.1339,-205.8757"/>
<polygon fill="#000000" stroke="#000000" points="823.634,-205.8757 827.1339,-215.8757 830.634,-205.8757 823.634,-205.8757"/>
</g>
<!-- RecordEditWindow  -->
<g id="node32" class="node">
<title>RecordEditWindow </title>
<polygon fill="#fb8072" stroke="#000000" points="709.9729,-252 578.0271,-252 578.0271,-216 709.9729,-216 709.9729,-252"/>
<text text-anchor="middle" x="644" y="-229.8" font-family="Times,serif" font-size="14.00" fill="#000000">RecordEditWindow </text>
</g>
<!-- JS44DModule&#45;&gt;RecordEditWindow  -->
<g id="edge31" class="edge">
<title>JS44DModule&#45;&gt;RecordEditWindow </title>
<path fill="none" stroke="#000000" stroke-dasharray="5,2" d="M1102.2931,-181C985.6421,-181 699.875,-181 699.875,-181 699.875,-181 699.875,-205.7604 699.875,-205.7604"/>
<polygon fill="#000000" stroke="#000000" points="696.3751,-205.7604 699.875,-215.7604 703.3751,-205.7604 696.3751,-205.7604"/>
</g>
<!-- RecordList  -->
<g id="node33" class="node">
<title>RecordList </title>
<polygon fill="#fb8072" stroke="#000000" points="559.7053,-252 478.2947,-252 478.2947,-216 559.7053,-216 559.7053,-252"/>
<text text-anchor="middle" x="519" y="-229.8" font-family="Times,serif" font-size="14.00" fill="#000000">RecordList </text>
</g>
<!-- JS44DModule&#45;&gt;RecordList  -->
<g id="edge32" class="edge">
<title>JS44DModule&#45;&gt;RecordList </title>
<path fill="none" stroke="#000000" stroke-dasharray="5,2" d="M1102.3628,-178C957.8305,-178 540.9262,-178 540.9262,-178 540.9262,-178 540.9262,-205.973 540.9262,-205.973"/>
<polygon fill="#000000" stroke="#000000" points="537.4263,-205.973 540.9262,-215.973 544.4263,-205.973 537.4263,-205.973"/>
</g>
<!-- Tab  -->
<g id="node34" class="node">
<title>Tab </title>
<polygon fill="#fb8072" stroke="#000000" points="460,-252 406,-252 406,-216 460,-216 460,-252"/>
<text text-anchor="middle" x="433" y="-229.8" font-family="Times,serif" font-size="14.00" fill="#000000">Tab </text>
</g>
<!-- JS44DModule&#45;&gt;Tab  -->
<g id="edge33" class="edge">
<title>JS44DModule&#45;&gt;Tab </title>
<path fill="none" stroke="#000000" stroke-dasharray="5,2" d="M1102.6112,-176C944.7739,-176 455,-176 455,-176 455,-176 455,-205.9664 455,-205.9664"/>
<polygon fill="#000000" stroke="#000000" points="451.5001,-205.9663 455,-215.9664 458.5001,-205.9664 451.5001,-205.9663"/>
</g>
<!-- Tabs  -->
<g id="node35" class="node">
<title>Tabs </title>
<polygon fill="#fb8072" stroke="#000000" points="388,-252 334,-252 334,-216 388,-216 388,-252"/>
<text text-anchor="middle" x="361" y="-229.8" font-family="Times,serif" font-size="14.00" fill="#000000">Tabs </text>
</g>
<!-- JS44DModule&#45;&gt;Tabs  -->
<g id="edge34" class="edge">
<title>JS44DModule&#45;&gt;Tabs </title>
<path fill="none" stroke="#000000" stroke-dasharray="5,2" d="M1102.4751,-174C930.5952,-174 361,-174 361,-174 361,-174 361,-205.998 361,-205.998"/>
<polygon fill="#000000" stroke="#000000" points="357.5001,-205.998 361,-215.998 364.5001,-205.9981 357.5001,-205.998"/>
</g>
<!-- WebAppContainer  -->
<g id="node36" class="node">
<title>WebAppContainer </title>
<polygon fill="#fb8072" stroke="#000000" points="315.7436,-252 190.2564,-252 190.2564,-216 315.7436,-216 315.7436,-252"/>
<text text-anchor="middle" x="253" y="-229.8" font-family="Times,serif" font-size="14.00" fill="#000000">WebAppContainer </text>
</g>
<!-- JS44DModule&#45;&gt;WebAppContainer  -->
<g id="edge35" class="edge">
<title>JS44DModule&#45;&gt;WebAppContainer </title>
<path fill="none" stroke="#000000" stroke-dasharray="5,2" d="M1102.3907,-172C921.5598,-172 298.0891,-172 298.0891,-172 298.0891,-172 298.0891,-205.7333 298.0891,-205.7333"/>
<polygon fill="#000000" stroke="#000000" points="294.5891,-205.7333 298.0891,-215.7333 301.5891,-205.7333 294.5891,-205.7333"/>
</g>
<!-- FourDModule -->
<g id="node19" class="node">
<title>FourDModule</title>
<polygon fill="#8dd3c7" stroke="#000000" points="286.0997,-122 283.0997,-126 262.0997,-126 259.0997,-122 189.9003,-122 189.9003,-86 286.0997,-86 286.0997,-122"/>
<text text-anchor="middle" x="238" y="-99.8" font-family="Times,serif" font-size="14.00" fill="#000000">FourDModule</text>
</g>
<!-- FourDModule&#45;&gt;JS44DModule -->
<g id="edge18" class="edge">
<title>FourDModule&#45;&gt;JS44DModule</title>
<path fill="none" stroke="#000000" d="M238.2141,-122.2222C238.2141,-140.8285 238.2141,-167 238.2141,-167 238.2141,-167 1092.5691,-167 1092.5691,-167"/>
<polygon fill="#000000" stroke="#000000" points="1092.5692,-170.5001 1102.5691,-167 1092.5691,-163.5001 1092.5692,-170.5001"/>
</g>
<!-- FourDInterface -->
<g id="node37" class="node">
<title>FourDInterface</title>
<ellipse fill="#fdb462" stroke="#000000" cx="95" cy="-104" rx="70.6026" ry="18"/>
<text text-anchor="middle" x="95" y="-99.8" font-family="Times,serif" font-size="14.00" fill="#000000">FourDInterface</text>
</g>
<!-- FourDInterface&#45;&gt;JS44DModule -->
<g id="edge36" class="edge">
<title>FourDInterface&#45;&gt;JS44DModule</title>
<path fill="none" stroke="#000000" d="M95,-122.1061C95,-141.3391 95,-169 95,-169 95,-169 1092.5339,-169 1092.5339,-169"/>
<polygon fill="#000000" stroke="#000000" points="1092.5339,-172.5001 1102.5339,-169 1092.5338,-165.5001 1092.5339,-172.5001"/>
</g>
</g>
</svg>
