<?xml version="1.0" encoding="UTF-8" standalone="no"?>
<!DOCTYPE svg PUBLIC "-//W3C//DTD SVG 1.1//EN"
 "http://www.w3.org/Graphics/SVG/1.1/DTD/svg11.dtd">
<!-- Generated by graphviz version 2.40.1 (20161225.0304)
 -->
<!-- Title: dependencies Pages: 1 -->
<svg width="2036pt" height="284pt"
 viewBox="0.00 0.00 2036.00 284.00" xmlns="http://www.w3.org/2000/svg" xmlns:xlink="http://www.w3.org/1999/xlink">
<g id="graph0" class="graph" transform="scale(1 1) rotate(0) translate(4 280)">
<title>dependencies</title>
<polygon fill="#ffffff" stroke="transparent" points="-4,4 -4,-280 2032,-280 2032,4 -4,4"/>
<text text-anchor="start" x="993.0091" y="-42.4" font-family="sans-serif" font-weight="bold" font-size="14.00" fill="#000000">Legend</text>
<polygon fill="#ffffb3" stroke="transparent" points="780,-10 780,-30 800,-30 800,-10 780,-10"/>
<text text-anchor="start" x="803.629" y="-15.4" font-family="sans-serif" font-size="14.00" fill="#000000"> &#160;Declarations</text>
<polygon fill="#8dd3c7" stroke="transparent" points="893,-10 893,-30 913,-30 913,-10 893,-10"/>
<text text-anchor="start" x="916.7251" y="-15.4" font-family="sans-serif" font-size="14.00" fill="#000000"> &#160;Module</text>
<polygon fill="#80b1d3" stroke="transparent" points="979,-10 979,-30 999,-30 999,-10 979,-10"/>
<text text-anchor="start" x="1002.7812" y="-15.4" font-family="sans-serif" font-size="14.00" fill="#000000"> &#160;Bootstrap</text>
<polygon fill="#fdb462" stroke="transparent" points="1076,-10 1076,-30 1096,-30 1096,-10 1076,-10"/>
<text text-anchor="start" x="1099.6732" y="-15.4" font-family="sans-serif" font-size="14.00" fill="#000000"> &#160;Providers</text>
<polygon fill="#fb8072" stroke="transparent" points="1172,-10 1172,-30 1192,-30 1192,-10 1172,-10"/>
<text text-anchor="start" x="1195.7258" y="-15.4" font-family="sans-serif" font-size="14.00" fill="#000000"> &#160;Exports</text>
<g id="clust1" class="cluster">
<title>cluster_JS44DModule</title>
<polygon fill="none" stroke="#000000" stroke-dasharray="1,5" points="8,-70 8,-268 2020,-268 2020,-70 8,-70"/>
</g>
<g id="clust2" class="cluster">
<title>cluster_JS44DModule_declarations</title>
<polygon fill="none" stroke="#000000" points="302,-78 302,-130 2012,-130 2012,-78 302,-78"/>
</g>
<g id="clust17" class="cluster">
<title>cluster_JS44DModule_imports</title>
<polygon fill="none" stroke="#000000" points="182,-78 182,-130 294,-130 294,-78 182,-78"/>
</g>
<g id="clust18" class="cluster">
<title>cluster_JS44DModule_exports</title>
<polygon fill="none" stroke="#000000" points="147,-208 147,-260 1899,-260 1899,-208 147,-208"/>
</g>
<g id="clust20" class="cluster">
<title>cluster_JS44DModule_providers</title>
<polygon fill="none" stroke="#000000" points="16,-78 16,-130 174,-130 174,-78 16,-78"/>
</g>
<!-- QueryBand -->
<g id="node1" class="node">
<title>QueryBand</title>
<polygon fill="#ffffb3" stroke="#000000" points="2004.0343,-122 1923.9657,-122 1923.9657,-86 2004.0343,-86 2004.0343,-122"/>
<text text-anchor="middle" x="1964" y="-99.8" font-family="Times,serif" font-size="14.00" fill="#000000">QueryBand</text>
</g>
<!-- JS44DModule -->
<g id="node15" class="node">
<title>JS44DModule</title>
<polygon fill="#8dd3c7" stroke="#000000" points="1048.3837,-187 1045.3837,-191 1024.3837,-191 1021.3837,-187 951.6163,-187 951.6163,-151 1048.3837,-151 1048.3837,-187"/>
<text text-anchor="middle" x="1000" y="-164.8" font-family="Times,serif" font-size="14.00" fill="#000000">JS44DModule</text>
</g>
<!-- QueryBand&#45;&gt;JS44DModule -->
<g id="edge1" class="edge">
<title>QueryBand&#45;&gt;JS44DModule</title>
<path fill="none" stroke="#000000" d="M1964,-122.1061C1964,-141.3391 1964,-169 1964,-169 1964,-169 1058.4656,-169 1058.4656,-169"/>
<polygon fill="#000000" stroke="#000000" points="1058.4656,-165.5001 1048.4656,-169 1058.4655,-172.5001 1058.4656,-165.5001"/>
</g>
<!-- CustomButtonBarDirective -->
<g id="node2" class="node">
<title>CustomButtonBarDirective</title>
<polygon fill="#ffffb3" stroke="#000000" points="1905.9748,-122 1736.0252,-122 1736.0252,-86 1905.9748,-86 1905.9748,-122"/>
<text text-anchor="middle" x="1821" y="-99.8" font-family="Times,serif" font-size="14.00" fill="#000000">CustomButtonBarDirective</text>
</g>
<!-- CustomButtonBarDirective&#45;&gt;JS44DModule -->
<g id="edge2" class="edge">
<title>CustomButtonBarDirective&#45;&gt;JS44DModule</title>
<path fill="none" stroke="#000000" d="M1762.375,-122.2222C1762.375,-140.8285 1762.375,-167 1762.375,-167 1762.375,-167 1058.5587,-167 1058.5587,-167"/>
<polygon fill="#000000" stroke="#000000" points="1058.5587,-163.5001 1048.5587,-167 1058.5586,-170.5001 1058.5587,-163.5001"/>
</g>
<!-- AdvancedQueryComponent -->
<g id="node3" class="node">
<title>AdvancedQueryComponent</title>
<polygon fill="#ffffb3" stroke="#000000" points="1717.5646,-122 1544.4354,-122 1544.4354,-86 1717.5646,-86 1717.5646,-122"/>
<text text-anchor="middle" x="1631" y="-99.8" font-family="Times,serif" font-size="14.00" fill="#000000">AdvancedQueryComponent</text>
</g>
<!-- AdvancedQueryComponent&#45;&gt;JS44DModule -->
<g id="edge3" class="edge">
<title>AdvancedQueryComponent&#45;&gt;JS44DModule</title>
<path fill="none" stroke="#000000" d="M1570.875,-122.002C1570.875,-139.6754 1570.875,-164 1570.875,-164 1570.875,-164 1058.6725,-164 1058.6725,-164"/>
<polygon fill="#000000" stroke="#000000" points="1058.6725,-160.5001 1048.6725,-164 1058.6724,-167.5001 1058.6725,-160.5001"/>
</g>
<!-- RecordEditWindow -->
<g id="node4" class="node">
<title>RecordEditWindow</title>
<polygon fill="#ffffb3" stroke="#000000" points="1525.972,-122 1398.028,-122 1398.028,-86 1525.972,-86 1525.972,-122"/>
<text text-anchor="middle" x="1462" y="-99.8" font-family="Times,serif" font-size="14.00" fill="#000000">RecordEditWindow</text>
</g>
<!-- RecordEditWindow&#45;&gt;JS44DModule -->
<g id="edge4" class="edge">
<title>RecordEditWindow&#45;&gt;JS44DModule</title>
<path fill="none" stroke="#000000" d="M1411.7269,-122.0336C1411.7269,-139.0597 1411.7269,-162 1411.7269,-162 1411.7269,-162 1058.441,-162 1058.441,-162"/>
<polygon fill="#000000" stroke="#000000" points="1058.4411,-158.5001 1048.441,-162 1058.441,-165.5001 1058.4411,-158.5001"/>
</g>
<!-- RecordList -->
<g id="node5" class="node">
<title>RecordList</title>
<polygon fill="#ffffb3" stroke="#000000" points="1380.2051,-122 1301.7949,-122 1301.7949,-86 1380.2051,-86 1380.2051,-122"/>
<text text-anchor="middle" x="1341" y="-99.8" font-family="Times,serif" font-size="14.00" fill="#000000">RecordList</text>
</g>
<!-- RecordList&#45;&gt;JS44DModule -->
<g id="edge5" class="edge">
<title>RecordList&#45;&gt;JS44DModule</title>
<path fill="none" stroke="#000000" d="M1341,-122.0091C1341,-138.0494 1341,-159 1341,-159 1341,-159 1058.4948,-159 1058.4948,-159"/>
<polygon fill="#000000" stroke="#000000" points="1058.4949,-155.5001 1048.4948,-159 1058.4948,-162.5001 1058.4949,-155.5001"/>
</g>
<!-- Tabs -->
<g id="node6" class="node">
<title>Tabs</title>
<polygon fill="#ffffb3" stroke="#000000" points="1284,-122 1230,-122 1230,-86 1284,-86 1284,-122"/>
<text text-anchor="middle" x="1257" y="-99.8" font-family="Times,serif" font-size="14.00" fill="#000000">Tabs</text>
</g>
<!-- Tabs&#45;&gt;JS44DModule -->
<g id="edge6" class="edge">
<title>Tabs&#45;&gt;JS44DModule</title>
<path fill="none" stroke="#000000" d="M1241.4262,-122.2396C1241.4262,-137.5706 1241.4262,-157 1241.4262,-157 1241.4262,-157 1058.5658,-157 1058.5658,-157"/>
<polygon fill="#000000" stroke="#000000" points="1058.5658,-153.5001 1048.5658,-157 1058.5657,-160.5001 1058.5658,-153.5001"/>
</g>
<!-- Tab -->
<g id="node7" class="node">
<title>Tab</title>
<polygon fill="#ffffb3" stroke="#000000" points="1212,-122 1158,-122 1158,-86 1212,-86 1212,-122"/>
<text text-anchor="middle" x="1185" y="-99.8" font-family="Times,serif" font-size="14.00" fill="#000000">Tab</text>
</g>
<!-- Tab&#45;&gt;JS44DModule -->
<g id="edge7" class="edge">
<title>Tab&#45;&gt;JS44DModule</title>
<path fill="none" stroke="#000000" d="M1164.5738,-122.0511C1164.5738,-136.373 1164.5738,-154 1164.5738,-154 1164.5738,-154 1058.4874,-154 1058.4874,-154"/>
<polygon fill="#000000" stroke="#000000" points="1058.4875,-150.5001 1048.4874,-154 1058.4874,-157.5001 1058.4875,-150.5001"/>
</g>
<!-- WebAppContainer -->
<g id="node8" class="node">
<title>WebAppContainer</title>
<polygon fill="#ffffb3" stroke="#000000" points="1139.7437,-122 1018.2563,-122 1018.2563,-86 1139.7437,-86 1139.7437,-122"/>
<text text-anchor="middle" x="1079" y="-99.8" font-family="Times,serif" font-size="14.00" fill="#000000">WebAppContainer</text>
</g>
<!-- WebAppContainer&#45;&gt;JS44DModule -->
<g id="edge8" class="edge">
<title>WebAppContainer&#45;&gt;JS44DModule</title>
<path fill="none" stroke="#000000" d="M1033.2851,-122.1061C1033.2851,-122.1061 1033.2851,-140.991 1033.2851,-140.991"/>
<polygon fill="#000000" stroke="#000000" points="1029.7851,-140.9909 1033.2851,-150.991 1036.7851,-140.991 1029.7851,-140.9909"/>
</g>
<!-- FourDDropDown -->
<g id="node9" class="node">
<title>FourDDropDown</title>
<polygon fill="#ffffb3" stroke="#000000" points="999.5312,-122 884.4688,-122 884.4688,-86 999.5312,-86 999.5312,-122"/>
<text text-anchor="middle" x="942" y="-99.8" font-family="Times,serif" font-size="14.00" fill="#000000">FourDDropDown</text>
</g>
<!-- FourDDropDown&#45;&gt;JS44DModule -->
<g id="edge9" class="edge">
<title>FourDDropDown&#45;&gt;JS44DModule</title>
<path fill="none" stroke="#000000" d="M975.6617,-122.1061C975.6617,-122.1061 975.6617,-140.991 975.6617,-140.991"/>
<polygon fill="#000000" stroke="#000000" points="972.1617,-140.9909 975.6617,-150.991 979.1617,-140.991 972.1617,-140.9909"/>
</g>
<!-- QuickFindInput -->
<g id="node10" class="node">
<title>QuickFindInput</title>
<polygon fill="#ffffb3" stroke="#000000" points="866.9371,-122 761.0629,-122 761.0629,-86 866.9371,-86 866.9371,-122"/>
<text text-anchor="middle" x="814" y="-99.8" font-family="Times,serif" font-size="14.00" fill="#000000">QuickFindInput</text>
</g>
<!-- QuickFindInput&#45;&gt;JS44DModule -->
<g id="edge10" class="edge">
<title>QuickFindInput&#45;&gt;JS44DModule</title>
<path fill="none" stroke="#000000" d="M830.7707,-122.0511C830.7707,-136.373 830.7707,-154 830.7707,-154 830.7707,-154 941.5057,-154 941.5057,-154"/>
<polygon fill="#000000" stroke="#000000" points="941.5057,-157.5001 951.5057,-154 941.5056,-150.5001 941.5057,-157.5001"/>
</g>
<!-- DataGrid -->
<g id="node11" class="node">
<title>DataGrid</title>
<polygon fill="#ffffb3" stroke="#000000" points="743.0843,-122 674.9157,-122 674.9157,-86 743.0843,-86 743.0843,-122"/>
<text text-anchor="middle" x="709" y="-99.8" font-family="Times,serif" font-size="14.00" fill="#000000">DataGrid</text>
</g>
<!-- DataGrid&#45;&gt;JS44DModule -->
<g id="edge11" class="edge">
<title>DataGrid&#45;&gt;JS44DModule</title>
<path fill="none" stroke="#000000" d="M735.7551,-122.2396C735.7551,-137.5706 735.7551,-157 735.7551,-157 735.7551,-157 941.5334,-157 941.5334,-157"/>
<polygon fill="#000000" stroke="#000000" points="941.5334,-160.5001 951.5334,-157 941.5334,-153.5001 941.5334,-160.5001"/>
</g>
<!-- ListSelectorDialog -->
<g id="node12" class="node">
<title>ListSelectorDialog</title>
<polygon fill="#ffffb3" stroke="#000000" points="656.7493,-122 535.2507,-122 535.2507,-86 656.7493,-86 656.7493,-122"/>
<text text-anchor="middle" x="596" y="-99.8" font-family="Times,serif" font-size="14.00" fill="#000000">ListSelectorDialog</text>
</g>
<!-- ListSelectorDialog&#45;&gt;JS44DModule -->
<g id="edge12" class="edge">
<title>ListSelectorDialog&#45;&gt;JS44DModule</title>
<path fill="none" stroke="#000000" d="M638.2032,-122.0091C638.2032,-138.0494 638.2032,-159 638.2032,-159 638.2032,-159 941.5819,-159 941.5819,-159"/>
<polygon fill="#000000" stroke="#000000" points="941.5819,-162.5001 951.5819,-159 941.5819,-155.5001 941.5819,-162.5001"/>
</g>
<!-- Base64ImageRef -->
<g id="node13" class="node">
<title>Base64ImageRef</title>
<polygon fill="#ffffb3" stroke="#000000" points="517.4033,-122 404.5967,-122 404.5967,-86 517.4033,-86 517.4033,-122"/>
<text text-anchor="middle" x="461" y="-99.8" font-family="Times,serif" font-size="14.00" fill="#000000">Base64ImageRef</text>
</g>
<!-- Base64ImageRef&#45;&gt;JS44DModule -->
<g id="edge13" class="edge">
<title>Base64ImageRef&#45;&gt;JS44DModule</title>
<path fill="none" stroke="#000000" d="M476.6826,-122.0336C476.6826,-139.0597 476.6826,-162 476.6826,-162 476.6826,-162 941.2375,-162 941.2375,-162"/>
<polygon fill="#000000" stroke="#000000" points="941.2375,-165.5001 951.2375,-162 941.2375,-158.5001 941.2375,-165.5001"/>
</g>
<!-- LoginCmp -->
<g id="node14" class="node">
<title>LoginCmp</title>
<polygon fill="#ffffb3" stroke="#000000" points="386.1711,-122 309.8289,-122 309.8289,-86 386.1711,-86 386.1711,-122"/>
<text text-anchor="middle" x="348" y="-99.8" font-family="Times,serif" font-size="14.00" fill="#000000">LoginCmp</text>
</g>
<!-- LoginCmp&#45;&gt;JS44DModule -->
<g id="edge14" class="edge">
<title>LoginCmp&#45;&gt;JS44DModule</title>
<path fill="none" stroke="#000000" d="M377.6432,-122.002C377.6432,-139.6754 377.6432,-164 377.6432,-164 377.6432,-164 941.4239,-164 941.4239,-164"/>
<polygon fill="#000000" stroke="#000000" points="941.424,-167.5001 951.4239,-164 941.4239,-160.5001 941.424,-167.5001"/>
</g>
<!-- QueryBand  -->
<g id="node17" class="node">
<title>QueryBand </title>
<polygon fill="#fb8072" stroke="#000000" points="1891.033,-252 1806.967,-252 1806.967,-216 1891.033,-216 1891.033,-252"/>
<text text-anchor="middle" x="1849" y="-229.8" font-family="Times,serif" font-size="14.00" fill="#000000">QueryBand </text>
</g>
<!-- JS44DModule&#45;&gt;QueryBand  -->
<g id="edge16" class="edge">
<title>JS44DModule&#45;&gt;QueryBand </title>
<path fill="none" stroke="#000000" stroke-dasharray="5,2" d="M1048.3864,-172C1228.3881,-172 1849,-172 1849,-172 1849,-172 1849,-205.7333 1849,-205.7333"/>
<polygon fill="#000000" stroke="#000000" points="1845.5001,-205.7333 1849,-215.7333 1852.5001,-205.7333 1845.5001,-205.7333"/>
</g>
<!-- CustomButtonBarDirective  -->
<g id="node18" class="node">
<title>CustomButtonBarDirective </title>
<polygon fill="#fb8072" stroke="#000000" points="1788.9755,-252 1615.0245,-252 1615.0245,-216 1788.9755,-216 1788.9755,-252"/>
<text text-anchor="middle" x="1702" y="-229.8" font-family="Times,serif" font-size="14.00" fill="#000000">CustomButtonBarDirective </text>
</g>
<!-- JS44DModule&#45;&gt;CustomButtonBarDirective  -->
<g id="edge17" class="edge">
<title>JS44DModule&#45;&gt;CustomButtonBarDirective </title>
<path fill="none" stroke="#000000" stroke-dasharray="5,2" d="M1048.4625,-175C1201.812,-175 1666.3975,-175 1666.3975,-175 1666.3975,-175 1666.3975,-205.9775 1666.3975,-205.9775"/>
<polygon fill="#000000" stroke="#000000" points="1662.8975,-205.9774 1666.3975,-215.9775 1669.8975,-205.9775 1662.8975,-205.9774"/>
</g>
<!-- AdvancedQueryComponent  -->
<g id="node19" class="node">
<title>AdvancedQueryComponent </title>
<polygon fill="#fb8072" stroke="#000000" points="1597.0651,-252 1420.9349,-252 1420.9349,-216 1597.0651,-216 1597.0651,-252"/>
<text text-anchor="middle" x="1509" y="-229.8" font-family="Times,serif" font-size="14.00" fill="#000000">AdvancedQueryComponent </text>
</g>
<!-- JS44DModule&#45;&gt;AdvancedQueryComponent  -->
<g id="edge18" class="edge">
<title>JS44DModule&#45;&gt;AdvancedQueryComponent </title>
<path fill="none" stroke="#000000" stroke-dasharray="5,2" d="M1048.4324,-177C1169.0739,-177 1473.3519,-177 1473.3519,-177 1473.3519,-177 1473.3519,-205.9648 1473.3519,-205.9648"/>
<polygon fill="#000000" stroke="#000000" points="1469.8519,-205.9648 1473.3519,-215.9648 1476.8519,-205.9649 1469.8519,-205.9648"/>
</g>
<!-- RecordEditWindow  -->
<g id="node20" class="node">
<title>RecordEditWindow </title>
<polygon fill="#fb8072" stroke="#000000" points="1402.9729,-252 1271.0271,-252 1271.0271,-216 1402.9729,-216 1402.9729,-252"/>
<text text-anchor="middle" x="1337" y="-229.8" font-family="Times,serif" font-size="14.00" fill="#000000">RecordEditWindow </text>
</g>
<!-- JS44DModule&#45;&gt;RecordEditWindow  -->
<g id="edge19" class="edge">
<title>JS44DModule&#45;&gt;RecordEditWindow </title>
<path fill="none" stroke="#000000" stroke-dasharray="5,2" d="M1048.6775,-180C1128.3012,-180 1277.632,-180 1277.632,-180 1277.632,-180 1277.632,-205.7181 1277.632,-205.7181"/>
<polygon fill="#000000" stroke="#000000" points="1274.1321,-205.718 1277.632,-215.7181 1281.1321,-205.7181 1274.1321,-205.718"/>
</g>
<!-- RecordList  -->
<g id="node21" class="node">
<title>RecordList </title>
<polygon fill="#fb8072" stroke="#000000" points="1252.7053,-252 1171.2947,-252 1171.2947,-216 1252.7053,-216 1252.7053,-252"/>
<text text-anchor="middle" x="1212" y="-229.8" font-family="Times,serif" font-size="14.00" fill="#000000">RecordList </text>
</g>
<!-- JS44DModule&#45;&gt;RecordList  -->
<g id="edge20" class="edge">
<title>JS44DModule&#45;&gt;RecordList </title>
<path fill="none" stroke="#000000" stroke-dasharray="5,2" d="M1048.8378,-182C1105.5964,-182 1191.5738,-182 1191.5738,-182 1191.5738,-182 1191.5738,-205.8129 1191.5738,-205.8129"/>
<polygon fill="#000000" stroke="#000000" points="1188.0739,-205.8129 1191.5738,-215.8129 1195.0739,-205.813 1188.0739,-205.8129"/>
</g>
<!-- Tabs  -->
<g id="node22" class="node">
<title>Tabs </title>
<polygon fill="#fb8072" stroke="#000000" points="1153,-252 1099,-252 1099,-216 1153,-216 1153,-252"/>
<text text-anchor="middle" x="1126" y="-229.8" font-family="Times,serif" font-size="14.00" fill="#000000">Tabs </text>
</g>
<!-- JS44DModule&#45;&gt;Tabs  -->
<g id="edge21" class="edge">
<title>JS44DModule&#45;&gt;Tabs </title>
<path fill="none" stroke="#000000" stroke-dasharray="5,2" d="M1048.5791,-185C1081.6456,-185 1119.4358,-185 1119.4358,-185 1119.4358,-185 1119.4358,-205.7542 1119.4358,-205.7542"/>
<polygon fill="#000000" stroke="#000000" points="1115.9359,-205.7542 1119.4358,-215.7542 1122.9359,-205.7542 1115.9359,-205.7542"/>
</g>
<!-- Tab  -->
<g id="node23" class="node">
<title>Tab </title>
<polygon fill="#fb8072" stroke="#000000" points="1081,-252 1027,-252 1027,-216 1081,-216 1081,-252"/>
<text text-anchor="middle" x="1054" y="-229.8" font-family="Times,serif" font-size="14.00" fill="#000000">Tab </text>
</g>
<!-- JS44DModule&#45;&gt;Tab  -->
<g id="edge22" class="edge">
<title>JS44DModule&#45;&gt;Tab </title>
<path fill="none" stroke="#000000" stroke-dasharray="5,2" d="M1037.7209,-187.1061C1037.7209,-187.1061 1037.7209,-205.991 1037.7209,-205.991"/>
<polygon fill="#000000" stroke="#000000" points="1034.221,-205.9909 1037.7209,-215.991 1041.221,-205.991 1034.221,-205.9909"/>
</g>
<!-- WebAppContainer  -->
<g id="node24" class="node">
<title>WebAppContainer </title>
<polygon fill="#fb8072" stroke="#000000" points="1008.7436,-252 883.2564,-252 883.2564,-216 1008.7436,-216 1008.7436,-252"/>
<text text-anchor="middle" x="946" y="-229.8" font-family="Times,serif" font-size="14.00" fill="#000000">WebAppContainer </text>
</g>
<!-- JS44DModule&#45;&gt;WebAppContainer  -->
<g id="edge23" class="edge">
<title>JS44DModule&#45;&gt;WebAppContainer </title>
<path fill="none" stroke="#000000" stroke-dasharray="5,2" d="M980.09,-187.1061C980.09,-187.1061 980.09,-205.991 980.09,-205.991"/>
<polygon fill="#000000" stroke="#000000" points="976.59,-205.9909 980.09,-215.991 983.59,-205.991 976.59,-205.9909"/>
</g>
<!-- FourDDropDown  -->
<g id="node25" class="node">
<title>FourDDropDown </title>
<polygon fill="#fb8072" stroke="#000000" points="865.5302,-252 746.4698,-252 746.4698,-216 865.5302,-216 865.5302,-252"/>
<text text-anchor="middle" x="806" y="-229.8" font-family="Times,serif" font-size="14.00" fill="#000000">FourDDropDown </text>
</g>
<!-- JS44DModule&#45;&gt;FourDDropDown  -->
<g id="edge24" class="edge">
<title>JS44DModule&#45;&gt;FourDDropDown </title>
<path fill="none" stroke="#000000" stroke-dasharray="5,2" d="M951.4024,-185C891.0712,-185 796.0263,-185 796.0263,-185 796.0263,-185 796.0263,-205.7542 796.0263,-205.7542"/>
<polygon fill="#000000" stroke="#000000" points="792.5264,-205.7542 796.0263,-215.7542 799.5264,-205.7542 792.5264,-205.7542"/>
</g>
<!-- QuickFindInput  -->
<g id="node26" class="node">
<title>QuickFindInput </title>
<polygon fill="#fb8072" stroke="#000000" points="728.4362,-252 619.5638,-252 619.5638,-216 728.4362,-216 728.4362,-252"/>
<text text-anchor="middle" x="674" y="-229.8" font-family="Times,serif" font-size="14.00" fill="#000000">QuickFindInput </text>
</g>
<!-- JS44DModule&#45;&gt;QuickFindInput  -->
<g id="edge25" class="edge">
<title>JS44DModule&#45;&gt;QuickFindInput </title>
<path fill="none" stroke="#000000" stroke-dasharray="5,2" d="M951.4112,-182C866.888,-182 701.713,-182 701.713,-182 701.713,-182 701.713,-205.8129 701.713,-205.8129"/>
<polygon fill="#000000" stroke="#000000" points="698.2131,-205.8129 701.713,-215.8129 705.2131,-205.813 698.2131,-205.8129"/>
</g>
<!-- DataGrid  -->
<g id="node27" class="node">
<title>DataGrid </title>
<polygon fill="#fb8072" stroke="#000000" points="601.5854,-252 530.4146,-252 530.4146,-216 601.5854,-216 601.5854,-252"/>
<text text-anchor="middle" x="566" y="-229.8" font-family="Times,serif" font-size="14.00" fill="#000000">DataGrid </text>
</g>
<!-- JS44DModule&#45;&gt;DataGrid  -->
<g id="edge26" class="edge">
<title>JS44DModule&#45;&gt;DataGrid </title>
<path fill="none" stroke="#000000" stroke-dasharray="5,2" d="M951.3356,-180C838.4766,-180 568.4588,-180 568.4588,-180 568.4588,-180 568.4588,-205.7181 568.4588,-205.7181"/>
<polygon fill="#000000" stroke="#000000" points="564.9589,-205.718 568.4588,-215.7181 571.9589,-205.7181 564.9589,-205.718"/>
</g>
<!-- ListSelectorDialog  -->
<g id="node28" class="node">
<title>ListSelectorDialog </title>
<polygon fill="#fb8072" stroke="#000000" points="512.7492,-252 387.2508,-252 387.2508,-216 512.7492,-216 512.7492,-252"/>
<text text-anchor="middle" x="450" y="-229.8" font-family="Times,serif" font-size="14.00" fill="#000000">ListSelectorDialog </text>
</g>
<!-- JS44DModule&#45;&gt;ListSelectorDialog  -->
<g id="edge27" class="edge">
<title>JS44DModule&#45;&gt;ListSelectorDialog </title>
<path fill="none" stroke="#000000" stroke-dasharray="5,2" d="M951.3477,-177C815.2834,-177 440.7406,-177 440.7406,-177 440.7406,-177 440.7406,-205.9648 440.7406,-205.9648"/>
<polygon fill="#000000" stroke="#000000" points="437.2407,-205.9648 440.7406,-215.9648 444.2407,-205.9649 437.2407,-205.9648"/>
</g>
<!-- Base64ImageRef  -->
<g id="node29" class="node">
<title>Base64ImageRef </title>
<polygon fill="#fb8072" stroke="#000000" points="368.9026,-252 253.0974,-252 253.0974,-216 368.9026,-216 368.9026,-252"/>
<text text-anchor="middle" x="311" y="-229.8" font-family="Times,serif" font-size="14.00" fill="#000000">Base64ImageRef </text>
</g>
<!-- JS44DModule&#45;&gt;Base64ImageRef  -->
<g id="edge28" class="edge">
<title>JS44DModule&#45;&gt;Base64ImageRef </title>
<path fill="none" stroke="#000000" stroke-dasharray="5,2" d="M951.4177,-175C798.8391,-175 339.3081,-175 339.3081,-175 339.3081,-175 339.3081,-205.9775 339.3081,-205.9775"/>
<polygon fill="#000000" stroke="#000000" points="335.8081,-205.9774 339.3081,-215.9775 342.8081,-205.9775 335.8081,-205.9774"/>
</g>
<!-- LoginCmp  -->
<g id="node30" class="node">
<title>LoginCmp </title>
<polygon fill="#fb8072" stroke="#000000" points="235.1706,-252 154.8294,-252 154.8294,-216 235.1706,-216 235.1706,-252"/>
<text text-anchor="middle" x="195" y="-229.8" font-family="Times,serif" font-size="14.00" fill="#000000">LoginCmp </text>
</g>
<!-- JS44DModule&#45;&gt;LoginCmp  -->
<g id="edge29" class="edge">
<title>JS44DModule&#45;&gt;LoginCmp </title>
<path fill="none" stroke="#000000" stroke-dasharray="5,2" d="M951.3337,-172C779.6449,-172 212.5177,-172 212.5177,-172 212.5177,-172 212.5177,-205.7333 212.5177,-205.7333"/>
<polygon fill="#000000" stroke="#000000" points="209.0178,-205.7333 212.5177,-215.7333 216.0178,-205.7333 209.0178,-205.7333"/>
</g>
<!-- FourDModule -->
<g id="node16" class="node">
<title>FourDModule</title>
<polygon fill="#8dd3c7" stroke="#000000" points="286.0997,-122 283.0997,-126 262.0997,-126 259.0997,-122 189.9003,-122 189.9003,-86 286.0997,-86 286.0997,-122"/>
<text text-anchor="middle" x="238" y="-99.8" font-family="Times,serif" font-size="14.00" fill="#000000">FourDModule</text>
</g>
<!-- FourDModule&#45;&gt;JS44DModule -->
<g id="edge15" class="edge">
<title>FourDModule&#45;&gt;JS44DModule</title>
<path fill="none" stroke="#000000" d="M269.5493,-122.2222C269.5493,-140.8285 269.5493,-167 269.5493,-167 269.5493,-167 941.5074,-167 941.5074,-167"/>
<polygon fill="#000000" stroke="#000000" points="941.5074,-170.5001 951.5074,-167 941.5074,-163.5001 941.5074,-170.5001"/>
</g>
<!-- FourDInterface -->
<g id="node31" class="node">
<title>FourDInterface</title>
<ellipse fill="#fdb462" stroke="#000000" cx="95" cy="-104" rx="70.6026" ry="18"/>
<text text-anchor="middle" x="95" y="-99.8" font-family="Times,serif" font-size="14.00" fill="#000000">FourDInterface</text>
</g>
<!-- FourDInterface&#45;&gt;JS44DModule -->
<g id="edge30" class="edge">
<title>FourDInterface&#45;&gt;JS44DModule</title>
<path fill="none" stroke="#000000" d="M160.233,-110.9561C160.233,-127.7244 160.233,-169 160.233,-169 160.233,-169 941.528,-169 941.528,-169"/>
<polygon fill="#000000" stroke="#000000" points="941.528,-172.5001 951.528,-169 941.5279,-165.5001 941.528,-172.5001"/>
</g>
</g>
</svg>
