<?xml version="1.0" encoding="UTF-8" standalone="no"?>
<!DOCTYPE svg PUBLIC "-//W3C//DTD SVG 1.1//EN"
 "http://www.w3.org/Graphics/SVG/1.1/DTD/svg11.dtd">
<!-- Generated by graphviz version 2.40.1 (20161225.0304)
 -->
<!-- Title: dependencies Pages: 1 -->
<svg width="2183pt" height="284pt"
 viewBox="0.00 0.00 2183.00 284.00" xmlns="http://www.w3.org/2000/svg" xmlns:xlink="http://www.w3.org/1999/xlink">
<g id="graph0" class="graph" transform="scale(1 1) rotate(0) translate(4 280)">
<title>dependencies</title>
<polygon fill="#ffffff" stroke="transparent" points="-4,4 -4,-280 2179,-280 2179,4 -4,4"/>
<text text-anchor="start" x="1066.5091" y="-42.4" font-family="sans-serif" font-weight="bold" font-size="14.00" fill="#000000">Legend</text>
<polygon fill="#ffffb3" stroke="transparent" points="853.5,-10 853.5,-30 873.5,-30 873.5,-10 853.5,-10"/>
<text text-anchor="start" x="877.129" y="-15.4" font-family="sans-serif" font-size="14.00" fill="#000000"> &#160;Declarations</text>
<polygon fill="#8dd3c7" stroke="transparent" points="966.5,-10 966.5,-30 986.5,-30 986.5,-10 966.5,-10"/>
<text text-anchor="start" x="990.2251" y="-15.4" font-family="sans-serif" font-size="14.00" fill="#000000"> &#160;Module</text>
<polygon fill="#80b1d3" stroke="transparent" points="1052.5,-10 1052.5,-30 1072.5,-30 1072.5,-10 1052.5,-10"/>
<text text-anchor="start" x="1076.2812" y="-15.4" font-family="sans-serif" font-size="14.00" fill="#000000"> &#160;Bootstrap</text>
<polygon fill="#fdb462" stroke="transparent" points="1149.5,-10 1149.5,-30 1169.5,-30 1169.5,-10 1149.5,-10"/>
<text text-anchor="start" x="1173.1732" y="-15.4" font-family="sans-serif" font-size="14.00" fill="#000000"> &#160;Providers</text>
<polygon fill="#fb8072" stroke="transparent" points="1245.5,-10 1245.5,-30 1265.5,-30 1265.5,-10 1245.5,-10"/>
<text text-anchor="start" x="1269.2258" y="-15.4" font-family="sans-serif" font-size="14.00" fill="#000000"> &#160;Exports</text>
<g id="clust1" class="cluster">
<title>cluster_JS44DModule</title>
<polygon fill="none" stroke="#000000" stroke-dasharray="1,5" points="8,-70 8,-268 2167,-268 2167,-70 8,-70"/>
</g>
<g id="clust2" class="cluster">
<title>cluster_JS44DModule_declarations</title>
<polygon fill="none" stroke="#000000" points="302,-78 302,-130 2159,-130 2159,-78 302,-78"/>
</g>
<g id="clust18" class="cluster">
<title>cluster_JS44DModule_imports</title>
<polygon fill="none" stroke="#000000" points="182,-78 182,-130 294,-130 294,-78 182,-78"/>
</g>
<g id="clust19" class="cluster">
<title>cluster_JS44DModule_exports</title>
<polygon fill="none" stroke="#000000" points="140,-208 140,-260 2042,-260 2042,-208 140,-208"/>
</g>
<g id="clust21" class="cluster">
<title>cluster_JS44DModule_providers</title>
<polygon fill="none" stroke="#000000" points="16,-78 16,-130 174,-130 174,-78 16,-78"/>
</g>
<!-- QueryBand -->
<g id="node1" class="node">
<title>QueryBand</title>
<polygon fill="#ffffb3" stroke="#000000" points="2151.0343,-122 2070.9657,-122 2070.9657,-86 2151.0343,-86 2151.0343,-122"/>
<text text-anchor="middle" x="2111" y="-99.8" font-family="Times,serif" font-size="14.00" fill="#000000">QueryBand</text>
</g>
<!-- JS44DModule -->
<g id="node16" class="node">
<title>JS44DModule</title>
<polygon fill="#8dd3c7" stroke="#000000" points="1137.3837,-187 1134.3837,-191 1113.3837,-191 1110.3837,-187 1040.6163,-187 1040.6163,-151 1137.3837,-151 1137.3837,-187"/>
<text text-anchor="middle" x="1089" y="-164.8" font-family="Times,serif" font-size="14.00" fill="#000000">JS44DModule</text>
</g>
<!-- QueryBand&#45;&gt;JS44DModule -->
<g id="edge1" class="edge">
<title>QueryBand&#45;&gt;JS44DModule</title>
<path fill="none" stroke="#000000" d="M2111,-122.1061C2111,-141.3391 2111,-169 2111,-169 2111,-169 1147.6056,-169 1147.6056,-169"/>
<polygon fill="#000000" stroke="#000000" points="1147.6057,-165.5001 1137.6056,-169 1147.6056,-172.5001 1147.6057,-165.5001"/>
</g>
<!-- CustomButtonBarDirective -->
<g id="node2" class="node">
<title>CustomButtonBarDirective</title>
<polygon fill="#ffffb3" stroke="#000000" points="2052.9748,-122 1883.0252,-122 1883.0252,-86 2052.9748,-86 2052.9748,-122"/>
<text text-anchor="middle" x="1968" y="-99.8" font-family="Times,serif" font-size="14.00" fill="#000000">CustomButtonBarDirective</text>
</g>
<!-- CustomButtonBarDirective&#45;&gt;JS44DModule -->
<g id="edge2" class="edge">
<title>CustomButtonBarDirective&#45;&gt;JS44DModule</title>
<path fill="none" stroke="#000000" d="M1907.375,-122.2222C1907.375,-140.8285 1907.375,-167 1907.375,-167 1907.375,-167 1147.4396,-167 1147.4396,-167"/>
<polygon fill="#000000" stroke="#000000" points="1147.4397,-163.5001 1137.4396,-167 1147.4396,-170.5001 1147.4397,-163.5001"/>
</g>
<!-- AdvancedQueryComponent -->
<g id="node3" class="node">
<title>AdvancedQueryComponent</title>
<polygon fill="#ffffb3" stroke="#000000" points="1864.5646,-122 1691.4354,-122 1691.4354,-86 1864.5646,-86 1864.5646,-122"/>
<text text-anchor="middle" x="1778" y="-99.8" font-family="Times,serif" font-size="14.00" fill="#000000">AdvancedQueryComponent</text>
</g>
<!-- AdvancedQueryComponent&#45;&gt;JS44DModule -->
<g id="edge3" class="edge">
<title>AdvancedQueryComponent&#45;&gt;JS44DModule</title>
<path fill="none" stroke="#000000" d="M1715.875,-122.302C1715.875,-140.2699 1715.875,-165 1715.875,-165 1715.875,-165 1147.4083,-165 1147.4083,-165"/>
<polygon fill="#000000" stroke="#000000" points="1147.4083,-161.5001 1137.4083,-165 1147.4082,-168.5001 1147.4083,-161.5001"/>
</g>
<!-- RecordEditWindow -->
<g id="node4" class="node">
<title>RecordEditWindow</title>
<polygon fill="#ffffb3" stroke="#000000" points="1672.972,-122 1545.028,-122 1545.028,-86 1672.972,-86 1672.972,-122"/>
<text text-anchor="middle" x="1609" y="-99.8" font-family="Times,serif" font-size="14.00" fill="#000000">RecordEditWindow</text>
</g>
<!-- RecordEditWindow&#45;&gt;JS44DModule -->
<g id="edge4" class="edge">
<title>RecordEditWindow&#45;&gt;JS44DModule</title>
<path fill="none" stroke="#000000" d="M1554.7269,-122.0225C1554.7269,-139.3734 1554.7269,-163 1554.7269,-163 1554.7269,-163 1147.5229,-163 1147.5229,-163"/>
<polygon fill="#000000" stroke="#000000" points="1147.523,-159.5001 1137.5229,-163 1147.5229,-166.5001 1147.523,-159.5001"/>
</g>
<!-- RecordList -->
<g id="node5" class="node">
<title>RecordList</title>
<polygon fill="#ffffb3" stroke="#000000" points="1527.2051,-122 1448.7949,-122 1448.7949,-86 1527.2051,-86 1527.2051,-122"/>
<text text-anchor="middle" x="1488" y="-99.8" font-family="Times,serif" font-size="14.00" fill="#000000">RecordList</text>
</g>
<!-- RecordList&#45;&gt;JS44DModule -->
<g id="edge5" class="edge">
<title>RecordList&#45;&gt;JS44DModule</title>
<path fill="none" stroke="#000000" d="M1488,-122.027C1488,-138.3976 1488,-160 1488,-160 1488,-160 1147.5263,-160 1147.5263,-160"/>
<polygon fill="#000000" stroke="#000000" points="1147.5264,-156.5001 1137.5263,-160 1147.5263,-163.5001 1147.5264,-156.5001"/>
</g>
<!-- Tabs -->
<g id="node6" class="node">
<title>Tabs</title>
<polygon fill="#ffffb3" stroke="#000000" points="1431,-122 1377,-122 1377,-86 1431,-86 1431,-122"/>
<text text-anchor="middle" x="1404" y="-99.8" font-family="Times,serif" font-size="14.00" fill="#000000">Tabs</text>
</g>
<!-- Tabs&#45;&gt;JS44DModule -->
<g id="edge6" class="edge">
<title>Tabs&#45;&gt;JS44DModule</title>
<path fill="none" stroke="#000000" d="M1386.4262,-122.2819C1386.4262,-137.9478 1386.4262,-158 1386.4262,-158 1386.4262,-158 1147.4486,-158 1147.4486,-158"/>
<polygon fill="#000000" stroke="#000000" points="1147.4486,-154.5001 1137.4486,-158 1147.4486,-161.5001 1147.4486,-154.5001"/>
</g>
<!-- Tab -->
<g id="node7" class="node">
<title>Tab</title>
<polygon fill="#ffffb3" stroke="#000000" points="1359,-122 1305,-122 1305,-86 1359,-86 1359,-122"/>
<text text-anchor="middle" x="1332" y="-99.8" font-family="Times,serif" font-size="14.00" fill="#000000">Tab</text>
</g>
<!-- Tab&#45;&gt;JS44DModule -->
<g id="edge7" class="edge">
<title>Tab&#45;&gt;JS44DModule</title>
<path fill="none" stroke="#000000" d="M1309.5738,-122.1871C1309.5738,-137.1824 1309.5738,-156 1309.5738,-156 1309.5738,-156 1147.4059,-156 1147.4059,-156"/>
<polygon fill="#000000" stroke="#000000" points="1147.4059,-152.5001 1137.4059,-156 1147.4058,-159.5001 1147.4059,-152.5001"/>
</g>
<!-- WebAppContainer -->
<g id="node8" class="node">
<title>WebAppContainer</title>
<polygon fill="#ffffb3" stroke="#000000" points="1286.7437,-122 1165.2563,-122 1165.2563,-86 1286.7437,-86 1286.7437,-122"/>
<text text-anchor="middle" x="1226" y="-99.8" font-family="Times,serif" font-size="14.00" fill="#000000">WebAppContainer</text>
</g>
<!-- WebAppContainer&#45;&gt;JS44DModule -->
<g id="edge8" class="edge">
<title>WebAppContainer&#45;&gt;JS44DModule</title>
<path fill="none" stroke="#000000" d="M1188,-122.0511C1188,-136.373 1188,-154 1188,-154 1188,-154 1147.6299,-154 1147.6299,-154"/>
<polygon fill="#000000" stroke="#000000" points="1147.63,-150.5001 1137.6299,-154 1147.6299,-157.5001 1147.63,-150.5001"/>
</g>
<!-- FourDDropDown -->
<g id="node9" class="node">
<title>FourDDropDown</title>
<polygon fill="#ffffb3" stroke="#000000" points="1146.5312,-122 1031.4688,-122 1031.4688,-86 1146.5312,-86 1146.5312,-122"/>
<text text-anchor="middle" x="1089" y="-99.8" font-family="Times,serif" font-size="14.00" fill="#000000">FourDDropDown</text>
</g>
<!-- FourDDropDown&#45;&gt;JS44DModule -->
<g id="edge9" class="edge">
<title>FourDDropDown&#45;&gt;JS44DModule</title>
<path fill="none" stroke="#000000" d="M1089,-122.1061C1089,-122.1061 1089,-140.991 1089,-140.991"/>
<polygon fill="#000000" stroke="#000000" points="1085.5001,-140.9909 1089,-150.991 1092.5001,-140.991 1085.5001,-140.9909"/>
</g>
<!-- QuickFindInput -->
<g id="node10" class="node">
<title>QuickFindInput</title>
<polygon fill="#ffffb3" stroke="#000000" points="1013.9371,-122 908.0629,-122 908.0629,-86 1013.9371,-86 1013.9371,-122"/>
<text text-anchor="middle" x="961" y="-99.8" font-family="Times,serif" font-size="14.00" fill="#000000">QuickFindInput</text>
</g>
<!-- QuickFindInput&#45;&gt;JS44DModule -->
<g id="edge10" class="edge">
<title>QuickFindInput&#45;&gt;JS44DModule</title>
<path fill="none" stroke="#000000" d="M975.104,-122.0511C975.104,-136.373 975.104,-154 975.104,-154 975.104,-154 1030.3675,-154 1030.3675,-154"/>
<polygon fill="#000000" stroke="#000000" points="1030.3675,-157.5001 1040.3675,-154 1030.3675,-150.5001 1030.3675,-157.5001"/>
</g>
<!-- DataGrid -->
<g id="node11" class="node">
<title>DataGrid</title>
<polygon fill="#ffffb3" stroke="#000000" points="890.0843,-122 821.9157,-122 821.9157,-86 890.0843,-86 890.0843,-122"/>
<text text-anchor="middle" x="856" y="-99.8" font-family="Times,serif" font-size="14.00" fill="#000000">DataGrid</text>
</g>
<!-- DataGrid&#45;&gt;JS44DModule -->
<g id="edge11" class="edge">
<title>DataGrid&#45;&gt;JS44DModule</title>
<path fill="none" stroke="#000000" d="M880.4765,-122.1871C880.4765,-137.1824 880.4765,-156 880.4765,-156 880.4765,-156 1030.3737,-156 1030.3737,-156"/>
<polygon fill="#000000" stroke="#000000" points="1030.3737,-159.5001 1040.3737,-156 1030.3736,-152.5001 1030.3737,-159.5001"/>
</g>
<!-- ListSelectorDialog -->
<g id="node12" class="node">
<title>ListSelectorDialog</title>
<polygon fill="#ffffb3" stroke="#000000" points="803.7493,-122 682.2507,-122 682.2507,-86 803.7493,-86 803.7493,-122"/>
<text text-anchor="middle" x="743" y="-99.8" font-family="Times,serif" font-size="14.00" fill="#000000">ListSelectorDialog</text>
</g>
<!-- ListSelectorDialog&#45;&gt;JS44DModule -->
<g id="edge12" class="edge">
<title>ListSelectorDialog&#45;&gt;JS44DModule</title>
<path fill="none" stroke="#000000" d="M783.2032,-122.2819C783.2032,-137.9478 783.2032,-158 783.2032,-158 783.2032,-158 1030.5456,-158 1030.5456,-158"/>
<polygon fill="#000000" stroke="#000000" points="1030.5456,-161.5001 1040.5456,-158 1030.5456,-154.5001 1030.5456,-161.5001"/>
</g>
<!-- Base64ImageRef -->
<g id="node13" class="node">
<title>Base64ImageRef</title>
<polygon fill="#ffffb3" stroke="#000000" points="664.4033,-122 551.5967,-122 551.5967,-86 664.4033,-86 664.4033,-122"/>
<text text-anchor="middle" x="608" y="-99.8" font-family="Times,serif" font-size="14.00" fill="#000000">Base64ImageRef</text>
</g>
<!-- Base64ImageRef&#45;&gt;JS44DModule -->
<g id="edge13" class="edge">
<title>Base64ImageRef&#45;&gt;JS44DModule</title>
<path fill="none" stroke="#000000" d="M659.9129,-122.027C659.9129,-138.3976 659.9129,-160 659.9129,-160 659.9129,-160 1030.6123,-160 1030.6123,-160"/>
<polygon fill="#000000" stroke="#000000" points="1030.6124,-163.5001 1040.6123,-160 1030.6123,-156.5001 1030.6124,-163.5001"/>
</g>
<!-- FourDDateToString -->
<g id="node14" class="node">
<title>FourDDateToString</title>
<polygon fill="#ffffb3" stroke="#000000" points="533.2534,-122 404.7466,-122 404.7466,-86 533.2534,-86 533.2534,-122"/>
<text text-anchor="middle" x="469" y="-99.8" font-family="Times,serif" font-size="14.00" fill="#000000">FourDDateToString</text>
</g>
<!-- FourDDateToString&#45;&gt;JS44DModule -->
<g id="edge14" class="edge">
<title>FourDDateToString&#45;&gt;JS44DModule</title>
<path fill="none" stroke="#000000" d="M521.1634,-122.0225C521.1634,-139.3734 521.1634,-163 521.1634,-163 521.1634,-163 1030.5866,-163 1030.5866,-163"/>
<polygon fill="#000000" stroke="#000000" points="1030.5866,-166.5001 1040.5866,-163 1030.5865,-159.5001 1030.5866,-166.5001"/>
</g>
<!-- LoginCmp -->
<g id="node15" class="node">
<title>LoginCmp</title>
<polygon fill="#ffffb3" stroke="#000000" points="386.1711,-122 309.8289,-122 309.8289,-86 386.1711,-86 386.1711,-122"/>
<text text-anchor="middle" x="348" y="-99.8" font-family="Times,serif" font-size="14.00" fill="#000000">LoginCmp</text>
</g>
<!-- LoginCmp&#45;&gt;JS44DModule -->
<g id="edge15" class="edge">
<title>LoginCmp&#45;&gt;JS44DModule</title>
<path fill="none" stroke="#000000" d="M382.2309,-122.302C382.2309,-140.2699 382.2309,-165 382.2309,-165 382.2309,-165 1030.4209,-165 1030.4209,-165"/>
<polygon fill="#000000" stroke="#000000" points="1030.4209,-168.5001 1040.4209,-165 1030.4209,-161.5001 1030.4209,-168.5001"/>
</g>
<!-- QueryBand  -->
<g id="node18" class="node">
<title>QueryBand </title>
<polygon fill="#fb8072" stroke="#000000" points="2034.033,-252 1949.967,-252 1949.967,-216 2034.033,-216 2034.033,-252"/>
<text text-anchor="middle" x="1992" y="-229.8" font-family="Times,serif" font-size="14.00" fill="#000000">QueryBand </text>
</g>
<!-- JS44DModule&#45;&gt;QueryBand  -->
<g id="edge17" class="edge">
<title>JS44DModule&#45;&gt;QueryBand </title>
<path fill="none" stroke="#000000" stroke-dasharray="5,2" d="M1137.5492,-172C1325.1116,-172 1992,-172 1992,-172 1992,-172 1992,-205.7333 1992,-205.7333"/>
<polygon fill="#000000" stroke="#000000" points="1988.5001,-205.7333 1992,-215.7333 1995.5001,-205.7333 1988.5001,-205.7333"/>
</g>
<!-- CustomButtonBarDirective  -->
<g id="node19" class="node">
<title>CustomButtonBarDirective </title>
<polygon fill="#fb8072" stroke="#000000" points="1931.9755,-252 1758.0245,-252 1758.0245,-216 1931.9755,-216 1931.9755,-252"/>
<text text-anchor="middle" x="1845" y="-229.8" font-family="Times,serif" font-size="14.00" fill="#000000">CustomButtonBarDirective </text>
</g>
<!-- JS44DModule&#45;&gt;CustomButtonBarDirective  -->
<g id="edge18" class="edge">
<title>JS44DModule&#45;&gt;CustomButtonBarDirective </title>
<path fill="none" stroke="#000000" stroke-dasharray="5,2" d="M1137.5203,-174C1299.4907,-174 1811.3975,-174 1811.3975,-174 1811.3975,-174 1811.3975,-205.998 1811.3975,-205.998"/>
<polygon fill="#000000" stroke="#000000" points="1807.8975,-205.998 1811.3975,-215.998 1814.8975,-205.9981 1807.8975,-205.998"/>
</g>
<!-- AdvancedQueryComponent  -->
<g id="node20" class="node">
<title>AdvancedQueryComponent </title>
<polygon fill="#fb8072" stroke="#000000" points="1740.0651,-252 1563.9349,-252 1563.9349,-216 1740.0651,-216 1740.0651,-252"/>
<text text-anchor="middle" x="1652" y="-229.8" font-family="Times,serif" font-size="14.00" fill="#000000">AdvancedQueryComponent </text>
</g>
<!-- JS44DModule&#45;&gt;AdvancedQueryComponent  -->
<g id="edge19" class="edge">
<title>JS44DModule&#45;&gt;AdvancedQueryComponent </title>
<path fill="none" stroke="#000000" stroke-dasharray="5,2" d="M1137.8513,-176C1268.8969,-176 1618.3519,-176 1618.3519,-176 1618.3519,-176 1618.3519,-205.9664 1618.3519,-205.9664"/>
<polygon fill="#000000" stroke="#000000" points="1614.8519,-205.9663 1618.3519,-215.9664 1621.8519,-205.9664 1614.8519,-205.9663"/>
</g>
<!-- RecordEditWindow  -->
<g id="node21" class="node">
<title>RecordEditWindow </title>
<polygon fill="#fb8072" stroke="#000000" points="1545.9729,-252 1414.0271,-252 1414.0271,-216 1545.9729,-216 1545.9729,-252"/>
<text text-anchor="middle" x="1480" y="-229.8" font-family="Times,serif" font-size="14.00" fill="#000000">RecordEditWindow </text>
</g>
<!-- JS44DModule&#45;&gt;RecordEditWindow  -->
<g id="edge20" class="edge">
<title>JS44DModule&#45;&gt;RecordEditWindow </title>
<path fill="none" stroke="#000000" stroke-dasharray="5,2" d="M1137.513,-178C1230.045,-178 1422.632,-178 1422.632,-178 1422.632,-178 1422.632,-205.973 1422.632,-205.973"/>
<polygon fill="#000000" stroke="#000000" points="1419.1321,-205.973 1422.632,-215.973 1426.1321,-205.973 1419.1321,-205.973"/>
</g>
<!-- RecordList  -->
<g id="node22" class="node">
<title>RecordList </title>
<polygon fill="#fb8072" stroke="#000000" points="1395.7053,-252 1314.2947,-252 1314.2947,-216 1395.7053,-216 1395.7053,-252"/>
<text text-anchor="middle" x="1355" y="-229.8" font-family="Times,serif" font-size="14.00" fill="#000000">RecordList </text>
</g>
<!-- JS44DModule&#45;&gt;RecordList  -->
<g id="edge21" class="edge">
<title>JS44DModule&#45;&gt;RecordList </title>
<path fill="none" stroke="#000000" stroke-dasharray="5,2" d="M1137.6172,-181C1209.7173,-181 1336.5738,-181 1336.5738,-181 1336.5738,-181 1336.5738,-205.7604 1336.5738,-205.7604"/>
<polygon fill="#000000" stroke="#000000" points="1333.0739,-205.7604 1336.5738,-215.7604 1340.0739,-205.7604 1333.0739,-205.7604"/>
</g>
<!-- Tabs  -->
<g id="node23" class="node">
<title>Tabs </title>
<polygon fill="#fb8072" stroke="#000000" points="1296,-252 1242,-252 1242,-216 1296,-216 1296,-252"/>
<text text-anchor="middle" x="1269" y="-229.8" font-family="Times,serif" font-size="14.00" fill="#000000">Tabs </text>
</g>
<!-- JS44DModule&#45;&gt;Tabs  -->
<g id="edge22" class="edge">
<title>JS44DModule&#45;&gt;Tabs </title>
<path fill="none" stroke="#000000" stroke-dasharray="5,2" d="M1137.403,-183C1189.331,-183 1264.4358,-183 1264.4358,-183 1264.4358,-183 1264.4358,-205.8757 1264.4358,-205.8757"/>
<polygon fill="#000000" stroke="#000000" points="1260.9359,-205.8757 1264.4358,-215.8757 1267.9359,-205.8757 1260.9359,-205.8757"/>
</g>
<!-- Tab  -->
<g id="node24" class="node">
<title>Tab </title>
<polygon fill="#fb8072" stroke="#000000" points="1224,-252 1170,-252 1170,-216 1224,-216 1224,-252"/>
<text text-anchor="middle" x="1197" y="-229.8" font-family="Times,serif" font-size="14.00" fill="#000000">Tab </text>
</g>
<!-- JS44DModule&#45;&gt;Tab  -->
<g id="edge23" class="edge">
<title>JS44DModule&#45;&gt;Tab </title>
<path fill="none" stroke="#000000" stroke-dasharray="5,2" d="M1137.6021,-185C1169.7477,-185 1206,-185 1206,-185 1206,-185 1206,-205.7542 1206,-205.7542"/>
<polygon fill="#000000" stroke="#000000" points="1202.5001,-205.7542 1206,-215.7542 1209.5001,-205.7542 1202.5001,-205.7542"/>
</g>
<!-- WebAppContainer  -->
<g id="node25" class="node">
<title>WebAppContainer </title>
<polygon fill="#fb8072" stroke="#000000" points="1151.7436,-252 1026.2564,-252 1026.2564,-216 1151.7436,-216 1151.7436,-252"/>
<text text-anchor="middle" x="1089" y="-229.8" font-family="Times,serif" font-size="14.00" fill="#000000">WebAppContainer </text>
</g>
<!-- JS44DModule&#45;&gt;WebAppContainer  -->
<g id="edge24" class="edge">
<title>JS44DModule&#45;&gt;WebAppContainer </title>
<path fill="none" stroke="#000000" stroke-dasharray="5,2" d="M1089,-187.1061C1089,-187.1061 1089,-205.991 1089,-205.991"/>
<polygon fill="#000000" stroke="#000000" points="1085.5001,-205.9909 1089,-215.991 1092.5001,-205.991 1085.5001,-205.9909"/>
</g>
<!-- FourDDropDown  -->
<g id="node26" class="node">
<title>FourDDropDown </title>
<polygon fill="#fb8072" stroke="#000000" points="1008.5302,-252 889.4698,-252 889.4698,-216 1008.5302,-216 1008.5302,-252"/>
<text text-anchor="middle" x="949" y="-229.8" font-family="Times,serif" font-size="14.00" fill="#000000">FourDDropDown </text>
</g>
<!-- JS44DModule&#45;&gt;FourDDropDown  -->
<g id="edge25" class="edge">
<title>JS44DModule&#45;&gt;FourDDropDown </title>
<path fill="none" stroke="#000000" stroke-dasharray="5,2" d="M1040.3579,-185C997.4506,-185 941.693,-185 941.693,-185 941.693,-185 941.693,-205.7542 941.693,-205.7542"/>
<polygon fill="#000000" stroke="#000000" points="938.1931,-205.7542 941.693,-215.7542 945.1931,-205.7542 938.1931,-205.7542"/>
</g>
<!-- QuickFindInput  -->
<g id="node27" class="node">
<title>QuickFindInput </title>
<polygon fill="#fb8072" stroke="#000000" points="871.4362,-252 762.5638,-252 762.5638,-216 871.4362,-216 871.4362,-252"/>
<text text-anchor="middle" x="817" y="-229.8" font-family="Times,serif" font-size="14.00" fill="#000000">QuickFindInput </text>
</g>
<!-- JS44DModule&#45;&gt;QuickFindInput  -->
<g id="edge26" class="edge">
<title>JS44DModule&#45;&gt;QuickFindInput </title>
<path fill="none" stroke="#000000" stroke-dasharray="5,2" d="M1040.5519,-183C969.8464,-183 846.713,-183 846.713,-183 846.713,-183 846.713,-205.8757 846.713,-205.8757"/>
<polygon fill="#000000" stroke="#000000" points="843.2131,-205.8757 846.713,-215.8757 850.2131,-205.8757 843.2131,-205.8757"/>
</g>
<!-- DataGrid  -->
<g id="node28" class="node">
<title>DataGrid </title>
<polygon fill="#fb8072" stroke="#000000" points="744.5854,-252 673.4146,-252 673.4146,-216 744.5854,-216 744.5854,-252"/>
<text text-anchor="middle" x="709" y="-229.8" font-family="Times,serif" font-size="14.00" fill="#000000">DataGrid </text>
</g>
<!-- JS44DModule&#45;&gt;DataGrid  -->
<g id="edge27" class="edge">
<title>JS44DModule&#45;&gt;DataGrid </title>
<path fill="none" stroke="#000000" stroke-dasharray="5,2" d="M1040.2895,-181C938.6773,-181 713.4588,-181 713.4588,-181 713.4588,-181 713.4588,-205.7604 713.4588,-205.7604"/>
<polygon fill="#000000" stroke="#000000" points="709.9589,-205.7604 713.4588,-215.7604 716.9589,-205.7604 709.9589,-205.7604"/>
</g>
<!-- ListSelectorDialog  -->
<g id="node29" class="node">
<title>ListSelectorDialog </title>
<polygon fill="#fb8072" stroke="#000000" points="655.7492,-252 530.2508,-252 530.2508,-216 655.7492,-216 655.7492,-252"/>
<text text-anchor="middle" x="593" y="-229.8" font-family="Times,serif" font-size="14.00" fill="#000000">ListSelectorDialog </text>
</g>
<!-- JS44DModule&#45;&gt;ListSelectorDialog  -->
<g id="edge28" class="edge">
<title>JS44DModule&#45;&gt;ListSelectorDialog </title>
<path fill="none" stroke="#000000" stroke-dasharray="5,2" d="M1040.2468,-178C917.1843,-178 603.7116,-178 603.7116,-178 603.7116,-178 603.7116,-205.973 603.7116,-205.973"/>
<polygon fill="#000000" stroke="#000000" points="600.2117,-205.973 603.7116,-215.973 607.2117,-205.973 600.2117,-205.973"/>
</g>
<!-- Base64ImageRef  -->
<g id="node30" class="node">
<title>Base64ImageRef </title>
<polygon fill="#fb8072" stroke="#000000" points="511.9026,-252 396.0974,-252 396.0974,-216 511.9026,-216 511.9026,-252"/>
<text text-anchor="middle" x="454" y="-229.8" font-family="Times,serif" font-size="14.00" fill="#000000">Base64ImageRef </text>
</g>
<!-- JS44DModule&#45;&gt;Base64ImageRef  -->
<g id="edge29" class="edge">
<title>JS44DModule&#45;&gt;Base64ImageRef </title>
<path fill="none" stroke="#000000" stroke-dasharray="5,2" d="M1040.5563,-176C892.8671,-176 458.2874,-176 458.2874,-176 458.2874,-176 458.2874,-205.9664 458.2874,-205.9664"/>
<polygon fill="#000000" stroke="#000000" points="454.7874,-205.9663 458.2874,-215.9664 461.7874,-205.9664 454.7874,-205.9663"/>
</g>
<!-- FourDDateToString  -->
<g id="node31" class="node">
<title>FourDDateToString </title>
<polygon fill="#fb8072" stroke="#000000" points="378.2534,-252 245.7466,-252 245.7466,-216 378.2534,-216 378.2534,-252"/>
<text text-anchor="middle" x="312" y="-229.8" font-family="Times,serif" font-size="14.00" fill="#000000">FourDDateToString </text>
</g>
<!-- JS44DModule&#45;&gt;FourDDateToString  -->
<g id="edge30" class="edge">
<title>JS44DModule&#45;&gt;FourDDateToString </title>
<path fill="none" stroke="#000000" stroke-dasharray="5,2" d="M1040.399,-174C874.9601,-174 343.8957,-174 343.8957,-174 343.8957,-174 343.8957,-205.998 343.8957,-205.998"/>
<polygon fill="#000000" stroke="#000000" points="340.3958,-205.998 343.8957,-215.998 347.3958,-205.9981 340.3958,-205.998"/>
</g>
<!-- LoginCmp  -->
<g id="node32" class="node">
<title>LoginCmp </title>
<polygon fill="#fb8072" stroke="#000000" points="228.1706,-252 147.8294,-252 147.8294,-216 228.1706,-216 228.1706,-252"/>
<text text-anchor="middle" x="188" y="-229.8" font-family="Times,serif" font-size="14.00" fill="#000000">LoginCmp </text>
</g>
<!-- JS44DModule&#45;&gt;LoginCmp  -->
<g id="edge31" class="edge">
<title>JS44DModule&#45;&gt;LoginCmp </title>
<path fill="none" stroke="#000000" stroke-dasharray="5,2" d="M1040.4349,-172C855.9563,-172 209.0177,-172 209.0177,-172 209.0177,-172 209.0177,-205.7333 209.0177,-205.7333"/>
<polygon fill="#000000" stroke="#000000" points="205.5178,-205.7333 209.0177,-215.7333 212.5178,-205.7333 205.5178,-205.7333"/>
</g>
<!-- FourDModule -->
<g id="node17" class="node">
<title>FourDModule</title>
<polygon fill="#8dd3c7" stroke="#000000" points="286.0997,-122 283.0997,-126 262.0997,-126 259.0997,-122 189.9003,-122 189.9003,-86 286.0997,-86 286.0997,-122"/>
<text text-anchor="middle" x="238" y="-99.8" font-family="Times,serif" font-size="14.00" fill="#000000">FourDModule</text>
</g>
<!-- FourDModule&#45;&gt;JS44DModule -->
<g id="edge16" class="edge">
<title>FourDModule&#45;&gt;JS44DModule</title>
<path fill="none" stroke="#000000" d="M265.9616,-122.2222C265.9616,-140.8285 265.9616,-167 265.9616,-167 265.9616,-167 1030.5879,-167 1030.5879,-167"/>
<polygon fill="#000000" stroke="#000000" points="1030.5879,-170.5001 1040.5879,-167 1030.5879,-163.5001 1030.5879,-170.5001"/>
</g>
<!-- FourDInterface -->
<g id="node33" class="node">
<title>FourDInterface</title>
<ellipse fill="#fdb462" stroke="#000000" cx="95" cy="-104" rx="70.6026" ry="18"/>
<text text-anchor="middle" x="95" y="-99.8" font-family="Times,serif" font-size="14.00" fill="#000000">FourDInterface</text>
</g>
<!-- FourDInterface&#45;&gt;JS44DModule -->
<g id="edge32" class="edge">
<title>FourDInterface&#45;&gt;JS44DModule</title>
<path fill="none" stroke="#000000" d="M156.733,-112.7662C156.733,-130.5084 156.733,-169 156.733,-169 156.733,-169 1030.5156,-169 1030.5156,-169"/>
<polygon fill="#000000" stroke="#000000" points="1030.5157,-172.5001 1040.5156,-169 1030.5156,-165.5001 1030.5157,-172.5001"/>
</g>
</g>
</svg>
